<svg xmlns="http://www.w3.org/2000/svg" viewBox="0 0 69.83 30.37"><defs><style>.cls-1{fill:#fff;}</style></defs><g id="Layer_2" data-name="Layer 2"><g id="Layer_1-2" data-name="Layer 1"><path class="cls-1" d="M45.33,5a1.39,1.39,0,0,0,1,.5A1.69,1.69,0,0,0,48,3.8a1.78,1.78,0,0,0-1.6-1.9,1,1,0,0,0-1,.5h0V2h-1.2L44,7.1h1.2Zm.8-2.1a.71.71,0,0,1,.7.8.75.75,0,1,1-1.5-.1A.71.71,0,0,1,46.13,2.9Z"/><path class="cls-1" d="M36.43,5.5l-.1-1.7c0-.4.1-.8.6-.8s.5.4.6.8l.1,1.7,1.2-.1-.1-2.1a1.24,1.24,0,0,0-1.3-1.4,1.1,1.1,0,0,0-1,.6h0L36.33,0l-1.2.1.3,5.5Z"/><path class="cls-1" d="M41.13,5.4a1.23,1.23,0,0,0,1-.5h0v.4h1.2V1.9h-1.2v.3a1.28,1.28,0,0,0-1-.4,1.63,1.63,0,0,0-1.6,1.8A1.58,1.58,0,0,0,41.13,5.4Zm.2-2.5a.74.74,0,0,1,.8.8.77.77,0,0,1-.7.8.74.74,0,0,1-.8-.8A.71.71,0,0,1,41.33,2.9Z"/><path class="cls-1" d="M49.73,5.3a1.23,1.23,0,0,0,1,.5,1.69,1.69,0,0,0,1.8-1.6,1.73,1.73,0,0,0-1.5-2,1.16,1.16,0,0,0-1,.4h0V2.2h0l-1.2-.1-.4,5.1,1.2.1Zm.9-2.1a.71.71,0,0,1,.7.8.75.75,0,1,1-1.5-.1A.85.85,0,0,1,50.63,3.2Z"/><path class="cls-1" d="M64.53,7.8a1.21,1.21,0,0,1-.7-.7l-.7.6a2.1,2.1,0,0,0,1.1.8,1.35,1.35,0,0,0,1.9-.6,1,1,0,0,0-.6-1.3c-.1-.1-.5-.3-.4-.5s.3-.1.4-.1a1,1,0,0,1,.5.4l.6-.6a2.36,2.36,0,0,0-.9-.6,1.24,1.24,0,0,0-1.8.6.86.86,0,0,0,.4,1.1c.3.2.6.4.6.6C64.93,7.9,64.73,7.9,64.53,7.8Z"/><path class="cls-1" d="M67.43,9.1c-.3-.1-.5-.5-.7-.7l-.8.5a3.18,3.18,0,0,0,1,1,1.25,1.25,0,0,0,1.9-.4,1,1,0,0,0-.4-1.3c-.1-.1-.4-.3-.3-.5s.3-.1.4,0a2.18,2.18,0,0,1,.5.4l.7-.5a2.18,2.18,0,0,0-.9-.7c-.6-.3-1.4-.4-1.8.4a.85.85,0,0,0,.2,1.1c.3.3.6.5.5.7C67.83,9.2,67.53,9.2,67.43,9.1Z"/><path class="cls-1" d="M61,7.6a1.62,1.62,0,0,0,1.9-.7l-1.1-.3a.73.73,0,0,1-.6.2c-.5-.1-.6-.4-.5-.9l2.4.7V6.5h0a1.75,1.75,0,0,0-1.3-2.3,1.69,1.69,0,0,0-2.2,1.3C59.33,6.5,59.93,7.3,61,7.6Zm.7-2.8a.75.75,0,0,1,.5.7l-1.3-.4C61,4.8,61.33,4.7,61.73,4.8Z"/><path class="cls-1" d="M54.23,2h0c.4,0,.7-.2.7-.6a.76.76,0,0,0-.6-.8h-.1a.86.86,0,0,0-.7.6C53.63,1.6,53.83,2,54.23,2Z"/><polygon class="cls-1" points="54.73 2.7 53.53 2.6 53.13 5.9 54.33 6.1 54.73 2.7"/><path class="cls-1" d="M56.63,4.7c.1-.4.3-.7.7-.7.6.1.4.7.4,1l-.3,1.6,1.1.2.4-2.1c.1-.8-.1-1.4-1-1.6a1.13,1.13,0,0,0-1.1.3h0l.1-.4-1.1-.2-.6,3.3,1.1.2Z"/><polygon class="cls-1" points="30.13 6.2 29.93 4.8 31.43 6 33.03 5.8 31.03 4.2 32.43 2.4 30.83 2.6 29.83 4 29.43 0.7 28.23 0.9 28.93 6.3 30.13 6.2"/><path class="cls-1" d="M55.33,14.8a.91.91,0,0,0-.8.4,3.75,3.75,0,0,0-.6,2.1,3.44,3.44,0,0,0,.5,2,.91.91,0,0,0,.8.4,1.23,1.23,0,0,0,.8-.4h0a3.44,3.44,0,0,0,.5-2,3.1,3.1,0,0,0-.6-2.1C55.93,14.9,55.63,14.8,55.33,14.8Z"/><path class="cls-1" d="M42.53,8.1c-16.5,0-27.3,4.1-27.3,9.1s10.8,9.1,27.3,9.1,27.3-4.1,27.3-9.1S59,8.1,42.53,8.1ZM25.33,20.3h-2.1a.32.32,0,0,1-.3-.3c0-.1.1-.2.2-.3a.4.4,0,0,0,.2-.4,6.89,6.89,0,0,0-.3-.8h-2.1c-.1.3-.2.5-.3.8v.1c0,.2.1.3.2.3s.2.2.2.3a.27.27,0,0,1-.3.3h-1.2a.32.32,0,0,1-.3-.3c0-.1.1-.2.2-.3l.3-.3a27.2,27.2,0,0,1,1.9-4.7.67.67,0,0,1,.7-.4h.5a.84.84,0,0,1,.7.4,38.47,38.47,0,0,1,1.9,4.7c0,.1.1.2.2.3h0a.37.37,0,0,1,.1.3C25.63,20.1,25.53,20.3,25.33,20.3Zm6.1-1.3c0,.1-.1.2-.2.3a3,3,0,0,1-1.9,1h-1a3,3,0,0,1-2.8-3,2.87,2.87,0,0,1,1-2.2,3.84,3.84,0,0,1,2.5-.9,3.61,3.61,0,0,1,2,.6.55.55,0,0,1,.3.5v.6a.43.43,0,0,1-.4.4h-.1c-.2-.1-.3-.2-.3-.4a1.63,1.63,0,0,0-1.3-1.1,1.61,1.61,0,0,0-1.1.5,3.29,3.29,0,0,0-.6,1.9,3.87,3.87,0,0,0,.4,1.7,1.43,1.43,0,0,0,1.2.6,1.5,1.5,0,0,0,1.1-.4,1.21,1.21,0,0,0,.5-.5.37.37,0,0,1,.3-.1.43.43,0,0,1,.4.4Zm2.8-.1a1.43,1.43,0,0,0,1.2.6,1.5,1.5,0,0,0,1.1-.4,1.21,1.21,0,0,0,.5-.5.37.37,0,0,1,.3-.1h0a.43.43,0,0,1,.4.4V19c0,.1-.1.2-.2.3a3,3,0,0,1-1.9,1h-1a3,3,0,0,1-2.8-3,2.87,2.87,0,0,1,1-2.2,3.93,3.93,0,0,1,3.9-.7,1.76,1.76,0,0,1,.7,2.9,3.84,3.84,0,0,1-2.3.8h-1.2A1.6,1.6,0,0,0,34.23,18.9Zm9.9.1c0,.1-.1.2-.2.3a3,3,0,0,1-1.9,1H41a3,3,0,0,1-2.8-3,2.87,2.87,0,0,1,1-2.2,3.84,3.84,0,0,1,2.5-.9,3.61,3.61,0,0,1,2,.6.55.55,0,0,1,.3.5v.6a.43.43,0,0,1-.4.4h-.1c-.2-.1-.3-.2-.3-.4a1.63,1.63,0,0,0-1.3-1.1,1.61,1.61,0,0,0-1.1.5,3.29,3.29,0,0,0-.6,1.9,2.86,2.86,0,0,0,.5,1.7,1.43,1.43,0,0,0,1.2.6,1.5,1.5,0,0,0,1.1-.4,1.21,1.21,0,0,0,.5-.5.37.37,0,0,1,.3-.1.43.43,0,0,1,.4.4A.1.1,0,0,0,44.13,19Zm3.8,1.4a3.35,3.35,0,0,1-3.5-3.1,3.53,3.53,0,0,1,7,0A3.35,3.35,0,0,1,47.93,20.4Zm7.4,0a3.35,3.35,0,0,1-3.5-3.1,3.53,3.53,0,0,1,7,0A3.28,3.28,0,0,1,55.33,20.4Zm10.3-.2c-.1,0-.2.1-.3.1h-2.1a.37.37,0,0,1-.3-.1c-.1-.1-.2-.2-.2-.3a.27.27,0,0,1,.3-.3.1.1,0,0,0,.1-.1v-.1l-1.2-1.8c-.1.1-.2.1-.4.2v1.5c0,.2.1.3.2.3s.2.2.2.3-.1.2-.2.3-.2.1-.3.1h-2.2a.37.37,0,0,1-.3-.1c-.1-.1-.2-.2-.2-.3s.1-.3.2-.3.2-.2.2-.3V15.2c0-.1-.1-.3-.2-.3s-.2-.2-.2-.3.1-.3.2-.3h2.6c.1.1.2.2.2.3s-.1.2-.2.3-.2.2-.2.3v1.6a6.48,6.48,0,0,0,2-1.7V15c0-.1,0-.1-.1-.2s-.2-.2-.2-.3.1-.3.2-.3h1.5c.1,0,.2,0,.2.1a.37.37,0,0,1,.1.3c0,.1-.1.2-.2.3a2,2,0,0,0-.7.6A5.73,5.73,0,0,1,63,16.6a27.5,27.5,0,0,1,1.9,2.8l.3.3c.1.1.2.2.2.3C65.83,20,65.73,20.1,65.63,20.2Z"/><path class="cls-1" d="M47.93,14.8a.91.91,0,0,0-.8.4,3.75,3.75,0,0,0-.6,2.1,3.44,3.44,0,0,0,.5,2,.91.91,0,0,0,.8.4,1.23,1.23,0,0,0,.8-.4h0a3.44,3.44,0,0,0,.5-2,3.1,3.1,0,0,0-.6-2.1C48.53,14.9,48.23,14.8,47.93,14.8Z"/><path class="cls-1" d="M26.43,7A1.93,1.93,0,0,0,28,4.8a1.75,1.75,0,0,0-2.3-1.3h0a1.93,1.93,0,0,0-1.6,2.2A1.81,1.81,0,0,0,26.43,7Zm-.5-2.5h0a.73.73,0,0,1,.9.6.71.71,0,0,1-.6.9.73.73,0,0,1-.9-.6A.71.71,0,0,1,25.93,4.5Z"/><path class="cls-1" d="M36.13,15.9h0a.9.9,0,0,0-.9-.9.6.6,0,0,0-.4.1,2,2,0,0,0-.9.9,4.25,4.25,0,0,0-.2,1.1v.1H34a3.37,3.37,0,0,0,1.7-.5A1.23,1.23,0,0,0,36.13,15.9Z"/><path class="cls-1" d="M16.93,9.6a2.54,2.54,0,0,0,1.9-.2,3.11,3.11,0,0,0,.9-.7L19,7.3a1.83,1.83,0,0,1-.7,1,1.27,1.27,0,0,1-1.8-.6,1.32,1.32,0,0,1,.6-1.8,1.28,1.28,0,0,1,1.2,0l-.7-1.4a2,2,0,0,0-1.1.3,2.66,2.66,0,0,0-1.2,3.5A3.85,3.85,0,0,0,16.93,9.6Z"/><path class="cls-1" d="M22.23,8.1a1.87,1.87,0,0,0,1.4-2.3,1.78,1.78,0,0,0-2.4-1.1A1.87,1.87,0,0,0,19.83,7,1.81,1.81,0,0,0,22.23,8.1Zm-.7-2.4a.68.68,0,0,1,.9.5.78.78,0,0,1-.5,1,.68.68,0,0,1-.9-.5C20.93,6.2,21,5.8,21.53,5.7Z"/><path class="cls-1" d="M21.13,17.5h1.5a16.67,16.67,0,0,0-.8-2A11.76,11.76,0,0,1,21.13,17.5Z"/><path class="cls-1" d="M14,19.7c.2-.4.1-.7-.4-.8.4-.5.2-1-.2-1.1a3.86,3.86,0,0,0,.3-2.1,1,1,0,0,0-1.8-.3c-.6.7-.9,1.8-1.6,2.6.1-.1-.1-.1,0-.2a4.78,4.78,0,0,0,1-2.8c1.2-.1,1.6-.9,1.7-2,1.5-.9,1.6-2.6.2-3.9,1.1-1.9-.1-3.2-2.3-3.1-.1-2.1-2.9-2.6-4.4-1.1-3.4-1.8-5.4,1.4-3,3.6-3.3-.3-4.3,3.1-1.9,4.5a6.25,6.25,0,0,0,.6,4.9c-2.9,1.6-3,4.5-.1,6a10.41,10.41,0,0,0,.6,1.6c.2.1.5.2.7.3.1.3.1.8.2,1.1a1.86,1.86,0,0,0-1.2.9c-.3.4-.3,1,.2,1,1.1-.1,2.8-.1,3.8-.2.2,0,.2-1,.1-1.4l.1-.8H7l.3,1.3a.6.6,0,0,0,.4.1c0,.2-.1.6,0,.8.5.7,1.3,1,1.9,1.6.7.4,1.8.1,1.5-.9a4.49,4.49,0,0,0-1.2-1.6c.1-.4.2-1,.3-1.4.4-.1.7-.2,1-.3,0-.3.1-.5.1-.8,2-.3,2.5-1.7,2.6-3.5.4-.1.6-.4.9-.7A1.83,1.83,0,0,0,14,19.7Zm-2.1-.1c.3-.2.9-.4,1.1-.2s-.1.6-.4.8-1.1.4-1.3.1C11.23,20.2,11.63,19.8,11.93,19.6Zm-.3-.4c-.1-.2.2-.6.5-.7s.7-.3.9,0-.1.6-.4.8C12.23,19.3,11.73,19.4,11.63,19.2Zm.6-3c.3-.3.8-.2.8.2a2.69,2.69,0,0,1-.5,1.5,2.42,2.42,0,0,0-1.3.8,2.19,2.19,0,0,1-.5-.3C11.23,17.7,11.63,16.9,12.23,16.2Zm-1.9,2.7c.6.1.9,1-.2,1.4a.85.85,0,0,0,.6.2c0,.4.2.7.6.7a.85.85,0,0,0,.2.6,2.36,2.36,0,0,1-2.4-.8c-.2-.3,0-.6.4-.8A.81.81,0,0,1,10.33,18.9ZM6.53,6.1a2,2,0,0,1,3.7,1.1c1.7-.9,3.3,1.2,1.6,2.3,1.1.6,1.6,1.5.9,2.7a2.07,2.07,0,0,0-1.3-.9,2.89,2.89,0,0,0-1.2-1.5c.1.3.3.7.2,1a7.17,7.17,0,0,1-4.8-1.3c.6-1,1.9-.9,3.4-.7-1.3-1.2-3.2-1.2-5-.6C2.23,5.8,5,4.6,6.53,6.1Zm-4.3,7.3h.4c-2.7-1.3-1-5.3,1.8-3.8,1,.5,1.8,1,2.5,1.4-2.3-.2-2.5,2.7-.1,2.7-1.1-.9-1.1-1.9.2-2.6a8.16,8.16,0,0,0,3.7,1.1c1.5.7,1,2.4-.7,2.5.1.1.3.2.4.3-.1,2.6-1.6,4.1-4.6,4C3.33,18.9,1.13,16.8,2.23,13.4Zm6.7,6.7a.66.66,0,0,0-.2.7,3.93,3.93,0,0,1-1.4.3c-.5.1-.5-.9-.1-1a5.56,5.56,0,0,0,1.7-.9A.93.93,0,0,0,8.93,20.1Zm-4.6-.3a1.93,1.93,0,0,0-.3,1,3.76,3.76,0,0,1-1.8-1.5,6.47,6.47,0,0,0,.8-.9A2.85,2.85,0,0,0,4.33,19.8Zm1.6,8.6c-1.1.1-2.4.1-3.6.2-.1-.5.3-1,1.3-1.3a4.62,4.62,0,0,0,2.3.2A2.72,2.72,0,0,1,5.93,28.4Zm-2-2.3a10.1,10.1,0,0,0,1.7.3l-.1.6a8.75,8.75,0,0,1-1.6-.2Zm3.5.4A4.33,4.33,0,0,0,9,26.4c0,.2-.1.5-.1.7a6.15,6.15,0,0,1-1.4.1A1.7,1.7,0,0,0,7.43,26.5Zm3.1,2.8c.2.5-.5,1-1.1.6a5.79,5.79,0,0,1-1.7-1.4c-.2-.2,0-.4,0-.6a8.6,8.6,0,0,0,1.6-.1A15.76,15.76,0,0,1,10.53,29.3Zm-.6-3.9A11,11,0,0,1,3,25a15.83,15.83,0,0,1-1-4.7,6.72,6.72,0,0,0-.3,2.8,2.25,2.25,0,0,1,.2-3.8,3.1,3.1,0,0,0,2.2,1.6,2.2,2.2,0,0,1,.4-1.3,1.06,1.06,0,0,1-.7-.6,5.66,5.66,0,0,0,4.6.1,5.86,5.86,0,0,1-1.6.8,1.2,1.2,0,0,0,.1,1.4,3.21,3.21,0,0,0,1.7-.2c-.3,1.7,0,3.1,1.4,3.7A3.54,3.54,0,0,1,9.93,25.4Zm.9-1a1.89,1.89,0,0,1-1.6-2.5,3.18,3.18,0,0,0,3.5,0A2.1,2.1,0,0,1,10.83,24.4Zm2.5-3.2c-.4.2-1.1.3-1.2,0s.3-.6.6-.8.9-.3,1.1,0S13.63,21,13.33,21.2Z"/><path class="cls-1" d="M5,21.5h1.5a1.6,1.6,0,0,1-.1-1.5l-1.5-.1C4.63,20,4.13,21.4,5,21.5Zm.1-1.4h1.1a1.45,1.45,0,0,0,.1,1.1h-1C4.53,21.2,4.93,20.2,5.13,20.1Z"/><path class="cls-1" d="M3.63,15.9c.3,0,.5-.4.4-1.2.2-.8,0-1.2-.4-1.2S3,14,3,14.7,3.33,15.9,3.63,15.9Z"/><path class="cls-1" d="M5,10.2c-1.4-.5-2.3.2-2.4,1a1.57,1.57,0,0,0,1.6,1.9C3.23,11.7,3.63,10.6,5,10.2Z"/><path class="cls-1" d="M4.83,21.7c-1,1.6-.2,2.7,1,3.8,1.1-1.1,1.7-2.2.8-3.7A5.46,5.46,0,0,1,4.83,21.7Zm1,3.4c-1-.8-1.6-1.7-.8-3a2.23,2.23,0,0,0,1.4,0C7.23,23.3,6.73,24.2,5.83,25.1Z"/><path class="cls-1" d="M9.73,9.2a.76.76,0,0,0-.5-.2c.2.2.5.4.7.6A.52.52,0,0,0,9.73,9.2Z"/><path class="cls-1" d="M8.23,15.1c-.1-.8-.6-1-1.1-.9a1.07,1.07,0,0,0-.7,1.4A1.36,1.36,0,0,1,8.23,15.1Z"/><path class="cls-1" d="M7,17c.1.1.1.2.2.4a.52.52,0,0,0-.1-.8c-.4-.3-.6,0-.5.3a1.5,1.5,0,0,1-2.3-.1C4.23,17.9,6.13,18.4,7,17Z"/></g></g></svg>