<svg xmlns="http://www.w3.org/2000/svg" viewBox="0 0 69.9 70.1"><defs><style>.cls-1{fill:#fffef8;}</style></defs><g id="Layer_2" data-name="Layer 2"><g id="Layer_1-2" data-name="Layer 1"><g id="x7uEo7"><path class="cls-1" d="M0,35V6.6A6.34,6.34,0,0,1,3.2.9,6.29,6.29,0,0,1,6.5,0H63.3a6.57,6.57,0,0,1,6.5,5.2,7.57,7.57,0,0,1,.1,1.5V63.4a6.54,6.54,0,0,1-5.1,6.5,8.75,8.75,0,0,1-1.6.2H6.6A6.5,6.5,0,0,1,.1,64.9,7.57,7.57,0,0,1,0,63.4ZM35,68.3H63.3a5.14,5.14,0,0,0,2.5-.6,4.8,4.8,0,0,0,2.5-4.4V6.5a4.91,4.91,0,0,0-4.9-4.9H6.5A4.91,4.91,0,0,0,1.6,6.5V63.4a4.1,4.1,0,0,0,.1,1.1,4.92,4.92,0,0,0,4.9,3.9C16.1,68.3,25.6,68.3,35,68.3Z"/><path class="cls-1" d="M23.1,26.7v3.2c0,.3.1.3.3.3h6.2c.3,0,.5.1.4.4v.9c0,.3-.1.4-.4.4H21.5c-.3,0-.4-.1-.4-.4V26.7a.55.55,0,0,0-.4-.6,5.31,5.31,0,0,1-1.7-.8.8.8,0,0,1,0-1.5,6.39,6.39,0,0,1,1.9-.8c.2-.1.3-.1.3-.3v-5l-.3.3c-3.1,4.1-6.3,8.3-9.4,12.4a11.32,11.32,0,0,1-1,1.3.76.76,0,0,1-.4.2H8.3c.1-.1.2-.2.2-.3C12,27,15.5,22.3,19,17.7a.6.6,0,0,1,.6-.3H29.8V19H23.5c-.3,0-.4.1-.4.4v3.1a47.15,47.15,0,0,1,6.5-.3v.1c-.1,0-.2.1-.4.1a36.42,36.42,0,0,0-5.7.4c-.3,0-.5.1-.4.5v2c.7.4,6.8.6,7.7.3V24.2a7.46,7.46,0,0,1,5.9-7A7.62,7.62,0,0,1,44.9,20a7.49,7.49,0,0,1-4.2,11.9,7.8,7.8,0,0,1-9.2-4.2c-.3-.6-.5-.8-1.2-.8a20.44,20.44,0,0,1-3.5,0l-3.4-.3A.37.37,0,0,1,23.1,26.7Zm10.2-4v-.1h.4a11.27,11.27,0,0,1,1.8.3,7,7,0,0,1,2.4.9c.7.6.7,1.2-.1,1.7a6.72,6.72,0,0,1-2.8,1,12.86,12.86,0,0,0-1.9.4c0,.1.1.2.1.3a6,6,0,0,0,6.2,3.4,5.93,5.93,0,1,0-3.5-11.1,5.86,5.86,0,0,0-3.2,5.9c0,.2.1.3.3.2s.5-.1.8-.1a23.35,23.35,0,0,0,2.5-.7c.3-.1.7-.3.6-.6a.9.9,0,0,0-.6-.6,12.09,12.09,0,0,0-1.8-.5A2.84,2.84,0,0,0,33.3,22.7Zm-12.1.6a9.29,9.29,0,0,0-1,.5.38.38,0,0,0,0,.7,9.29,9.29,0,0,0,1,.5Z"/><path class="cls-1" d="M22.4,39.1c-.3,1-.7,1.9-1,2.9-1.2,3.3-2.3,6.5-3.5,9.8-.1.3-.2.4-.6.4H16.2a.46.46,0,0,1-.5-.3c-1.1-3.1-2.2-6.1-3.2-9.2l-1.2-3.3c0-.1-.1-.2-.2-.3v13h-2V37.5h3.3c.2,0,.3.1.4.3,1.3,3.6,2.5,7.2,3.8,10.8a6.89,6.89,0,0,0,.4,1c.1-.2.1-.3.2-.4l3.9-11.4c.1-.3.2-.4.5-.4h2.5c.3,0,.4.1.4.4V51.5c0,.4-.1.5-.5.5H22.8a.27.27,0,0,1-.3-.3V39A.1.1,0,0,1,22.4,39.1Z"/><path class="cls-1" d="M57.5,28.4V18.6c0-.4-.1-.9.1-1.1s.7-.1,1.1-.1h.4V31.9H57.9q-.15,0-.3-.3c-1.9-2.6-3.8-5.2-5.6-7.8-.6-.9-1.3-1.8-1.9-2.6l-.3-.3v11H48.3a.22.22,0,0,1-.2-.2V17.8c0-.5,0-.4.5-.5a1.41,1.41,0,0,1,1.5.8c2.4,3.4,4.8,6.7,7.2,10.1-.1.1,0,.2.2.2Z"/><path class="cls-1" d="M40.1,52.1h-2q-.15,0-.3-.3c-.5-1.1-.9-2.1-1.3-3.2-.1-.3-.2-.4-.5-.4H29.9a.46.46,0,0,0-.5.3c-.4,1.1-.9,2.1-1.3,3.2-.1.2-.2.3-.4.3H26a.76.76,0,0,0,.1-.4C28,47,30,42.4,31.9,37.8a.55.55,0,0,1,.6-.4h1.3c.3,0,.4.1.6.4,1.4,3.5,2.8,6.9,4.2,10.4.5,1.2.9,2.3,1.4,3.5A.76.76,0,0,1,40.1,52.1Zm-9.8-5.5h5.5c-.9-2.4-1.8-4.7-2.6-7h-.1C32.1,41.9,31.2,44.2,30.3,46.6Z"/><path class="cls-1" d="M41.7,52.1V37.5h1.8c.1,0,.1.1.2.2V49.9c0,.5,0,.5.5.5h6.3v1.7Z"/><path class="cls-1" d="M61.2,50.4v1.7H52.8c-.3,0-.4-.1-.4-.4V37.9c0-.3.1-.4.4-.4H54c.4,0,.4.1.4.4v12c0,.5,0,.5.5.5h6.3Z"/></g></g></g></svg>