<svg xmlns="http://www.w3.org/2000/svg" viewBox="0 0 69.84 9.6"><defs><style>.cls-1{fill:#fff;fill-rule:evenodd;}</style></defs><g id="Layer_2" data-name="Layer 2"><g id="Layer_1-2" data-name="Layer 1"><path class="cls-1" d="M12.54,9.1a1.15,1.15,0,0,0,.8-1.3,30.09,30.09,0,0,0,.1-3.1V3.2a29.12,29.12,0,0,0-.1-3.1c.2,0,.5.1.9.1a2.22,2.22,0,0,0,.9-.1A30.09,30.09,0,0,0,15,3.2V6.7a2.57,2.57,0,0,1-2.4,2.9l-.1-.5ZM17,3.2a29.12,29.12,0,0,0-.1-3.1c.2,0,.5.1.9.1a2.22,2.22,0,0,0,.9-.1,30.09,30.09,0,0,0-.1,3.1V4.7a29.12,29.12,0,0,0,.1,3.1c-.2,0-.5-.1-.9-.1a2.22,2.22,0,0,0-.9.1A30.09,30.09,0,0,0,17,4.7ZM20.74.1c.2,0,.3.1.5.1a.9.9,0,0,0,.5-.1c1.6,1.8,3.1,3.6,4.7,5.4,0-1.8,0-4.8-.1-5.4.2,0,.3.1.5.1a.9.9,0,0,0,.5-.1c-.2,3.3-.2,4.8-.2,7.8-.1,0-.3-.1-.4-.1s-.3,0-.4.1c-1.5-1.8-3.1-3.6-4.7-5.5V5a15.06,15.06,0,0,0,.1,2.8c-.2,0-.3-.1-.5-.1a.9.9,0,0,0-.5.1,54.21,54.21,0,0,0,.2-5.5,10.28,10.28,0,0,1-.2-2.2ZM35,3.7c0,2.5-1.1,3.6-2.4,3.6s-2.3-.8-2.3-3.2c0-1.9.9-3.5,2.4-3.5C34,.6,35,1.8,35,3.7Zm-6.5.3c0,2.8,1.8,4,4.1,4a4,4,0,0,0,4.1-4,3.75,3.75,0,0,0-4.1-4A3.86,3.86,0,0,0,28.54,4ZM39,2.7c-.2,1.7-.3,3.4-.4,5.1-.2,0-.3-.1-.5-.1a.9.9,0,0,0-.5.1c.5-2.6.8-5.2,1.1-7.8.2,0,.3.1.4.1a.6.6,0,0,0,.4-.1c.8,1.8,1.7,3.8,2.5,5.4.9-1.7,1.7-3.6,2.5-5.4.2,0,.3.1.5.1a.9.9,0,0,0,.5-.1c.3,2.6.7,6.2.9,7.8-.3,0-.6-.1-.9-.1a2.77,2.77,0,0,0-.9.1c-.1-1.6-.3-3.5-.4-5.2h0c-.8,1.7-1.6,3.5-2.4,5.2h-.4c-.8-1.6-1.6-3.4-2.4-5.1Zm14.7,1c0,2.5-1.1,3.6-2.4,3.6S49,6.5,49,4.1c0-1.9.9-3.5,2.4-3.5C52.74.6,53.74,1.8,53.74,3.7Zm-6.5.3c0,2.8,1.8,4,4.1,4a4,4,0,0,0,4.1-4,3.75,3.75,0,0,0-4.1-4,3.86,3.86,0,0,0-4.1,4Zm10.6-2.1V.9c-.4,0-1.5.1-2.2.1,0-.2.1-.3.1-.5a.9.9,0,0,0-.1-.5c1,0,1.7.1,3,.1a27.19,27.19,0,0,0,3-.1c0,.2-.1.3-.1.5a.9.9,0,0,0,.1.5,16.23,16.23,0,0,0-2.1-.1V4.7a29.12,29.12,0,0,0,.1,3.1c-.2,0-.5-.1-.9-.1a2.22,2.22,0,0,0-.9.1,30.09,30.09,0,0,0,.1-3.1l-.1-2.8Zm10.3,1.8c0,2.5-1.1,3.6-2.4,3.6s-2.3-.8-2.3-3.2c0-1.9.9-3.5,2.4-3.5S68.14,1.8,68.14,3.7Zm-6.5.3c0,2.8,1.8,4,4.1,4a4,4,0,0,0,4.1-4,3.75,3.75,0,0,0-4.1-4A3.91,3.91,0,0,0,61.64,4ZM10,.1,6.64,3.6a6.88,6.88,0,0,0-4.3.8C1,5.2-.46,6.5.14,7.6s3,.7,4.2-.4c1.6-1.5,2.7-3.1,2.9-3A5.59,5.59,0,0,1,10,7.9h1.5V.1ZM2.74,7.6c-.5.4-2.4.5-1.4-1.5a5.39,5.39,0,0,1,2.3-2,3.77,3.77,0,0,1,2.6-.2,35,35,0,0,1-3.5,3.7ZM9.84,6s-1.2-1.8-2.3-2c-.1,0,2.3-2.5,2.3-2.5Z"/></g></g></svg>