<svg xmlns="http://www.w3.org/2000/svg" viewBox="0 0 70 70"><defs><style>.cls-1{fill:#fff;}</style></defs><g id="Layer_2" data-name="Layer 2"><g id="Layer_1-2" data-name="Layer 1"><g id="sVchHu"><path class="cls-1" d="M70,35A35,35,0,1,1,35.1,0,35,35,0,0,1,70,35ZM35,69.4A34.4,34.4,0,1,0,.6,34.8,34.4,34.4,0,0,0,35,69.4Z"/><path class="cls-1" d="M59.4,35.5c-.1,0-.2.1-.3.1a5.9,5.9,0,0,1-1.4-.2,14.49,14.49,0,0,1-3.5-1.2,1.48,1.48,0,0,0-.7-.1,1.16,1.16,0,0,1-1-.2,2.28,2.28,0,0,0-1.6-.4,2.22,2.22,0,0,1-1.6-.3,6.69,6.69,0,0,1-1.9-1.4c-.2-.2-.5-.4-.7-.6a.75.75,0,0,0-.8-.1c-.2.1-.2.2-.1.4a7.46,7.46,0,0,0,.7,1.2,5.63,5.63,0,0,0,2.6,1.7l1.2.3a4.81,4.81,0,0,1,1.6.8,7,7,0,0,0,3.4,1.2c.4,0,.4.1.3.5.2,0,.4.1.6.1.8,0,.7-.1.9.7a5.07,5.07,0,0,1,.2,1.3c.1.4-.1.5-.4.4-1.1-.4-2.1-.8-3.1-1.2-.8-.3-1.6-.7-2.4-1-.2-.1-.4-.1-.5-.2v.1c.1.1.2.2.2.3A8.91,8.91,0,0,0,55.5,40a.27.27,0,0,1,.3.3.22.22,0,0,0,.2.2c.3.1.5.1.8.2a.76.76,0,0,1,.4.2,2.72,2.72,0,0,1,.6,1.7c0,.6-.2.7-.7.5A30.74,30.74,0,0,0,54,41.5c-1.6-.8-3.2-1.6-4.7-2.4a5.53,5.53,0,0,0-2.5-.7,19.53,19.53,0,0,0-2.3-.2,27,27,0,0,1-5.6-.8,1.1,1.1,0,0,0-.8,0l-2.7.3a.56.56,0,0,0-.5.6c.1.4,0,.5-.3.7h-.1a17.91,17.91,0,0,0-2.4,1.2,1.42,1.42,0,0,1-.6.2.6.6,0,0,1-.4-.1.3.3,0,0,1,0-.4c.3-.4.5-.8.8-1.2.1-.1.3-.3.3-.4a.3.3,0,0,0,0-.4c0-.1-.2-.1-.3-.1-1.2,0-2.5.1-3.7.1a6.8,6.8,0,0,0-1.9.3,42.09,42.09,0,0,1-4.8,1.2,10.48,10.48,0,0,0-5,2.6c-.1.1-.2.1-.2.2-.2.2-.3.2-.5,0a.19.19,0,0,0-.3,0c-.2.2-.3.4-.5.6a.44.44,0,0,1-.5.1A2.89,2.89,0,0,1,13,41.7a.19.19,0,0,1,0-.3,2.18,2.18,0,0,1,.8-.5c.4-.2.9-.4,1.3-.6.7-.4,1.5-.9,2.2-1.4,1.1-.7,2.1-1.3,3.2-2-.2.1-.5.1-.7.2-.9.4-1.8.7-2.7,1.1a5.72,5.72,0,0,0-1.6,1.1.62.62,0,0,1-.7.2.37.37,0,0,0-.3.1c-.2.2-.5.4-.7.6a.45.45,0,0,1-.5,0A6.89,6.89,0,0,1,12,39.1c-.2-.2-.1-.3.1-.4a4.79,4.79,0,0,1,2-.7,5,5,0,0,0,1.3-.5,52.77,52.77,0,0,1,7.5-3.8,6.47,6.47,0,0,1,1.3-.4c.6-.2.6-.3.7-.9a20.07,20.07,0,0,1,.5-4.2,1.29,1.29,0,0,0-.1-1.2c-.2-.3-.3-.3-.6-.3a16.35,16.35,0,0,1-2.2.2,1.25,1.25,0,0,0-1.1.6,4.35,4.35,0,0,1-.7.6.3.3,0,0,1-.4,0A3,3,0,0,1,19,26a.86.86,0,0,1,.3-.6c.4-.4.8-.7,1.2-1.1a19,19,0,0,1,3.7-2.6,2,2,0,0,0,.9-.9c.2-.4.4-.7.6-1.1,0-.1.1-.1.2-.3.1.2.1.3.2.5s.1.7.2,1c0,.1.1.2.1.3.1-.1.2-.1.3-.2.3-.3.5-.6.8-.9a.37.37,0,0,1,.3-.1c0,.1.1.2,0,.3-.1.4-.1.9-.2,1.3a.84.84,0,0,0,.2.7c.8.8,1.5,1.6,2.3,2.4.2.2.3.4.5.6a.37.37,0,0,0,.3.1,1.85,1.85,0,0,0,.7-.2.63.63,0,0,0,.6-.5,5.49,5.49,0,0,1,1.2-2.1,2.65,2.65,0,0,0,.5-.6.48.48,0,0,0,0-.7c-.1-.2-.2-.2-.4-.2s-.5-.1-.6-.3-.1-.3-.3-.3l-.2-.2a.6.6,0,0,0-.1-.4c-.1-.4-.1-.8-.2-1.2a.45.45,0,0,1,.2-.6l.6-.6a1.32,1.32,0,0,1,2.2.3,5.9,5.9,0,0,1,.4.8c.1.4.3.5.7.5h.4a.55.55,0,0,0,.6-.4c.1-.3.3-.4.6-.5a1.76,1.76,0,0,0,.5-.4c.3-.2.5-.5.8-.7l.1.1c-.1.1-.1.2-.2.3-.3.4-.5.7-.8,1.1-.1.1,0,.2,0,.3a.35.35,0,0,1-.1.2c-.4.2-.8.3-1.3.5a6.89,6.89,0,0,0-.8.3c-.2.1-.2.2-.2.3a1,1,0,0,0,.4.5h.2l1.5-.6c.1-.1.3-.2.3-.3.5-1,1.1-1.9,1.6-2.9a2.88,2.88,0,0,0,.3-1.6.22.22,0,0,0-.2-.2l-3.1-2.2a4.23,4.23,0,0,0-.7-.5c-.1.2-.1.3-.2.4l-.2-.2c-.4-.6-.9-1.1-1.3-1.7-.3-.3-.6-.7-.9-1-.1-.1-.2-.3-.4-.4V9.4c.1,0,.1.1.2.1a13.45,13.45,0,0,0,3.1,1.7.1.1,0,0,1,.1.1c.3.2.3.2,0,.4s-.2.2,0,.3l.6.3a2.05,2.05,0,0,0,1.1,0c1.1-.3,2.3-.7,3.5-1a8.17,8.17,0,0,1,2.7-.1c.1,0,.2.1.3.1-.7.2-1.3.3-2,.5s-1.3.3-1.9.4v.1a10.88,10.88,0,0,1,3.6,0v.1c-.3,0-.6.1-1,.1l-1.7.3a9.76,9.76,0,0,1-3.4.2h-.2v.1c.6.5,1.2.9,1.9,1.4a.6.6,0,0,0,.4.1h1.2c.3,0,.4.1.4.4v.7a.55.55,0,0,0,.3.5c1.1.8,2.1,1.5,3.1,2.3,1.3.9,2.5,1.9,3.7,2.8,1.4,1.1,2.9,2.1,4.4,3.1.1.1.2.1.2.2a.37.37,0,0,1-.1.3h-.3l-.9-.6c-2-1.4-3.9-2.8-5.9-4.2-1.2-.9-2.5-1.8-3.7-2.7l-1.1-.8q-.45-.3-.6.3a9.36,9.36,0,0,1-.4,1.6c-.2.7-.4,1.3-.6,2a1,1,0,0,1-.4.5c-.6.6-1.2,1.1-1.8,1.7a1.23,1.23,0,0,0-.4.8c.1,1.1.1,2.2.1,3.2,0,.4.2.8.2,1.2s.1.6.2.9.1.4.5.3A8.59,8.59,0,0,1,43,29a7.84,7.84,0,0,1,1.4.5,1.4,1.4,0,0,0,1.1,0,3.71,3.71,0,0,1,3.4-.2,10.23,10.23,0,0,1,2.2,1.4,5.26,5.26,0,0,0,2.6,1.5,3.69,3.69,0,0,1,1.4.7c.6.4,1.3.8,1.9,1.2a10.41,10.41,0,0,0,1.6.6,4.88,4.88,0,0,0,.7.3A2.81,2.81,0,0,1,59.4,35.5ZM31.7,28.8l.5.5a.3.3,0,0,0,.4,0c.3-.3.7-.6,1-.9a.73.73,0,0,0,.2-.6c-.1-.4-.1-.8-.2-1.2,0-.1-.1-.2-.2-.4a1.53,1.53,0,0,1-1.2.9,1.27,1.27,0,0,0-.6.1c-.1,0-.2.1-.3.1a9.74,9.74,0,0,1,.5,1.1C32,28.6,32,28.7,31.7,28.8Z"/><path class="cls-1" d="M52,50.2a8.74,8.74,0,0,1-.8,1,6,6,0,0,1-.8.8,1.23,1.23,0,0,1-1,.2.76.76,0,0,1-.6-.8,6.47,6.47,0,0,1,.4-2c.2-.5.3-.9.5-1.4a.37.37,0,0,0-.2-.5c-.1-.1-.3-.1-.4-.2a.35.35,0,0,1-.1.2,12.29,12.29,0,0,1-2.3,3.6,3.58,3.58,0,0,1-2.2,1.1,2,2,0,0,1-2.2-1.9.37.37,0,0,0-.1-.3.76.76,0,0,0-.2.4l-.9,1.2a2,2,0,0,1-1.1.6.89.89,0,0,1-1.1-1,9.36,9.36,0,0,1,.4-1.6l.6-2.1v-.4a.45.45,0,0,0-.5,0c-.2.2-.5.4-.7.6a7.13,7.13,0,0,0-1.4,2.9c-.1.5-.3.9-.4,1.4a.22.22,0,0,1-.2.2H35.3c0-.1.1-.3.1-.4.4-1.4.8-2.8,1.1-4.2v-.2c0-.4,0-.4-.4-.5h-.3v-.3c.8-.1,1.7-.2,2.6-.4-.3.8-.5,1.6-.7,2.3h0a11.32,11.32,0,0,1,1-1.3,3.27,3.27,0,0,1,1.5-1.1h.6a.82.82,0,0,1,.7,1.1l-.6,2.1c-.2.5-.3,1-.5,1.6,0,.1-.1.3.1.4s.3,0,.4-.2c.3-.5.7-.9,1-1.4s.7-1.3,1.1-1.9a3.36,3.36,0,0,1,2.1-1.6,3.4,3.4,0,0,1,1-.1,1.19,1.19,0,0,1,1,1.7c-.2.6-.7.9-1.2,1.3a4.26,4.26,0,0,1-1.8.6c-.2,0-.2.1-.2.2v.7a.78.78,0,0,0,1.1.7,4.5,4.5,0,0,0,1.9-1.4,9.19,9.19,0,0,0,1.6-2.7V47a1.1,1.1,0,0,1-.3-.9,1.8,1.8,0,0,1,.4-.9.62.62,0,0,1,.7-.2c.3,0,.4.2.4.5a4.4,4.4,0,0,1-.2,1h.7c.9,0,1.3.5,1,1.4-.2.7-.5,1.5-.7,2.2l-.3.9a.37.37,0,0,0,.1.3h.3a4.62,4.62,0,0,0,.7-.7,16.18,16.18,0,0,0,1-1.8,4.52,4.52,0,0,1,2.4-2.5,2.92,2.92,0,0,1,1.6-.1,1.85,1.85,0,0,1,1.5,1.9,4.57,4.57,0,0,1-1.3,3.1,3.13,3.13,0,0,1-2.2,1.1,2.62,2.62,0,0,1-1.7-.5,1.74,1.74,0,0,1-.6-1.2Zm4.3-2.9V47a.63.63,0,0,0-1-.6c-.3.1-.5.4-.7.6a7.74,7.74,0,0,0-.7,1.6,6.72,6.72,0,0,0-.4,2.4.67.67,0,0,0,.4.7.63.63,0,0,0,.8-.2,2.65,2.65,0,0,0,.5-.6A7.59,7.59,0,0,0,56.3,47.3ZM44.2,49.2a2.33,2.33,0,0,0,2-2c.1-.3.1-.5-.2-.7s-.5,0-.8.3A4.73,4.73,0,0,0,44.2,49.2Z"/><path class="cls-1" d="M21.7,50.2c-.3.4-.5.7-.7,1a1.84,1.84,0,0,1-1.4.9.86.86,0,0,1-1-1,3.55,3.55,0,0,1,.2-1c-.1.1-.1.2-.2.3-.3.4-.7.9-1,1.3a1.23,1.23,0,0,1-.8.4.86.86,0,0,1-1.1-.9c0-.2.1-.4.1-.6-.2.3-.4.5-.6.8a2,2,0,0,1-1.3.8A1.38,1.38,0,0,1,12.3,51a3.4,3.4,0,0,1,.3-2,6,6,0,0,1,1.9-2.5,2,2,0,0,1,1.3-.4.87.87,0,0,1,.9.6c0,.1,0,.1.1.2.1-.2.1-.4.2-.5s.1-.1.2-.2h.2a4.48,4.48,0,0,0,1.1-.1c-.1.4-.2.7-.3,1.1l-.9,3.6c0,.1,0,.4.1.4s.3-.1.4-.2c.5-.7,1-1.3,1.5-2a2.93,2.93,0,0,0,.3-1,35.74,35.74,0,0,1,1-3.5c0-.1.1-.3.1-.4,0-.3-.1-.4-.4-.4h-.4c-.1-.3-.1-.3.2-.3l2.4-.3c-.1.4-.2.7-.3,1.1-.6,2.2-1.2,4.3-1.8,6.5,0,.2-.1.3-.1.5s.2.3.4.2l.3-.3a7.61,7.61,0,0,0,1.2-1.9,4.52,4.52,0,0,1,2.6-2.8,2.57,2.57,0,0,1,1.5-.1,1.14,1.14,0,0,1,.8,1.4.84.84,0,0,1-.8.6c-.4,0-.7-.2-.7-.6a1.42,1.42,0,0,1,.2-.6,1,1,0,0,1,.1-.3.37.37,0,0,0-.3-.1.76.76,0,0,0-.5.2,1,1,0,0,0-.4.5,5.79,5.79,0,0,0-.9,2.8v.4a1.1,1.1,0,0,0,.6,1,1.06,1.06,0,0,0,1.2-.2,6,6,0,0,0,.8-.8,3,3,0,0,0,.5-.7,8.79,8.79,0,0,0,.6-1,4.71,4.71,0,0,1,2.1-2.3,2.06,2.06,0,0,1,1.7-.2,1.13,1.13,0,0,1,.8,1.5,2.68,2.68,0,0,1-1,1.3A4.85,4.85,0,0,1,29,50c-.2,0-.2.1-.2.3v.8a.8.8,0,0,0,1.1.7,1.56,1.56,0,0,0,.8-.6c.1-.2.3-.3.4-.5.1.1.2.1.4.2-.6.9-1.2,1.7-2.3,1.8a1.89,1.89,0,0,1-2.1-1.9v-.3c-.1.1-.1.2-.2.2-.4.4-.7.9-1.1,1.3a2.35,2.35,0,0,1-2.4.5,1.83,1.83,0,0,1-1.3-1.7C21.7,50.4,21.7,50.3,21.7,50.2Zm-8,.2h0c.1.1,0,.2.1.3a.59.59,0,0,0,1,.4,1,1,0,0,0,.4-.5,5.8,5.8,0,0,0,1-2.1,6.75,6.75,0,0,0,.2-1.4.47.47,0,0,0-.8-.4,1.17,1.17,0,0,0-.6.6,12.15,12.15,0,0,0-.9,2A3.58,3.58,0,0,0,13.7,50.4Zm14.8-1.2a2.44,2.44,0,0,0,2.1-2.1v-.4c0-.2-.2-.3-.4-.3s-.5.2-.6.4A6.59,6.59,0,0,0,28.5,49.2Z"/></g></g></g></svg>