<svg xmlns="http://www.w3.org/2000/svg" viewBox="0 0 70 6.89"><defs><style>.cls-1{fill:#fff;}</style></defs><g id="Layer_2" data-name="Layer 2"><g id="Layer_1-2" data-name="Layer 1"><path class="cls-1" d="M26.9,3.6l1.8,3h-.8c-.1,0-.1-.1-.2-.2-.5-.8-1-1.6-1.5-2.5a.55.55,0,0,0-.5-.3H24.3c-.2,0-.2.1-.2.2V6.3c0,.2-.1.2-.2.2-.5,0-.5,0-.5-.5V3.8c0-.2-.1-.2-.2-.2H21.9c-.1,0-.2,0-.2.2a3.11,3.11,0,0,1-2.8,2.9,3.18,3.18,0,0,1-3.2-1.4A3.6,3.6,0,0,1,16.5.6,3.5,3.5,0,0,1,18.7,0a3.2,3.2,0,0,1,3,2.7.22.22,0,0,0,.2.2h1.3c.2,0,.2-.1.2-.2V.4c0-.2,0-.2.2-.2H26a3.4,3.4,0,0,1,1.4.2,1.38,1.38,0,0,1,.9,1.3A1.66,1.66,0,0,1,27,3.5C27,3.6,27,3.6,26.9,3.6ZM18.5.7a2.49,2.49,0,0,0-2.6,2.7,2.53,2.53,0,0,0,2.5,2.7A2.49,2.49,0,0,0,21,3.4,2.53,2.53,0,0,0,18.5.7ZM25.4,3h1c.2,0,.5-.1.7-.1a.87.87,0,0,0,.6-.9.87.87,0,0,0-.6-.9,1.7,1.7,0,0,0-.7-.1H24.5c-.2,0-.2.1-.2.2V2.9c0,.2.1.2.2.2A2.48,2.48,0,0,1,25.4,3Z"/><path class="cls-1" d="M10.4,5.3c.2-.3.3-.7.5-1C11.5,3,12,1.7,12.6.5c.1-.1.1-.2.3-.2h.5c.3,0,.3,0,.3.3V6.4c0,.2-.1.2-.3.2-.5,0-.5,0-.5-.5V1.6h-.1c0,.1-.1.1-.1.2-.7,1.6-1.4,3.1-2,4.7-.1.1-.1.2-.3.2s-.2-.1-.3-.2C9.4,4.9,8.7,3.4,8,1.8c0-.1-.1-.1-.1-.2H7.8V6.4c0,.3,0,.3-.3.3s-.4,0-.4-.4V.6c0-.2,0-.3.2-.3h.5c.2,0,.2.1.3.2.7,1.5,1.3,3,2,4.5.2.1.2.2.3.3Z"/><path class="cls-1" d="M30,3.4V.5c0-.2,0-.2.2-.2h3.9c.2,0,.2,0,.2.2,0,.5.1.4-.4.4H31c-.3,0-.3,0-.3.3V2.7c0,.3,0,.3.3.3h3c.2,0,.2.1.2.2,0,.4,0,.4-.5.4H31c-.3,0-.3,0-.3.3V5.7c0,.2,0,.2.2.2h3.3c.2,0,.2,0,.2.2,0,.5.1.4-.4.4H30.2c-.2,0-.3,0-.3-.2A28.1,28.1,0,0,0,30,3.4Z"/><path class="cls-1" d="M6.1,6.6H5.4c-.1,0-.1-.1-.2-.2-.3-.8-.7-1.6-1-2.4-.1-.1-.1-.2-.3-.2H2.1c-.2,0-.3.1-.3.2-.3.8-.7,1.6-1,2.4-.1.2-.1.2-.3.2H0a4.88,4.88,0,0,1,.3-.7L2.7.5c.1-.1.1-.2.3-.2.6,0,.4-.1.6.4L6,6.4C6.1,6.4,6.1,6.5,6.1,6.6Zm-3-5.4h0c-.3.6-.6,1.3-.9,1.9H3.9A15.39,15.39,0,0,0,3.1,1.2Z"/><path class="cls-1" d="M43.3.2c.5,0,.5,0,.7.4.8,1.9,1.6,3.9,2.5,5.8a.1.1,0,0,0,.1.1c-.5.1-.5.1-.6-.3-.3-.8-.6-1.5-.9-2.3-.1-.1-.1-.2-.3-.2H42.5c-.1,0-.2,0-.3.2-.3.8-.7,1.6-1,2.3-.1.3-.1.3-.6.3C41.4,4.5,42.3,2.3,43.3.2Zm1.4,3.2c-.4-1-.8-1.9-1.2-2.9-.4,1-.8,1.9-1.2,2.9Z"/><path class="cls-1" d="M69.6,5.4a1.38,1.38,0,0,0,.4.3,3.32,3.32,0,0,1-1.4,1,3.27,3.27,0,0,1-4.2-3.3A2.92,2.92,0,0,1,65.9.6,3.2,3.2,0,0,1,69.3.5a2.65,2.65,0,0,1,.6.5,1.38,1.38,0,0,1-.4.3l-.1-.1A2.3,2.3,0,0,0,66.8.6a2.7,2.7,0,0,0-2,2.6,3.5,3.5,0,0,0,.6,2.2,2.68,2.68,0,0,0,4.2,0Z"/><path class="cls-1" d="M52.7,1a1.38,1.38,0,0,0-.4.3A2.37,2.37,0,0,0,49.6.6a2.57,2.57,0,0,0-1.9,2.2,3,3,0,0,0,.7,2.7,2.78,2.78,0,0,0,4.1,0h.1l.3.3a3.07,3.07,0,0,1-1.5,1,3.47,3.47,0,0,1-3.5-1.2A3.49,3.49,0,0,1,48.7.8,3.39,3.39,0,0,1,52.2.6,3.61,3.61,0,0,0,52.7,1Z"/><path class="cls-1" d="M36.9.2a20.08,20.08,0,0,1,2.5.1,1.56,1.56,0,0,1-.3,3.1H37.3V6.5h-.4Zm.5,2.9h1.9a1.33,1.33,0,0,0,1.1-.8,1.27,1.27,0,0,0-1-1.6c-.6-.1-1.3,0-1.9-.1h0A20.9,20.9,0,0,0,37.4,3.1Z"/><path class="cls-1" d="M57.3,6.6h-.4V.2h3.8V.6H57.4V3.1h3.1v.4H57.4C57.3,4.5,57.3,5.6,57.3,6.6Z"/><path class="cls-1" d="M55,6.6h-.4V.2H55Z"/><path class="cls-1" d="M62.4.2h.4V6.6h-.4Z"/></g></g></svg>