<svg xmlns="http://www.w3.org/2000/svg" viewBox="0 0 70 26.14"><defs><style>.cls-1{fill:#fff;}</style></defs><g id="Layer_2" data-name="Layer 2"><g id="Layer_1-2" data-name="Layer 1"><g id="LOXc4X"><path class="cls-1" d="M11,14.42l2.1.9a6.64,6.64,0,0,1,3.9,5.9,2.55,2.55,0,0,1-1.5,2.6,22.56,22.56,0,0,1-3.3,1.3,41.16,41.16,0,0,1-8.6.9c-1.1,0-1.2-.8-1.3-1.5-.3-1.7-.6-3.4-.8-5.2C1,16,.56,12.82.06,9.52c-.2-1.3.1-1.8,1.2-2.2a12,12,0,0,1,6.5-.4c3.2.8,4.7,3.5,3.5,6.6Zm-3.2,7.7c.8-.1,1.8-.2,2.7-.4a1.83,1.83,0,0,0,1.4-1.8c.1-.9-.7-1.1-1.3-1.4-1.5-.8-3-.1-4.5.1a1.6,1.6,0,0,0-.7.9C5,21.12,5.86,22.12,7.76,22.12Zm-2.4-11.9c-1.5,0-2,.4-2,1.6q0,2.1,1.5,2.1c1.4,0,2.9-1.3,2.9-2.4C7.76,10.62,6.86,10.22,5.36,10.22Z"/><path class="cls-1" d="M29.66,22.92c-1.7-.4-3,.4-4.2,1.8-1.8,2-3.9,1.7-5.3-.6a8.32,8.32,0,0,1-.9-7.2,11.64,11.64,0,0,1,4.9-6.4,4.81,4.81,0,0,1,5.6.1,10.22,10.22,0,0,1,4.6,6.7,7,7,0,0,1-.1,2.9,3,3,0,0,1-3.4,2.6A3.78,3.78,0,0,1,29.66,22.92Z"/><path class="cls-1" d="M42.06,10c4,.1,5.8,1.4,7.2,5.2.5,1.3.9,2.6,1.3,3.9a7.21,7.21,0,0,0,2.1,3.3c1.1,1,1,1.7-.2,2.5a2.59,2.59,0,0,1-3.4-.1c-1.6-1.3-2.1-1.4-4-.2a9.3,9.3,0,0,1-4.7,1.5c-1.5.1-2.9-.1-3.7-1.6a3.63,3.63,0,0,1,.3-4.1,10.61,10.61,0,0,1,5.3-4,7.71,7.71,0,0,0,1.9-.8,1.17,1.17,0,0,0,.5-1.1,1.76,1.76,0,0,0-.8-.9,7.82,7.82,0,0,0-2.6.2c-1,.2-2,.8-3,1.1-1.5.4-2.2-.3-2-1.8a2.76,2.76,0,0,1,2.1-2.6C39.46,10.32,40.76,10.22,42.06,10Zm-.3,12.5c1.2-.4,2.7-.5,3.7-1.6a.85.85,0,0,0-.4-1.5c-1.2-.5-3.8.7-4.3,1.9C40.46,22,40.76,22.42,41.76,22.52Z"/><path class="cls-1" d="M54.46,22c.2-.6.4-1.8.7-2.9a6,6,0,0,0,.2-4.4c-.5-1.2.1-1.9,1.4-2a2.88,2.88,0,0,1,2.5,1,1.46,1.46,0,0,0,2.1.2,11.39,11.39,0,0,1,5.7-1.6,2.91,2.91,0,0,1,2.9,3.5c-.2.8-.8,1-1.5,1.1-1.3.1-2.6.1-3.9.3a7.08,7.08,0,0,0-5.8,5.2c-.2.7-.4,1.4-.6,2.2-.4,1.4-1.1,1.6-2.4,1S54.36,23.82,54.46,22Z"/><path class="cls-1" d="M25.26,0c1.7-.2,3.3,1.3,3.2,4a8.34,8.34,0,0,1-1.1,3.7,2.34,2.34,0,0,1-4.3-.1,6.5,6.5,0,0,1-.5-5.9C23.26.32,23.76-.08,25.26,0Z"/><path class="cls-1" d="M33.76,1.52c2.7,0,4.6,2.7,3.6,4.8A6.12,6.12,0,0,1,33,9.72c-1.1.2-1.8-.1-2-1.2-.4-2.3-.2-4.5,1.5-6.2A4.05,4.05,0,0,1,33.76,1.52Z"/><path class="cls-1" d="M20.36,10.52c0,2.1-.9,2.8-2.3,2.6a5,5,0,0,1-3.6-3.6,3.35,3.35,0,0,1,2.4-3c1.2-.3,1.9,0,2.5,1.3C19.76,8.82,20.06,10,20.36,10.52Z"/></g></g></g></svg>