<svg xmlns="http://www.w3.org/2000/svg" viewBox="0 0 69.9 10.37"><defs><style>.cls-1{fill:#fffef8;}</style></defs><g id="Layer_2" data-name="Layer 2"><g id="Layer_1-2" data-name="Layer 1"><g id="neCiJh.tif"><path class="cls-1" d="M27.06,9.06c-.2.3-.2,1-1,.7V7.56c0-.8,0-.8-.9-.8h-2.4c-.8,0-.7,0-.6.7a3.59,3.59,0,0,0,.2,1.1,1.36,1.36,0,0,0,2.2.6l.3-.3c.4-.4.4-.4.8,0a3.26,3.26,0,0,1-3.3,1.4,3.2,3.2,0,0,1-2.5-2.6,4.3,4.3,0,0,1,.2-2.5,3.11,3.11,0,0,1,5.1-1,2.64,2.64,0,0,1,.7,1.9c0,.3.1.5.5.4s.5.1.6.5a2.71,2.71,0,0,0,1.9,2.1,1.33,1.33,0,0,0,1.6-.5,1.23,1.23,0,0,0-.5-1.9c-.8-.5-1.6-.9-2.4-1.3a2.76,2.76,0,0,1-1.5-3.2,2.59,2.59,0,0,1,1.9-2,2.52,2.52,0,0,1,2.6.5c.3.2.4.2.5-.1s.1-.4.4-.3.4.1.4.3V3c0,.1-.1.3-.2.3s-.4.1-.4-.2a2.74,2.74,0,0,0-1-1.8,1.88,1.88,0,0,0-1.9-.2,1.26,1.26,0,0,0,.1,2.1c.5.3,1,.5,1.4.8s1.1.6,1.6.9A2.91,2.91,0,0,1,32.56,8a3,3,0,0,1-2.6,2.1,3.11,3.11,0,0,1-2.6-.9l-.2-.2C27.16,9.06,27.16,9.06,27.06,9.06Zm-4-3h.6c.2,0,.4-.1.3-.3-.1-.4-.1-.7-.2-1.1a.67.67,0,0,0-.7-.5c-.7,0-1,.4-1,1.5,0,.4,0,.4.8.4Z"/><path class="cls-1" d="M37.36,8.76a5.5,5.5,0,0,1-.7.9,2.27,2.27,0,0,1-2.6.3,1.46,1.46,0,0,1-.7-1.3V4.86c0-.6,0-.6-.6-.6h-.3c-.2,0-.4,0-.4-.3s0-.4.3-.4.6-.1.8-.1a2,2,0,0,0,1.6-1.6c.1-.4.3-.4.6-.3v1.6c0,.5,0,.5.5.5H37c.2.7.1.7-.5.7h-.9a.45.45,0,0,0-.3.3c0,1.4,0,2.7.1,4.1a.85.85,0,0,0,.3.5.88.88,0,0,0,.7-.1c.3-.4.5-.7,1-.4-.1-.3-.2-.4-.2-.5a4.14,4.14,0,0,1,.1-2.9,3.42,3.42,0,0,1,3.5-2,3.3,3.3,0,0,1,3,2.8,3.43,3.43,0,0,1-1.5,3.7,3.53,3.53,0,0,1-4.6-.8Q37.36,8.91,37.36,8.76Zm4.1-1.9c-.1-.6-.1-1.2-.2-1.9a.88.88,0,0,0-.9-.8,1,1,0,0,0-1,.9,11.45,11.45,0,0,0-.1,3.2,1.88,1.88,0,0,0,.2.8.76.76,0,0,0,.9.5,1.06,1.06,0,0,0,.9-.9A9.91,9.91,0,0,0,41.46,6.86Z"/><path class="cls-1" d="M5.56,5.06c.5.2.9.3,1.3.5a2.22,2.22,0,0,1,1.3,2.5A2.34,2.34,0,0,1,6.26,10a9.85,9.85,0,0,1-1.7.2H.26a.35.35,0,0,1-.2-.1.35.35,0,0,1,.1-.2c.6-.1.7-.6.7-1.1V7.16a.76.76,0,0,1,.2-.5,2.72,2.72,0,0,1,1.7-.6c.3,0,.4.1.4.4v2.1c0,.6.3.9.8.9a1.66,1.66,0,0,0,1.6-.6,2.17,2.17,0,0,0,.2-2.2,2.58,2.58,0,0,0-2-1.5c-.5-.1-.9-.1-1.4-.2H.86V1.76c0-.6-.2-.8-.8-.9C0,.66,0,.46.26.46c1.6,0,3.2,0,4.9.1a2.79,2.79,0,0,1,1.8.6,1.9,1.9,0,0,1-.4,3.3A5.3,5.3,0,0,1,5.56,5.06Zm-.3-2.2c0-1.3-.8-1.7-1.9-1.6-.1,0-.2.2-.2.3v2.7a.45.45,0,0,0,.3.3C4.56,4.56,5.16,4.16,5.26,2.86Z"/><path class="cls-1" d="M48.16,10.16c0-.4-.1-.7.3-.9a.85.85,0,0,0,.3-.5V5.36c0-.6-.5-.8-1-.5a1.21,1.21,0,0,0-.8,1.2v2.5a1,1,0,0,0,.5,1c.1,0,.1.3.1.5a.22.22,0,0,1-.2.2H44v-.7a.6.6,0,0,0,.4-.1c.2-.1.5-.3.5-.5V5.56c0-.5-.5-.5-.8-.6-.1-.6-.1-.7.5-.8.8-.2,1.6-.3,2.4-.5.1.3.1.6.2.9a2.65,2.65,0,0,1,.6-.5,2,2,0,0,1,2.3-.4,1.83,1.83,0,0,1,1.1,1.8v2.9c0,.7.1.8.7,1.1.1,0,.1.3.2.5a.22.22,0,0,1-.2.2C50.46,10.26,49.36,10.16,48.16,10.16Z"/><path class="cls-1" d="M20.06,9.26c.1.6.1.6-.5.7-.8.1-1.6.1-2.4.2v-1a.1.1,0,0,1-.1-.1l-.5.5a2.25,2.25,0,0,1-2.7.3,2,2,0,0,1-.8-1.7V5.26c0-.7-.2-.8-.8-1V4c0-.3.1-.4.4-.4h2.6v4.7a.74.74,0,0,0,1.3.5,1.56,1.56,0,0,0,.7-1.3c-.1-.8,0-1.7-.1-2.5a.53.53,0,0,0-.6-.6c-.4,0-.3-.3-.3-.5s.2-.2.4-.2h2.1c.5,0,.5,0,.5.5v4C19.16,9,19.26,9.06,20.06,9.26Z"/><path class="cls-1" d="M68.36,9a5.64,5.64,0,0,0,.4-1.2A1.65,1.65,0,0,0,67.26,6a6.9,6.9,0,0,0-3.5.3c-1.3.5-2.6.9-3.9,1.4-.4.1-.6.1-.7-.3a7.49,7.49,0,0,1-.5-1.6c0-.1.1-.4.2-.4A21.57,21.57,0,0,1,66,3.76a4.75,4.75,0,0,1,2.6.6,2.22,2.22,0,0,1,1.3,2.4A2.43,2.43,0,0,1,68.36,9Z"/><path class="cls-1" d="M57,8.56c.2.1.3.2.5.3a2.94,2.94,0,0,1-1.8,1.3,3.26,3.26,0,0,1-4-3.1,3.37,3.37,0,0,1,1.4-3.2,2.88,2.88,0,0,1,4.6,1.9c.2.9.2.9-.8.9h-2.6c-.3,0-.4.1-.4.4.1.5.1.9.2,1.4a1.45,1.45,0,0,0,2.4.6A1.21,1.21,0,0,0,57,8.56Zm-2.2-2.5h.7a.45.45,0,0,0,.3-.3,5.27,5.27,0,0,0-.3-1.2.67.67,0,0,0-.7-.4.75.75,0,0,0-.7.5,1.85,1.85,0,0,0-.2.7c-.1.6,0,.7.6.7Z"/><path class="cls-1" d="M8.26,10.16v-.6h.2c.5,0,.7-.2.7-.7V2.46c0-.8-.1-.9-.9-1.1a1.44,1.44,0,0,0,.2-.3c.9-.2,1.8-.4,2.8-.6v8.1c0,.8.1.9.9,1.1v.6C10.86,10.16,9.56,10.16,8.26,10.16Z"/><path class="cls-1" d="M58.66,4.46a5.67,5.67,0,0,1,.8-2.6c.1-.1.2-.2.3-.2a13,13,0,0,1,4.8-.4A3.7,3.7,0,0,1,67,2.46c.2.3.4.6.3.9a10.1,10.1,0,0,0-6.2.3,17.23,17.23,0,0,0-2.1.7A.37.37,0,0,0,58.66,4.46Z"/><path class="cls-1" d="M67.46,9.16c.1-.8-.3-1.2-1-.9a20.36,20.36,0,0,0-2.2.9,19.83,19.83,0,0,0-2,1.1.3.3,0,0,1-.4,0,6.15,6.15,0,0,1-2-1.6c.5-.2.9-.3,1.3-.5.9-.4,1.9-.8,2.8-1.1a5.07,5.07,0,0,1,2.4-.4,1.9,1.9,0,0,1,1.3.5A1.11,1.11,0,0,1,67.46,9.16Z"/></g></g></g></svg>