<svg xmlns="http://www.w3.org/2000/svg" viewBox="0 0 69.8 26.2"><defs><style>.cls-1{fill:#fffef8;fill-rule:evenodd;}</style></defs><g id="Layer_2" data-name="Layer 2"><g id="Layer_1-2" data-name="Layer 1"><path class="cls-1" d="M45.4,19.8a1,1,0,0,0-.6.2,24,24,0,0,0-2.1,2.2c-.2.2-.3.4-.5.6h0c-2,2.1-5,3.4-9.3,3.4-6.7,0-12.1-5.9-12.1-13.1S26.2,0,32.9,0c4.3,0,7.3,1.3,9.3,3.4a9.38,9.38,0,0,1,.9,1.2c.7.9,1.7,1.9,2.2,1.9h0c.5,0,1.5-1.1,2.2-1.9l.9-1.2c2-2.1,5-3.4,9.3-3.4,6.7,0,12.1,5.9,12.1,13.1S64.4,26.2,57.7,26.2c-4.3,0-7.3-1.3-9.3-3.4h0a2.65,2.65,0,0,1-.5-.6A24,24,0,0,0,45.8,20c-.2-.3-.4-.2-.4-.2Zm.3-3.4c.6,0,2,.4,3.8,2.6a3.92,3.92,0,0,0,.8,1,10.17,10.17,0,0,0,7.3,3.5c5,0,9.1-4.7,9.1-10.4S62.6,2.7,57.6,2.7a10,10,0,0,0-7.2,3.4,10.63,10.63,0,0,0-.9,1.1,7.33,7.33,0,0,1-3.9,2.6h-.5c-1.4-.2-3-1.6-3.9-2.6-.3-.4-.6-.7-.9-1.1h0a9.85,9.85,0,0,0-7.2-3.4c-5,0-9.1,4.7-9.1,10.4s4.1,10.4,9.1,10.4A10.17,10.17,0,0,0,40.4,20a7,7,0,0,0,.8-1c1.9-2.2,3.3-2.6,3.8-2.6h.7Z"/><path class="cls-1" d="M3.1,11H8.3a10.53,10.53,0,0,0,3-.3,3.52,3.52,0,0,0,1.8-1.3,4.14,4.14,0,0,0,.6-2.3,4.14,4.14,0,0,0-.6-2.3,3.11,3.11,0,0,0-1.6-1.4A14,14,0,0,0,7.8,3H3v8Zm0,12.1H9.2a12.22,12.22,0,0,0,2.2-.1,5.36,5.36,0,0,0,1.9-.7,3.64,3.64,0,0,0,1.2-1.5,5.56,5.56,0,0,0,.5-2.3,5,5,0,0,0-.7-2.7,3.68,3.68,0,0,0-1.9-1.6,10.63,10.63,0,0,0-3.6-.5H3.2v9.4ZM0,25.8V.2H8.9a10.81,10.81,0,0,1,4.4.8,5.5,5.5,0,0,1,2.6,2.4,6.92,6.92,0,0,1,.9,3.4A6.81,6.81,0,0,1,16,9.9,5.77,5.77,0,0,1,13.5,12a7.23,7.23,0,0,1,3.4,2.5,6.7,6.7,0,0,1,1.1,4,7.25,7.25,0,0,1-.7,3.3,9.23,9.23,0,0,1-1.7,2.4A7.07,7.07,0,0,1,13,25.5a13.83,13.83,0,0,1-3.8.4H0Z"/></g></g></svg>