<svg xmlns="http://www.w3.org/2000/svg" viewBox="0 0 70 11.6"><defs><style>.cls-1{fill:#fff;}</style></defs><g id="Layer_2" data-name="Layer 2"><g id="Layer_1-2" data-name="Layer 1"><path class="cls-1" d="M60,11.5h9.9V.1H60Zm10,.1H59.9V0H70Z"/><polygon class="cls-1" points="61.7 1.5 68.2 1.5 68.2 3.8 67.4 2.8 63 2.8 63 3.7 65 5.8 61.7 4.5 61.7 1.5"/><polygon class="cls-1" points="61.7 7.7 61.7 10.1 68.2 10.1 68.2 6.6 65 5.1 66.9 7.3 66.9 8.8 62.6 8.8 61.7 7.7"/><path class="cls-1" d="M5,3H1.5C1.4,3,0,3,0,4.2V7.1c0,.1-.1,1.3,1.7,1.5H5v-1H2.2c-.1,0-.9-.1-.9-.7V4.7c0-.1-.1-.8.9-.8H5.1V3Z"/><rect class="cls-1" x="14.1" y="0.1" width="1.3" height="8.5"/><rect class="cls-1" x="17" y="0.1" width="1.3" height="8.5"/><path class="cls-1" d="M27.8.1V8.6h1.3V4.5c0-.1,0-.3.3-.3h2.5a.82.82,0,0,1,.9.9V8.6h1.3v-4a1.76,1.76,0,0,0-1.9-1.7H29.1V0H27.8Z"/><path class="cls-1" d="M40,3H37.3c-.8,0-1.8.4-1.8,1.4V7.1c0,.7.6,1.4,1.9,1.4h2.5c1.4,0,1.9-.7,1.9-1.4V4.4C41.8,3.3,40.7,3,40,3m.4,4c0,.4-.5.6-.9.6H37.6c-.4,0-.9-.2-.9-.6V4.6c0-.2.2-.6.9-.6h1.8c.8,0,.9.5.9.6V7Z"/><path class="cls-1" d="M47.6,3H44.9a1.68,1.68,0,0,0-1.8,1.5V8.6h1.3V4.9a.74.74,0,0,1,.7-.7h2.2a.68.68,0,0,1,.7.7V8.6h1.3V4.5A1.52,1.52,0,0,0,47.6,3"/><path class="cls-1" d="M24.5,3H21.4a1.41,1.41,0,0,0-1.6,1.3v7.2h1.3V8.6h2.8c1.7,0,2.1-.8,2.1-1.4V4.3C26.1,3.1,24.9,3,24.5,3m.4,3.9a.8.8,0,0,1-.9.7H21.4a.32.32,0,0,1-.3-.3V4.5c0-.1.1-.7.9-.7h2c.2,0,.8.1.8.6V6.9Z"/><path class="cls-1" d="M12.7,6.2V4.3c0-.4-.1-1.4-1.9-1.4H8.3c-.3,0-1.9,0-1.9,1.5V7.1A1.62,1.62,0,0,0,8.2,8.6h4.5v-1h-4c-.2,0-1,.1-1-1V6.2Zm-5-1.6c0-.1.2-.6,1-.6h1.7c.4,0,.9.2.9.6v.8H7.6V4.6Z"/><path class="cls-1" d="M57.1,6.2V4.3c0-.4-.1-1.4-1.9-1.4H52.7c-.3,0-1.9,0-1.9,1.5V7.1a1.62,1.62,0,0,0,1.8,1.5h4.5v-1h-4c-.2,0-1,.1-1-1V6.2ZM52.2,4.6c0-.1.2-.6,1-.6h1.7c.4,0,.9.2.9.6v.8H52.1V4.6Z"/></g></g></svg>