<svg xmlns="http://www.w3.org/2000/svg" viewBox="0 0 70.1 44.7"><defs><style>.cls-1{fill:none;}.cls-2{fill:#fff;}</style></defs><g id="Layer_2" data-name="Layer 2"><g id="Layer_1-2" data-name="Layer 1"><polygon class="cls-1" points="0 35.8 0 36 0 36 0 35.8"/><path class="cls-2" d="M68.5,6.6a9.71,9.71,0,0,0-2.1-.9L62.7,4.3,61,3.8l-3.7-1-3.9-.9L49,1.1,45.6.7C45.5.7,41.3.3,40,.2S36.4.1,34.4,0h-2c-1.5,0-2.5,0-4.8.1L22.5.6,19,1.1l-4,.7-3.3.7-3.2.8-3,.9H5.4c-2,.7-3.1,1.1-3.5,1.3A3.26,3.26,0,0,0,0,8.2H0V36.1H0v.1a3.17,3.17,0,0,0,2,2.9l2.2.8,2.6.9,3.4,1,4.5,1,4.4.8,4.8.6,4,.3h0c1,.1,4,.2,6.6.2,3.1,0,6.1-.2,6.2-.2l2.2-.2,3.7-.4,4-.6,3.7-.7,3.6-.8,3.4-1,2.9-1,1.9-.7,1.8-.8h0l.3-.1h0a3.13,3.13,0,0,0,1.9-2.5V9.4A3.52,3.52,0,0,0,68.5,6.6ZM69,35.2v.1a2.42,2.42,0,0,1-1.4,1.8,1,1,0,0,1-.3.1h0l-1.8.8-1.8.7-2.9,1-3.4,1-3.5.8-3.7.7-4,.6-3.6.4-2.2.2s-3,.2-6.1.2c-2.5,0-5.5-.1-6.4-.2l-4-.3-4.7-.6-4.4-.8-4.4-1L7,39.7l-2.5-.9L2.4,38A2.17,2.17,0,0,1,1,36H1V8.3H1A2.15,2.15,0,0,1,2.4,6.4c.4-.2,2.3-.9,3.4-1.3h0l2.9-.9,3.1-.8,3.3-.7L19,2l3.5-.5L27.6,1A25.57,25.57,0,0,1,32.3.9h2c1.9,0,4.1,0,5.5.1s5.5.5,5.5.5l3.4.4c.5.1,4,.7,4.4.8l3.9.9,3.6,1,1.7.5L66,6.5c1,.4,1.7.7,1.9.8A2.11,2.11,0,0,1,69,9.1V35.2Z"/><path class="cls-2" d="M65.9,8.6l-1.8-.8L60.7,6.5,59.1,6l-3.4-.9-3.6-.8L48,3.6l-3.2-.4-5.2-.4-5.1-.1H32.6l-4.4.1h0l-4.8.5-3.2.4-3.7.6-3.1.6-2.9.8-2.7.8c-.1,0-3.2,1.2-3.2,1.2A2.15,2.15,0,0,0,3.2,9.6V34.7h0v.1a2.23,2.23,0,0,0,1.4,2l2,.7,2.4.8,3.2.9,4.1.9,4.1.7,4.4.5,3.8.3h-.2c.6.1,3.7.2,6.2.2l5.6-.2,2.2-.2,3.4-.3,3.7-.5,3.4-.6,3.3-.7,3.1-.9,2.7-.9,1.7-.6,1.7-.7h0a.49.49,0,0,1,.3-.1,2.42,2.42,0,0,0,1.4-1.8V10.4A2.54,2.54,0,0,0,65.9,8.6ZM65.7,34a1,1,0,0,1-.6.8l-.5.2h0c-.3.1-1.5.6-1.5.6l-1.7.6-2.7.9-3.1.9-3.2.7-3.4.6-3.6.5-3.4.3-2.1.2-5.6.2c-2.7,0-5.5-.1-6-.2L24.6,40l-4.4-.5-4-.7-4.1-.9L9,37l-2.3-.8-2-.7a.87.87,0,0,1-.6-.8v-.3h0V9.6a1.29,1.29,0,0,1,.7-.9l3-1.1,2.7-.8,2.9-.7,3-.6L20,4.9l3.2-.4L27.9,4l4.3-.1h1.9l5.1.1,5.1.4,3.2.4,4.1.7,3.5.8,3.4.9,1.5.5,3.4,1.2,1.6.7a1,1,0,0,1,.5.7C65.7,10.4,65.7,34,65.7,34Z"/><path class="cls-2" d="M10.6,18.6c0-1.3.4-3,2.1-3a1.8,1.8,0,0,1,1.5.7V13a4.53,4.53,0,0,0-1.6-.3c-1.6,0-5.2.9-5.2,6,0,3.9,2.2,5.9,4.9,5.9a4.06,4.06,0,0,0,1.9-.4l.2-3.2a2.19,2.19,0,0,1-1.7.7C11,21.6,10.6,19.9,10.6,18.6Z"/><polygon class="cls-2" points="20.8 17 19.3 17 19.3 12.9 16 12.9 16 24.3 19.3 24.3 19.3 19.7 20.8 19.7 20.8 24.3 24 24.3 24 12.9 20.8 12.9 20.8 17"/><rect class="cls-2" x="25.9" y="12.9" width="3.2" height="11.5"/><path class="cls-2" d="M36.3,15.8a28.51,28.51,0,0,0,.4,4h0l-2.6-6.9H31V24.4h3.1V21c0-1.1-.1-2.1-.2-3.2h0l2.4,6.6h3.1V12.9H36.3Z"/><path class="cls-2" d="M47.9,19.9a1.21,1.21,0,0,1,.5.5.86.86,0,0,1,.3.6.88.88,0,0,1-.9.8,2.51,2.51,0,0,1-2-1.3v3.6a6.87,6.87,0,0,0,2.4.5A3.74,3.74,0,0,0,52,20.8a3,3,0,0,0-.6-2,7.62,7.62,0,0,0-1.6-1.4,2.65,2.65,0,0,1-.6-.5.86.86,0,0,1-.3-.6c0-.4.5-.7.8-.7a3,3,0,0,1,1.9,1.2V13.2a6,6,0,0,0-2.3-.6,3.64,3.64,0,0,0-3.6,3.8,3.22,3.22,0,0,0,.7,2A4.29,4.29,0,0,0,47.9,19.9Z"/><path class="cls-2" d="M58.2,20.1a3.4,3.4,0,0,1-.1,1,.67.67,0,0,1-.7.5c-.4,0-.7-.2-.7-.6a3.4,3.4,0,0,1-.1-1V12.8H53.4v7.5c0,1.4.3,4.2,4,4.2s4-2.8,4-4.2V12.8H58.2Z"/><rect class="cls-2" x="40.9" y="17.6" width="3.4" height="1.4"/><path class="cls-2" d="M62.9,13.7h0l.1-.1.1-.1v-.1l-.1-.1h-.5v.8h.1v-.3h.2a.35.35,0,0,1,.1.2l.1.1h.2l-.1-.1C63,13.8,63,13.7,62.9,13.7Zm-.1-.1h-.2v-.2h.3v.2Z"/><path class="cls-2" d="M63.2,13c-.1-.1-.2-.1-.4-.1a.6.6,0,0,0-.4.1c-.1.1-.2.1-.3.3s-.1.2-.1.4a.76.76,0,0,0,.1.4l.3.3a.85.85,0,0,0,.8,0l.3-.3c.1-.1.1-.2.1-.4a.76.76,0,0,0-.1-.4Q63.35,13,63.2,13Zm.2.9c-.1.1-.1.2-.2.2s-.2.1-.3.1a.37.37,0,0,1-.3-.1c-.1-.1-.2-.1-.2-.2a.5.5,0,0,1,0-.6c.1-.1.1-.2.2-.2a.5.5,0,0,1,.6,0,.22.22,0,0,1,.2.2c0,.1.1.2.1.3A.37.37,0,0,0,63.4,13.9Z"/><polygon class="cls-2" points="18.4 33.9 19.9 33.9 19.9 31.4 23 31.4 23 30.4 19.9 30.4 19.9 29 23.4 29 23.4 27.9 18.4 27.9 18.4 33.9"/><path class="cls-2" d="M29.1,28a5.85,5.85,0,0,0-1.3-.2,5.85,5.85,0,0,0-1.3.2,2.84,2.84,0,0,0-1.4.9,3.3,3.3,0,0,0-.7,2.1,2.92,2.92,0,0,0,2.1,3,5.07,5.07,0,0,0,1.3.2,5.85,5.85,0,0,0,1.3-.2,2.84,2.84,0,0,0,1.4-.9,3.3,3.3,0,0,0,.7-2.1,2.92,2.92,0,0,0-2.1-3Zm0,4.6a1.59,1.59,0,0,1-1.2.4,2,2,0,0,1-1.3-.4,2.24,2.24,0,0,1-.7-1.7,2.06,2.06,0,0,1,.7-1.7,1.84,1.84,0,0,1,1.3-.4,1.59,1.59,0,0,1,1.2.4,2.24,2.24,0,0,1,.7,1.7A2.45,2.45,0,0,1,29.1,32.6Z"/><path class="cls-2" d="M36.6,28a5.07,5.07,0,0,0-1.3-.2A5.85,5.85,0,0,0,34,28a2.84,2.84,0,0,0-1.4.9,3.3,3.3,0,0,0-.7,2.1A2.92,2.92,0,0,0,34,34a5.07,5.07,0,0,0,1.3.2,5.85,5.85,0,0,0,1.3-.2,2.84,2.84,0,0,0,1.4-.9,3.3,3.3,0,0,0,.7-2.1,2.92,2.92,0,0,0-2.1-3Zm0,4.6a1.84,1.84,0,0,1-1.3.4,2,2,0,0,1-1.3-.4,2.24,2.24,0,0,1-.7-1.7,2.06,2.06,0,0,1,.7-1.7,1.84,1.84,0,0,1,1.3-.4,2,2,0,0,1,1.3.4,2.24,2.24,0,0,1,.7,1.7A2.45,2.45,0,0,1,36.6,32.6Z"/><path class="cls-2" d="M42.9,27.9H39.8v6h3.1a2.71,2.71,0,0,0,2.3-1.1,3.38,3.38,0,0,0,.6-2,3.83,3.83,0,0,0-.5-1.9A3.31,3.31,0,0,0,42.9,27.9Zm1,4.4a1.49,1.49,0,0,1-1.3.6H41.2V29h1.4a1.49,1.49,0,0,1,1,.3,1.84,1.84,0,0,1,.6,1.6A2.9,2.9,0,0,1,43.9,32.3Z"/><path class="cls-2" d="M50.8,30.5l-1.7-.4c-.2-.1-.4-.1-.5-.2a.55.55,0,0,1-.3-.5.72.72,0,0,1,.4-.6,1.88,1.88,0,0,1,.8-.2c.6,0,1,.1,1.2.4a.85.85,0,0,1,.2.6h1.4a1.43,1.43,0,0,0-.6-1.2,2.92,2.92,0,0,0-2.2-.7,2.78,2.78,0,0,0-2.2.7,1.66,1.66,0,0,0-.5,1.2,1.36,1.36,0,0,0,.7,1.3,6.4,6.4,0,0,0,1.5.5l.8.2a2.19,2.19,0,0,1,.9.3.66.66,0,0,1,.4.5.63.63,0,0,1-.5.6,2.79,2.79,0,0,1-1,.1c-.6,0-1-.1-1.2-.4a.86.86,0,0,1-.3-.6H46.7a1.9,1.9,0,0,0,.5,1.3,3.4,3.4,0,0,0,2.5.7,3.28,3.28,0,0,0,2.1-.6,1.51,1.51,0,0,0,.7-1.4,1.15,1.15,0,0,0-.6-1.1C51.8,30.8,51.4,30.6,50.8,30.5Z"/></g></g></svg>