<svg xmlns="http://www.w3.org/2000/svg" viewBox="0 0 69.97 70.01"><defs><style>.cls-1{fill:#fff;}</style></defs><g id="Layer_2" data-name="Layer 2"><g id="Layer_1-2" data-name="Layer 1"><path class="cls-1" d="M44.39,0A13.23,13.23,0,0,0,35,3.8a13,13,0,0,0-22.1,9.1A13,13,0,0,0,3.79,35a13,13,0,0,0,9.1,22.1A13,13,0,0,0,35,66.2a13,13,0,0,0,22.1-9.1A13,13,0,0,0,66.19,35a13,13,0,0,0-9.1-22.1,13,13,0,0,0-8-11.9A12.78,12.78,0,0,0,44.39,0ZM25.79,1.8A11.33,11.33,0,0,1,35,6.6a11.14,11.14,0,0,1,20.1,8.3A11.14,11.14,0,0,1,63.39,35a11.14,11.14,0,0,1-8.3,20.1A11.14,11.14,0,0,1,35,63.4a11.14,11.14,0,0,1-20.1-8.3A11.14,11.14,0,0,1,6.59,35a11.14,11.14,0,0,1,8.3-20.1,11.17,11.17,0,0,1,6.7-12.2,10.23,10.23,0,0,1,4.2-.9Zm.8,1.5a13.17,13.17,0,0,0-4.4.8,11,11,0,0,0-6.8,11.3,11.39,11.39,0,0,0-11.3,6.8A11.25,11.25,0,0,0,7.19,35a11.13,11.13,0,0,0,8.2,19.6,11.39,11.39,0,0,0,6.8,11.3A11.1,11.1,0,0,0,35,62.8a11.13,11.13,0,0,0,19.6-8.2,11.39,11.39,0,0,0,11.3-6.8A11.25,11.25,0,0,0,62.79,35a11.13,11.13,0,0,0-8.2-19.6,11.39,11.39,0,0,0-6.8-11.3A11.1,11.1,0,0,0,35,7.2a11,11,0,0,0-8.4-3.9ZM27,4.9a11.26,11.26,0,0,1,8,3.2,11.14,11.14,0,0,1,19,7.8,11.14,11.14,0,0,1,7.8,19,11.14,11.14,0,0,1-7.8,19,11,11,0,0,1-6.9,10.2A11.12,11.12,0,0,1,35,61.7a11.14,11.14,0,0,1-19-7.8A11,11,0,0,1,5.79,47a11.12,11.12,0,0,1,2.4-12.1,11.14,11.14,0,0,1,7.8-19,11,11,0,0,1,6.9-10.2A11.5,11.5,0,0,1,27,4.9Zm-7.1,12.4a7.77,7.77,0,0,0-4.1,1.4,10,10,0,0,0-4.4,8.6,5,5,0,0,0,2.9,4.4c2.3.9,4.1,0,6-1.3l-.5,1.3h3.1L26,24.8c.3-.7,1.7-.5,1.4.3l-1.9,4.5a1.71,1.71,0,0,0,.6,2c1.4.9,3.1,0,4.3-.7.2.4.3.8.7,1,1.1.6,2.8,0,3.7-.6.1,0,.4.4.8.6a3.9,3.9,0,0,0,3.9-.6c-.6,1.5-1.2,3.8-2.8,4.4-.3.1-.8-.1-.8.3a2.33,2.33,0,0,0,2.4.6c2.7-.5,3.1-3.4,4.2-5.3a2.26,2.26,0,0,0,1.1.8c2.8.5,4.5-2.4,6.4-4-.3,1-.8,2.6.3,3.6s3.1.4,4.2-.4l.4.7c.3.5,1.2.5,1.8.3s1.8-.6,1.8-1.2c-.8.1-1.4-.3-1.1-1.2,1.1-2.6,3.4-7.9,3.4-7.9h-3l-.4.9a1.44,1.44,0,0,0-1.1-.9c-3.6-.7-4.9,3.5-6.9,4.8.4-1.3,1.1-3.4-.1-4.4-.9-.8-2.2-.1-3.2.2l.2-.6h-2.9l-3.2,7.2a1.76,1.76,0,0,1-1.3.9.71.71,0,0,1-.6-.3.78.78,0,0,1-.1-.8l3.1-7h-3.1l-2.7,6.3s-.5,1.5-1.1,1.7a.67.67,0,0,1-.8-.3.85.85,0,0,1,0-.7l3.1-6.9h-3l-3.2,7.2c-.3.6-1.5,1.2-1.9.4a.94.94,0,0,1,.1-.9l1.4-3.2c.4-1,1.5-2.6.2-3.3s-2.7.2-3.6.8l2.2-5.1h-3l-4.5,10a4.61,4.61,0,0,1-3.5,2.2,2.41,2.41,0,0,1-2.7-.9c-1.4-2.2-.2-4.8.9-6.7.8-1.4,2.2-3.3,4-3.2a.89.89,0,0,1,.8.5c.4,1.2-1,2-1.8,2.5.2,1,2,1.1,2.7.7a3,3,0,0,0,1.6-2.5,2.66,2.66,0,0,0-1.1-2.2,3,3,0,0,0-2.4-1.1ZM56.09,24c.6,0,.7.5.5,1l-2,4.6a.93.93,0,0,1-1.2.4c-.1-.1-.3-.2-.3-.4a9,9,0,0,1,1.3-3.9c.3-.7.8-1.6,1.6-1.7Zm-9.7.1c.3,0,.5.1.5.4.2,1.3-1.5,5-2.7,5.6a.55.55,0,0,1-.8-.3c-.1-.3.1-.6.2-.9l1.9-4.3a.81.81,0,0,1,.9-.5ZM28,33.3h-3.3l-5,11.1c-1.6,1.7-3.8,3.3-6,2.4a2.76,2.76,0,0,1-1.6-2.7,8.69,8.69,0,0,1,1.5-5.3c1-1.5,2.3-3.3,4.2-3.5A1.09,1.09,0,0,1,19,36a1.39,1.39,0,0,1-.4,1.5,2.75,2.75,0,0,1-1.5.8c.3,1.3,2.1,1.2,3.1.8a2.87,2.87,0,0,0,1.6-1.8,3.21,3.21,0,0,0-.5-2.7c-1.1-1.4-3-1.5-4.6-1.1A11,11,0,0,0,9,41c-.7,2.7-.5,6.1,2,7.6,2.9,1.8,5.6,0,7.6-1.5l-.8,1.7h3.4l3.6-8.2c.4-.8,2-.7,1.6.4l-2,4.5a3.53,3.53,0,0,0-.4,1.7,1.68,1.68,0,0,0,.9,1.7c1.6.7,3.2-.3,4.5-1.4a1.81,1.81,0,0,0,1.4,1.5c1.3.3,2.4-.5,3.4-1.1.2.4.3.8.7,1,1.3.6,2.8-.1,3.9-.7l-1.1,2.5a16.79,16.79,0,0,0-8.9.2,4.63,4.63,0,0,0-3.3,3.8,3.51,3.51,0,0,0,1.7,3.2,8.69,8.69,0,0,0,7.7.3,10.05,10.05,0,0,0,3.6-2.9c4.6,1,10.2,1.7,13.4-2.4a3.12,3.12,0,0,0,.6-1.3,7,7,0,0,1-2,.8,19.54,19.54,0,0,1-5.4.1,15,15,0,0,1-4.3-1l1.7-3.8a1.89,1.89,0,0,0,1.4,1.2c1.9.4,3.5-.9,4.7-2.2l5.7-6.2c.2-.2.5-.6.9-.5.1,0,.2.1.1.3a26.72,26.72,0,0,0-.9,2.6c-.4,1.4-.2,3-1.1,4.2a1,1,0,0,1-.9.4.89.89,0,0,1-.8-.5,1.42,1.42,0,0,1,.5-1.6,1.45,1.45,0,0,0-.7-.2,1.52,1.52,0,0,0-1.2.7,1.74,1.74,0,0,0-.3,1.4,2.17,2.17,0,0,0,1.6,1.6,4.71,4.71,0,0,0,4.4-1.1c2.1-1.8,1.5-4.9,1.2-7.3a2.76,2.76,0,0,1,1.6-2.8,1.23,1.23,0,0,0-1-.5c-3.2-.4-5.3,3.7-7.3,4.9.1-.4,1-3.7-.6-4.7-1.1-.7-2.4,0-3.4.6l.1-.6h-3l-3.9,8.8c-.2.5-.8.6-1.3.6a.71.71,0,0,1-.6-.3.85.85,0,0,1,0-.7l3.8-8.4h-3.3l-3.7,8.4a.94.94,0,0,1-.9.5.62.62,0,0,1-.6-.4.85.85,0,0,1,0-.7l3.4-7.9h-3.3l-3.6,8.3a2,2,0,0,1-1.2,1,.78.78,0,0,1-.8-.2,1,1,0,0,1,0-.9c.8-2.1,2-4.1,2.7-6.3a1.53,1.53,0,0,0-.4-1.7c-1.3-.9-2.8-.2-4,.5Zm18.5,6.8a.66.66,0,0,1,.5.4,1.39,1.39,0,0,1,0,.9,21.93,21.93,0,0,1-2.3,4.9c-.3.5-1.5.7-1.5,0v-.4l2.4-5.3a.94.94,0,0,1,.9-.5ZM30.89,54.2a6.6,6.6,0,0,1,1.4.1,13.56,13.56,0,0,1,2.9.6,4.87,4.87,0,0,1-6.6,2.1,1.31,1.31,0,0,1,0-2.4,5.87,5.87,0,0,1,2.3-.4ZM40,56.4a2,2,0,0,0-1.1.3,2.36,2.36,0,0,0-.9.8,2.84,2.84,0,0,0-.4,1.3,2.4,2.4,0,0,0,4.1,1.7,2.37,2.37,0,0,0,.3-3,2.31,2.31,0,0,0-2-1.1Zm0,.5a2,2,0,0,1,1.4,3.4,1.82,1.82,0,0,1-1.4.6,2,2,0,0,1,0-4Zm-1.1.6V60h.5V59h.1c.2,0,.3,0,.4.1a2.19,2.19,0,0,1,.3.5l.2.4H41l-.3-.5c-.1-.2-.2-.3-.3-.5s-.1-.1-.2-.1a.68.68,0,0,0,.7-.7.73.73,0,0,0-.6-.7h-1.4Zm.5.4h.7c.1,0,.2,0,.2.1s.1.1.1.2,0,.2-.1.2-.1.1-.2.1h-.7Z"/></g></g></svg>