<svg xmlns="http://www.w3.org/2000/svg" viewBox="0 0 70.1 26.08"><defs><style>.cls-1{fill:#fff;}</style></defs><g id="Layer_2" data-name="Layer 2"><g id="Layer_1-2" data-name="Layer 1"><path class="cls-1" d="M9.3,3.38c.7-.7.7-1.3.1-1.3-1.8,0-2.9,2.7-2.9,2.7a8.19,8.19,0,0,0-3,.7c-.6.4-1.2.8-1,1.3C2.9,7.88,4,7,4,7s-.3.8,0,1.1c.9.9,1.4-.2,1.7-.9a14.37,14.37,0,0,1,.8-1.7c-.1.3-.3,2.2.4,2.8s1.1-.1,1.2-.8c.8.5,1.3-.1.9-.7a4.3,4.3,0,0,0-1.6-1.5,5,5,0,0,0,2.7-.5C10.8,4,9.8,3.48,9.3,3.38Zm47.4,9.5.8.7h1.1l-1.5-1.3h-.7l-1.5,1.3H56ZM38,12.78v-.3c.1-.1.1-.1.2-.1s.1,0,.2.1a.35.35,0,0,1,.1.2v.1a.1.1,0,0,1-.1.1l-.1.1-.1.1a.1.1,0,0,1-.1.1c-.1.1-.1.2-.1.4v.1h.5a.37.37,0,0,1,.1-.3.1.1,0,0,1,.1-.1l.1-.1h0l.1-.1a.37.37,0,0,0,.1-.3.68.68,0,0,0-.7-.7,1.42,1.42,0,0,0-.6.2.55.55,0,0,0-.2.5V13l.5-.2Zm20.7-.9,1.8,1.5L60,14l-1.8-1.5Zm-55.1,2H4a1,1,0,0,0,.7.4.9.9,0,0,0,0-1.8,1,1,0,0,0-.8.5H1.7l1.6-1.6h.2a.9.9,0,1,0-.9-.9v.3L1,12.38V9a.84.84,0,0,0,.4-.7.9.9,0,0,0-.9-.9c-.2,0-.3,0-.4.1V9h0v4.2a.79.79,0,0,0,.8.8l2.7-.1Zm55.4,3H54.3a2.48,2.48,0,0,1,.8-1.4,2.2,2.2,0,0,1,1.5-.6,2,2,0,0,1,1.5.6A2.16,2.16,0,0,1,59,16.88Zm-20.8,3a2.19,2.19,0,0,1-1.7-.7,2.34,2.34,0,0,1-.7-1.7,2.06,2.06,0,0,1,.7-1.7,2.29,2.29,0,0,1,1.7-.8,2.19,2.19,0,0,1,1.7.7,2.34,2.34,0,0,1,.7,1.7,2.39,2.39,0,0,1-2.4,2.5Zm13.9-5.1a2.56,2.56,0,0,0-1.9-.8,2.48,2.48,0,0,0-2.1,1.1A2.48,2.48,0,0,0,46,14a1.86,1.86,0,0,0-1.6.7v-.5h-1v6.4h1v-3.7a2,2,0,0,1,.4-1.4,1.43,1.43,0,0,1,1.2-.6,1.21,1.21,0,0,1,1.2.6,2.59,2.59,0,0,1,.4,1.4v3.7h1v-3.7a2,2,0,0,1,.4-1.4,1.43,1.43,0,0,1,1.2-.6,1.31,1.31,0,0,1,1.2.6,2.59,2.59,0,0,1,.4,1.4v3.7h1v-3.8A2.72,2.72,0,0,0,52.1,14.78Zm17.3,0a2.56,2.56,0,0,0-1.9-.8,2.48,2.48,0,0,0-2.1,1.1A2.48,2.48,0,0,0,63.3,14a1.86,1.86,0,0,0-1.6.7v-.5h-1v6.4h1v-3.7a2,2,0,0,1,.4-1.4,1.43,1.43,0,0,1,1.2-.6,1.21,1.21,0,0,1,1.2.6,2.59,2.59,0,0,1,.4,1.4v3.7h1v-3.7a2,2,0,0,1,.4-1.4,1.43,1.43,0,0,1,1.2-.6,1.21,1.21,0,0,1,1.2.6,2.59,2.59,0,0,1,.4,1.4v3.7h1v-3.8A2.72,2.72,0,0,0,69.4,14.78Zm-36.2,4.6a2.93,2.93,0,0,1-1.6.4,3.36,3.36,0,0,1-2.4-1.1,3.25,3.25,0,0,1-1-2.4,3.47,3.47,0,0,1,1-2.5,3.37,3.37,0,0,1,5.3.4h1.1v-.1a3.51,3.51,0,0,0-.5-.8,4.33,4.33,0,0,0-3.4-1.5,4.38,4.38,0,0,0-3.2,1.3,4.22,4.22,0,0,0-1.3,3.2,4,4,0,0,0,1.3,3.1,4.22,4.22,0,0,0,3.2,1.3,4.08,4.08,0,0,0,3.2-1.3,4.18,4.18,0,0,1-.4-1C34,18.78,33.6,19.08,33.2,19.38Zm23.5-5.3a2.9,2.9,0,0,0-2.3,1,3.49,3.49,0,0,0-1,2.4,2.9,2.9,0,0,0,1,2.3,3,3,0,0,0,2.4,1,3.29,3.29,0,0,0,1.9-.6,3.11,3.11,0,0,0,1.2-1.6v-.1h-1v.1a2,2,0,0,1-.8,1,2.84,2.84,0,0,1-1.3.4,2.45,2.45,0,0,1-1.6-.6,2.1,2.1,0,0,1-.7-1.4h5.6v-.3a3.25,3.25,0,0,0-1-2.4A2.84,2.84,0,0,0,56.7,14.08Zm-18.5,0a3.25,3.25,0,0,0-2.4,1,3.69,3.69,0,0,0-1,2.4,2.9,2.9,0,0,0,1,2.3,3.45,3.45,0,0,0,2.3,1,3.25,3.25,0,0,0,2.4-1,3.1,3.1,0,0,0,1-2.4,3.25,3.25,0,0,0-1-2.4A3.17,3.17,0,0,0,38.2,14.08Zm20.7,9.2v1h.9c.5,0,.7-.2.7-.5s-.3-.5-.7-.5Zm-3.3,1.6-.7-1.5-.7,1.5Zm5.1.3c0-.4-.3-.5-.8-.5h-1v1h1C60.4,25.68,60.7,25.48,60.7,25.18Zm-24.8-.7a1.2,1.2,0,1,0-1.2,1.2A1.16,1.16,0,0,0,35.9,24.48Zm13.9-1.6h.4v2.7h1.7V26H49.8Zm-18.9,0V26h-.4v-1.4H28.7V26h-.4v-3.1h.4v1.3h1.8v-1.3ZM41.3,26v-2.3l-1.1,1.9H40l-1.1-1.9v2.2h-.4v-3.1h.4L40.2,25l1.3-2.2h.4v3.1h-.6Zm19.8-.8c0,.5-.4.8-1.2.8H58.4v-3.1h1.4c.7,0,1.1.3,1.1.8a.84.84,0,0,1-.4.7A.76.76,0,0,1,61.1,25.18Zm-5.3.1H54.2l-.3.8h-.5L54.8,23h.4l1.4,3.1h-.5Zm-9.5.3V26H44.1v-3.1h2.2v.4H44.6v.9h1.5v.4H44.5v1Zm-24.7-7.2a10,10,0,0,0,1.3-2.8A19.22,19.22,0,0,0,24,8.48h0v-1h0a.37.37,0,0,0-.3-.1.65.65,0,0,0-.6.6.63.63,0,0,0,.5.6,12,12,0,0,1-.3,2.4,11.39,11.39,0,0,0-1.8-4.4,15.47,15.47,0,0,0-5.2-4.5h0L13,.58a.82.82,0,0,0-.5-.5.84.84,0,0,0-1.1.4.84.84,0,0,0,.4,1.1,1,1,0,0,0,1-.2l1.9.8-1.8.7-.3-.3a.83.83,0,1,0-.7,1.5.84.84,0,0,0,1.1-.4l2.1-.8-.8,2a.63.63,0,0,0-.6.5.83.83,0,1,0,1.5.7,1,1,0,0,0-.1-.9l.8-2.1.8,2.1c-.1.1-.1.1-.1.2A.83.83,0,1,0,17.7,5c-.1,0-.1,0-.2-.1l-.9-2.2c1.9,1.4,10.4,8.3.9,17.7a21.93,21.93,0,0,0-4.2,5.5h2.5s2.6-6.6,8.3-6.2V18A8.59,8.59,0,0,0,21.6,18.38ZM4.9,24.78a.84.84,0,0,0-.7.4H1.7l2.1-2.1H4a.9.9,0,1,0-.9-.9v.2L.9,24.58v-4.3a.84.84,0,0,0,.4-.7.9.9,0,0,0-.9-.9c-.2,0-.3,0-.4.1v1.4H0v4.9a.79.79,0,0,0,.8.8H5.6a.6.6,0,0,0,.1-.4A.77.77,0,0,0,4.9,24.78Zm4.7.8c-.2-2.1-1.4-11.1-9.5-10.7v1.3s7.2-1,7.3,9.9h3.8l.1-.1a14,14,0,0,0,2.8-10.9c.4,1.1,1.2,3.3,2.4,3.9,1.6.9,1.8-1.1,1.6-2,1.5.6,1.9-.3,1.6-1.3s-1.8-2.8-5.2-2.4c0,0,5-1.7,5.3-3.5s-2.3-1.4-3.5-1c-.1-1.8-1.4-1.9-2-.7a7.06,7.06,0,0,0-.5,5c-1-2.7-3.5-5-4.9-3.9s0,1.9,0,1.9-1.4.1-1.7.9c-.7,2,1.4,1.8,2.7,1.8a17,17,0,0,1,3.3-.1c-3.9,1.1-5.5,3.8-4.8,4.7s1.6,0,1.6,0-1,1.5.7,2,1.9-1.8,2.1-3.3a6.18,6.18,0,0,1,.8-2.3C13.8,16.68,13.8,22,9.6,25.58ZM33,24.48a1.6,1.6,0,1,1,1.6,1.6A1.58,1.58,0,0,1,33,24.48Zm-9-2.1v-1.5a.6.6,0,0,0-.4-.1.9.9,0,0,0-.9.9.84.84,0,0,0,.4.7v2.2L21.5,23v-.3a.9.9,0,1,0-.9.9h.2l1.6,1.6h-2a1,1,0,0,0-.7-.4.9.9,0,0,0-.9.9c0,.2,0,.3.1.4h4.3a.79.79,0,0,0,.8-.8v-2.9Z"/></g></g></svg>