<svg xmlns="http://www.w3.org/2000/svg" viewBox="0 0 69.81 22.65"><defs><style>.cls-1{fill:#fffef8;fill-rule:evenodd;}</style></defs><g id="Layer_2" data-name="Layer 2"><g id="Layer_1-2" data-name="Layer 1"><path class="cls-1" d="M69.41,19.45a.22.22,0,0,1,.2.2c.2.3.2.4.2.5a.76.76,0,0,1-.1.4c-.1.1-.1.2-.3.2.1.1.2.1.2.2s.1.2.1.4V22h-.5v-.5c0-.2,0-.3-.1-.3s-.1-.1-.3-.1h-.5v1h-.5v-2.5h1.1a1.34,1.34,0,0,1,.5-.1Zm-1,.4v.7h.8c.1,0,.1-.1.1-.3s0-.3-.1-.3h-.8Zm-1.7-.4h.7V22h-.5v-2.1l-.4,2.1H66l-.4-2.1V22h-.5v-2.5h.7l.4,1.9.5-1.9Z"/><path class="cls-1" d="M26.11,19.75c-2.6-1.6-6-1.9-11.6-.4-6,1.4-7.9,2.3-10.5.5-1-.9-1.4-2.3-1.1-4.4.6-3.3,2.3-6.6,5.3-10.1,1.7-1.9,3.2-3.5,5.3-4.1,1.6-.4,1.4.8,1.2,1a1.34,1.34,0,0,0-.8.2,2.09,2.09,0,0,0-.8,1.4c0,1.1,1.1.9,1.6.3s1.3-2,.7-3.2a2,2,0,0,0-1.2-.8A9.08,9.08,0,0,0,9,2a22.63,22.63,0,0,0-7.9,9.5c-.9,2.2-1.7,5.4-.5,8a5.34,5.34,0,0,0,5.3,2.6,49,49,0,0,0,5-1c1.4-.3,8.3-2.7,10.6,1.4a3.12,3.12,0,0,1,2.7-1.5,9.3,9.3,0,0,1,5.5,1.7,15.7,15.7,0,0,0-3.6-2.9Z"/><path class="cls-1" d="M15.21,5.75c-1.3-.9-3.9.8-6,3.6-1.9,2.5-2.7,5.4-1.8,6.8,1.3,1.6,3.8-.7,4.9-2l.1-.1a15.1,15.1,0,0,0,1.8-2.6,7.26,7.26,0,0,0,.5-.9,6.15,6.15,0,0,0,1.1-.3s-1.6,2.7-1.4,4c.1.4,0,1.9,1.4,2.3,1.9.3,3.4-1.2,4.8-2.5a1.87,1.87,0,0,1,.4-.3,1,1,0,0,1-.1.3c-.6,1.9.2,2.4.7,2.5,1.4.4,3.1-1.7,3.1-1.7,0,.7-.2,1.2.5,1.6a2.32,2.32,0,0,0,1.8-.4,20.82,20.82,0,0,0,4.4-5h-.7s-1.8,2.6-3,3.2c0,0-.2.1-.3,0s-.1-.4,0-.6l4.6-8h-2.2s-.2.4-.3.4a.1.1,0,0,0-.1-.1c-1.3-1.9-4.4,1-6.7,4.3a18.93,18.93,0,0,1-3.2,3.7s-1.7,1.6-2.5.4a1.8,1.8,0,0,1,0-1.6,13.79,13.79,0,0,1,4-6c.5-.4,1-.5,1.2-.3a.48.48,0,0,1,.1.7,1.28,1.28,0,0,0-1,.4,1.37,1.37,0,0,0-.5,1.5c.8,1.1,2.3-1.1,2.2-2.4a1.23,1.23,0,0,0-.7-1.1,2.33,2.33,0,0,0-2,0,11.34,11.34,0,0,0-2.6,2c-.9,1-2.4,2-2.8,1.9.4-.2,1.7-2.7.3-3.7Zm10.5,3.8a28.84,28.84,0,0,1,1.9-2.4c1-.9,1.4-.5,1.4-.2-.9,1.7-2,3.6-3.1,5.3l-.3.5a4.62,4.62,0,0,1-1.7,1.7h-.4a.76.76,0,0,1-.2-.4,12.76,12.76,0,0,1,2.4-4.5Zm-11.8,1h0c0,.1-1,1.6-1,1.6a7.68,7.68,0,0,1-2.2,2.2.75.75,0,0,1-.8-.1,1.53,1.53,0,0,1,0-1.6l.1-.2A19.54,19.54,0,0,1,11.91,9h0a3.17,3.17,0,0,0,2,1.5h0v.1Zm.9-1.8-.4,1c-.1.1-.2,0-.3,0h-.2a2,2,0,0,1-1.2-1c-.2-.9.6-1.6.9-1.9a1.1,1.1,0,0,1,1.1-.1,1.14,1.14,0,0,1,.3.8,2.74,2.74,0,0,1-.2,1.2Z"/><path class="cls-1" d="M42.21,11.65A1.21,1.21,0,0,0,41,11a5.87,5.87,0,0,0-4.3,3.6,9.91,9.91,0,0,0-.9,3.3,9.07,9.07,0,0,1,2.9-2.2,7,7,0,0,1,1-2.5c.3-.5,1-1.3,1.7-1.1s.4,2-.4,3.7a11,11,0,0,1-2.6,3.4c-.9.7-2.1,1.6-3.2.9a2.41,2.41,0,0,1-1-2.4c.3-3.2,1.8-5.9,3.8-8.9s4.5-5.8,7.6-7.3a2.29,2.29,0,0,1,1.8-.2A11.24,11.24,0,0,0,43,5.85c-.4.8-.9,1.8-.4,2.7a1.07,1.07,0,0,0,1.1.5c1.7-.4,2.9-2,3.8-3.5a8.34,8.34,0,0,0,1-3.5v-.5c.8-.4,2.5.3,2.5.3,1.3.4,4.2,2.6,5.1,3,.5-.5,1.2-1.4,1.7-1.8l-.6-.4c-1-.6-2.1-1.2-3.1-1.8a6.23,6.23,0,0,0-5.2-.5,2.49,2.49,0,0,0-.7.3,2.84,2.84,0,0,0-2.8-.5c-3.1.9-6.1,3.1-9.2,6.9a26.75,26.75,0,0,0-4.5,8.1c-.6,1.7-.8,4.2.7,5.7,1.2,1.3,2.8,1,4,.5a12.21,12.21,0,0,0,5.8-6.9,5.23,5.23,0,0,0,0-2.8Zm5.7-9.4c-.3,3.8-3.2,6-4,6.1-.4.1-1.2-.1-.5-1.7a10.52,10.52,0,0,1,4.5-4.8v.4Z"/><path class="cls-1" d="M65.21,2.65A8.44,8.44,0,0,1,60,4c-.5.6-1.1,1.2-1.6,1.9,2.8.7,5.7-.9,7.3-2.3a11.9,11.9,0,0,0,2.6-3.4,10.86,10.86,0,0,1-3.1,2.5Z"/><polygon class="cls-1" points="35.51 5.75 33.51 5.75 32.31 7.75 34.41 7.75 35.51 5.75"/><path class="cls-1" d="M60,20c-.2.2-.5,0-.4-.3A19.76,19.76,0,0,1,61,17l3.2-5.7H62l-.3.6a3.17,3.17,0,0,0-.5-.6,2.14,2.14,0,0,0-1.9.1c-2.4,1.4-4.1,4.1-5.4,6.2,0,0-1.4,2.4-2.2,2.5-.6.1-.6-.8-.5-1a14.66,14.66,0,0,1,1.4-4,30.05,30.05,0,0,0,3.6-3,31.27,31.27,0,0,0,5-5.9,2.44,2.44,0,0,1-.7.1c-2,2.8-6,6.8-7.2,7.4a45.61,45.61,0,0,1,7-10.5l.5-.5a6.88,6.88,0,0,1,2.1-1.6c.1,0,.1,0,.2.1a2.89,2.89,0,0,1-.4,1.4l-.3.7s.5-.1.8-.2a3.1,3.1,0,0,0,.6-2.3c0-.3-.3-.5-.5-.6-.9-.2-1.9.5-2.6,1h0c-4,3.1-7.4,7.7-10.4,13.9a1.8,1.8,0,0,1-1.2.3,6.9,6.9,0,0,0,.8-2.3c0-.3.1-.5.1-.8a1.64,1.64,0,0,0-.6-1.4,1.69,1.69,0,0,0-1.7.1c-2.1.9-3.7,3-4.8,4.8a11.81,11.81,0,0,0-1.4,3.7c-.1,1.1.1,1.8.7,2.1a2.2,2.2,0,0,0,1.8-.2c2.1-1.1,3.6-3.4,4.8-5.5a3.86,3.86,0,0,0,1.2-.2h0a6.89,6.89,0,0,1-.3.8c-.7,2.2-1.1,3.7-.4,4.6,1,1.2,2.7,0,4-1.8-.3,2,.8,2.4,1.6,2.2a5.64,5.64,0,0,0,2.4-1.8c-.2.6-.1,1.7.7,1.8a2.1,2.1,0,0,0,1.5-.5c1.8-1,3.9-4.3,4.5-5.2h-.7A11.22,11.22,0,0,1,60,20Zm-16.1-.3a1.42,1.42,0,0,1-.2-.6c0-1.2,1.3-3.4,2.2-4.6h0a3.34,3.34,0,0,0,1.8,1.6c-.6,1.5-2.9,4.7-3.8,3.6Zm4.2-4.2a1.82,1.82,0,0,1-1.4-1.4,1.74,1.74,0,0,1,1-1.9,1,1,0,0,1,.9-.2.83.83,0,0,1,.3.8,1.27,1.27,0,0,1-.1.6h0a3.77,3.77,0,0,1-.7,2.1Zm9,3.8-.2.2c-.3.3-.6.6-1,.4-.1,0-.2-.2-.2-.3a4.39,4.39,0,0,1,.7-2.2l.1-.2a17.12,17.12,0,0,1,3.8-4.8c.3-.2.6-.4.9-.2.1.1.2.2.2.3a.31.31,0,0,1-.1.2A17.1,17.1,0,0,0,60,15c-1,1.4-1.8,3-2.9,4.3Z"/></g></g></svg>