<svg xmlns="http://www.w3.org/2000/svg" viewBox="0 0 70.15 24.4"><defs><style>.cls-1{fill:#fffef8;}</style></defs><g id="Layer_2" data-name="Layer 2"><g id="Layer_1-2" data-name="Layer 1"><path class="cls-1" d="M70.05,18.8a1.81,1.81,0,0,1-.3,1.3,10.29,10.29,0,0,1-5.1,3.7,9.11,9.11,0,0,1-4.2.6c-1.8,0-2.1,0-2.8-.3a10.34,10.34,0,0,0-1.2-.3,16.1,16.1,0,0,1-3.4-1.8A13.15,13.15,0,0,1,51,20a13.57,13.57,0,0,1-2.2-3.9,13.36,13.36,0,0,1-.7-3.9,18.49,18.49,0,0,1,.6-3.9,22.25,22.25,0,0,1,1.4-3.1,1.44,1.44,0,0,0,.2-.3,13.22,13.22,0,0,1,2.4-2.5A12.4,12.4,0,0,1,58.45,0h2.2a11.4,11.4,0,0,1,2.5.2A21.67,21.67,0,0,1,67,1.8a4.93,4.93,0,0,0,.9.4c.4,0,.6-.4.9-1.1L69,.5h.5c.2,0,.5.1.6.1a20.34,20.34,0,0,1,.1,3.7c0,3.4,0,3.6-.2,3.7a2.44,2.44,0,0,1-1.2,0c-.1,0-.2-.4-.3-.7a7.53,7.53,0,0,0-6.8-5.6A6.92,6.92,0,0,0,59,2a10.8,10.8,0,0,0-2.6,1.6,12,12,0,0,0-3.3,6.3,20.87,20.87,0,0,0,0,5,10.6,10.6,0,0,0,3,5.5,8.09,8.09,0,0,0,4.3,2.2,9,9,0,0,0,6.4-1.5,12.54,12.54,0,0,0,2.6-2.5c.2-.3.3-.4.5-.4C70,18,70.05,18.1,70.05,18.8Z"/><path class="cls-1" d="M48.25,23.5c-.1.1-.5.2-4.4.2-4.8,0-4.7,0-4.5-.6a.7.7,0,0,1,.5-.4,2.49,2.49,0,0,0,1.4-1.1c.2-.3.2-.8.2-4.6V12.7H30.75v3.9c0,4.2,0,4.8.5,5.3a2.79,2.79,0,0,0,1.3.7.44.44,0,0,1,.4.6v.3h-8.8v-.8l.6-.2a2.83,2.83,0,0,0,1.7-1.5c.2-.4.2-.9.2-9.1,0-8.6,0-8.7-.2-9.2a2.51,2.51,0,0,0-1.6-1.4c-.7-.2-.8-.4-.7-.8A64.6,64.6,0,0,1,33,.5a.37.37,0,0,1,.1.3c0,.2-.2.4-.7.6A2.27,2.27,0,0,0,31,2.7c-.2.4-.2.9-.2,4.2v3.7h10.6l.2-.1V6.6c0-3.8,0-3.9-.3-4.3a2.41,2.41,0,0,0-1.2-1c-.6-.3-.8-.5-.7-.8s.5-.2,4.4-.2c4.7,0,4.7,0,4.5.5,0,.2-.2.3-.5.3A2.18,2.18,0,0,0,46,2.5c-.2.4-.2.6-.2,9.3s0,8.9.2,9.3a3.11,3.11,0,0,0,.4.6,4.35,4.35,0,0,0,1.5.8A.73.73,0,0,1,48.25,23.5Z"/><path class="cls-1" d="M23.35,7.9A11.82,11.82,0,0,0,15.25,1c-.4-.1-1.3-.3-1.8-.4a63.94,63.94,0,0,0-7-.2H.35a.44.44,0,0,0-.2.7,1.63,1.63,0,0,0,.6.3,3.07,3.07,0,0,1,1.5,1,1.37,1.37,0,0,1,.4,1.1c0,.4.1,4.5,0,9.1,0,9.3,0,8.7-.7,9.3a3.4,3.4,0,0,1-1.5.7c-.1,0-.2.1-.3.1a.61.61,0,0,0,0,.8,57.8,57.8,0,0,0,6.5.1c7.6,0,7.8,0,10.3-1a12,12,0,0,0,6.5-6.9,9.15,9.15,0,0,0,.6-3.9A8.48,8.48,0,0,0,23.35,7.9ZM19.55,12a8.61,8.61,0,0,1-.5,3.4.49.49,0,0,0-.1.3,7.55,7.55,0,0,1-.8,1.8,9.55,9.55,0,0,1-2.1,2.4c-2,1.5-3.4,1.9-6.6,2a6.71,6.71,0,0,1-2.1-.1c0-.1-.1-8.7-.1-15.1V2.2c0-.2,3.3-.2,4.5,0A8.79,8.79,0,0,1,18.45,7,9.73,9.73,0,0,1,19.55,12Z"/></g></g></svg>