<svg xmlns="http://www.w3.org/2000/svg" viewBox="0 0 69.9 19.05"><defs><style>.cls-1{fill:#fff;}</style></defs><g id="Layer_2" data-name="Layer 2"><g id="Layer_1-2" data-name="Layer 1"><g id="_7QZpQa.tif" data-name="7QZpQa.tif"><path class="cls-1" d="M0,13.1c0-.1.1-.2.1-.3a4.68,4.68,0,0,1,4-3.7,9.68,9.68,0,0,1,5.8.7c.5.2.6.5.4,1-.1.1-.1.3-.2.4a.67.67,0,0,1-.8.3,7.91,7.91,0,0,0-4-.7,3.12,3.12,0,0,0-3,2.7,3.15,3.15,0,0,0,2.2,3.6,6,6,0,0,0,3.5,0c1-.2,1-.2,1-1.3v-.4c0-.4-.2-.5-.5-.5H6.4c-.5,0-.6-.2-.6-.6s.1-.8.5-.8h4c.4,0,.6.3.6.7v3.1a1,1,0,0,1-.6.9,10.88,10.88,0,0,1-2.4.7,11.48,11.48,0,0,1-3.7,0c-2.1-.5-3.6-1.6-4-3.8V15A6.48,6.48,0,0,1,0,13.1Z"/><path class="cls-1" d="M61.3.1a2.65,2.65,0,0,1,.5.6c1,1.6,1.9,3.3,2.9,4.9.4.7.2,1.1-.7,1.1H58.2c-.8,0-1-.4-.6-1.1,1-1.7,1.9-3.3,2.9-5A2.65,2.65,0,0,1,61,0,.37.37,0,0,0,61.3.1Z"/><path class="cls-1" d="M41.8,14.8c.2-.2.3-.4.4-.5.8-1.5,1.7-3,2.5-4.5a1,1,0,0,1,1.1-.6h1.1a.53.53,0,0,1,.6.6v8.5a.47.47,0,0,1-.5.5h-.9c-.5,0-.6-.2-.6-.6V12.3l-.2.2c-1,1.9-2.1,3.8-3.1,5.7-.1.2-.3.4-.4.4a.66.66,0,0,1-.5-.4c-.9-1.7-1.8-3.3-2.7-5a9.22,9.22,0,0,0-.5-.8v6a.46.46,0,0,1-.4.5h-.9a.53.53,0,0,1-.6-.6V10c0-.6.1-.8.7-.8H38a1,1,0,0,1,1,.6c.8,1.5,1.6,3,2.5,4.5A2.19,2.19,0,0,1,41.8,14.8Z"/><path class="cls-1" d="M64.3,15.4V10c0-.8.1-.8.8-.8,1.2,0,1.2,0,1.2,1.2V18c0,.7-.2.8-.8.8a2.19,2.19,0,0,1-1.7-.7c-1.7-1.8-3.5-3.6-5.3-5.5l-.4-.4v6a.53.53,0,0,1-.6.6h-.8c-.5,0-.6-.2-.6-.7V9.8c0-.6.1-.7.7-.7h.6a1.66,1.66,0,0,1,1.3.5c1.7,1.8,3.4,3.5,5.1,5.3C63.9,15.1,64.1,15.2,64.3,15.4Z"/><path class="cls-1" d="M26.3,14.9v3.2c0,.6-.2.8-.7.8h-.7c-.6,0-.8-.2-.8-.8V10c0-.6.1-.8.8-.8h5.4a6.47,6.47,0,0,1,2,.4A2.42,2.42,0,0,1,33.8,12a2.38,2.38,0,0,1-1.4,2.3c-.2.1-.5.2-.7.3-.5.2-.5.3-.2.7.7,1,1.4,1.9,2,2.9.1.1.1.3.2.5-.2,0-.3.1-.5.1-1.8,0-1.4.3-2.5-1.3l-1.5-2.1a1.25,1.25,0,0,0-1.1-.6A9.72,9.72,0,0,1,26.3,14.9Zm2.2-1.5h1.7c.9,0,1.5-.5,1.4-1.3a1.07,1.07,0,0,0-1.1-1.2c-1.3-.1-2.5-.1-3.8-.1-.1,0-.3.3-.4.5v1.6a.47.47,0,0,0,.5.5Z"/><path class="cls-1" d="M21.6,18.8H21a.75.75,0,0,1-.8-.5c-.1-.2-.2-.3-.3-.5a.67.67,0,0,0-.7-.4H15a.75.75,0,0,0-.8.5,1.45,1.45,0,0,1-1.9.9c-.4-.1-.3-.4-.2-.6.6-1.2,1.2-2.5,1.8-3.7.7-1.5,1.5-3.1,2.2-4.6a1.09,1.09,0,0,1,1-.7,1.22,1.22,0,0,1,1.2.6c1.4,2.8,2.9,5.6,4.3,8.4q.3.6-.3.6Zm-4.5-7a.31.31,0,0,0-.1.2c-.5,1.2-1.1,2.3-1.6,3.5-.1.3,0,.4.3.4h2.8c.5,0,.6-.1.4-.6-.5-1-.9-2.1-1.4-3.1C17.3,12.2,17.2,12,17.1,11.8Z"/><path class="cls-1" d="M52.8,14v4.1c0,.5-.2.7-.7.7h-.6c-.8,0-.9-.1-.9-.9V10c0-.7.1-.8.8-.8h.7c.5,0,.6.1.6.6A29.46,29.46,0,0,1,52.8,14Z"/><path class="cls-1" d="M68.5,18.7c0-.4.1-.9.1-1.3.1,0,.3,0,.3.1a4.88,4.88,0,0,1,.3.7,6.31,6.31,0,0,0,.4-.9h.2c0,.5.1.9.1,1.4h-.2a3.09,3.09,0,0,0-.2-.8c-.1.3-.2.5-.3.8h-.1c-.1-.2-.2-.5-.3-.7a6.37,6.37,0,0,1-.2.7C68.7,18.8,68.6,18.7,68.5,18.7Z"/><path class="cls-1" d="M67.8,18.7v-.6c0-.3.1-.7-.4-.8h1v.1c-.1,0-.2.1-.4.1a4.1,4.1,0,0,1-.1,1.1A.1.1,0,0,1,67.8,18.7Z"/></g></g></g></svg>