<svg xmlns="http://www.w3.org/2000/svg" viewBox="0 0 70.7 12.2"><defs><style>.cls-1{fill:#fff;}</style></defs><g id="Layer_2" data-name="Layer 2"><g id="Layer_1-2" data-name="Layer 1"><path class="cls-1" d="M70.1,10.9a.76.76,0,0,1-.2-.4c-.1-.2-.2-.3-.3-.5a2.09,2.09,0,0,0-.4-.6,2.09,2.09,0,0,0-.4-.6.76.76,0,0,1-.2-.4c-.1-.2-.2-.3-.3-.5s-.2-.3-.3-.5-.1-.2-.2-.3h.1a2.1,2.1,0,0,0,.8-.6l.2-.2a1.38,1.38,0,0,0,.3-.4,2,2,0,0,0,.4-.8,1.85,1.85,0,0,0,.2-.7v-1c0-.2-.1-.3-.1-.5a6.89,6.89,0,0,0-.3-.8,3,3,0,0,0-.5-.7L68.5,1a1.61,1.61,0,0,0-.7-.4,1.42,1.42,0,0,0-.6-.2h-.4c0-.1-.1,0-.1,0H61.2V11.6h1.6v-4H66c.1,0,.2,0,.2.1h0c.1.2.2.3.3.5a2.09,2.09,0,0,0,.4.6c.1.2.3.5.4.7a2.09,2.09,0,0,0,.4.6c.1.2.3.5.4.7s.3.5.4.7h2.2A1.13,1.13,0,0,1,70.1,10.9ZM67.7,5.1l-.1.1a2.07,2.07,0,0,1-1,.6H62.7V1.9h3.6a.75.75,0,0,1,.5.1c.2.1.4.1.6.3s.3.2.4.4a2.09,2.09,0,0,1,.4.6c0,.1.1.2.1.4v.4a.37.37,0,0,1-.1.3c0,.1-.1.3-.1.4A1.38,1.38,0,0,0,67.7,5.1Z"/><path class="cls-1" d="M59.4,5.1a.9.9,0,0,0-.1-.5,2.54,2.54,0,0,0-.2-.7c-.1-.3-.2-.5-.3-.8-.1-.1-.2-.3-.3-.4a1.38,1.38,0,0,0-.3-.4c-.1-.1-.2-.3-.3-.4a1,1,0,0,0-.5-.4c-.2-.1-.3-.3-.5-.4a3,3,0,0,0-.8-.4,1.69,1.69,0,0,0-.5-.2,2.35,2.35,0,0,0-.8-.2.76.76,0,0,1-.4-.1h-.3a6.15,6.15,0,0,0-1.3.1.9.9,0,0,0-.5.1c-.2.1-.4.1-.6.2a2,2,0,0,0-.8.4,2.09,2.09,0,0,0-.6.4,4.35,4.35,0,0,0-.7.6,1.76,1.76,0,0,0-.4.5,2.18,2.18,0,0,0-.5.8c-.1.2-.2.5-.3.7s-.1.4-.2.6-.1.3-.1.5V6.8a.6.6,0,0,0,.1.4c0,.2.1.4.1.6s.1.4.2.6l.3.6c.1.2.2.3.3.5s.3.3.4.5.3.4.6.5c.1.1.2.2.3.2a2.19,2.19,0,0,1,.5.3,3.55,3.55,0,0,0,.9.4,1.85,1.85,0,0,0,.7.2c.2,0,.3.1.5.1h1.3c.1,0,.3-.1.4-.1a1.85,1.85,0,0,0,.7-.2,4.18,4.18,0,0,0,1-.4c.3-.2.5-.3.8-.5.1-.1.2-.1.3-.2l.4-.4.3-.3a1.38,1.38,0,0,0,.3-.4c0-.1.1-.2.2-.3s.1-.3.2-.4h-2l-.1.1-.3.3-.2.2c-.1,0-.1.1-.2.1a2.19,2.19,0,0,1-.5.3c-.1.1-.2.1-.4.2a2.35,2.35,0,0,1-.8.2c-.2,0-.5.1-.7.1H53a.6.6,0,0,1-.4-.1,1.33,1.33,0,0,1-.8-.3,1.61,1.61,0,0,1-.7-.4l-.3-.3-.5-.5c-.1-.2-.2-.3-.3-.5a1.91,1.91,0,0,1-.3-.8c0-.1-.1-.3-.1-.4V5.3c0-.2.1-.3.1-.5a3.55,3.55,0,0,1,.4-.9,1.47,1.47,0,0,1,.5-.6,3.74,3.74,0,0,1,.7-.6,3.13,3.13,0,0,1,1-.5c.3-.1.5-.1.8-.2h1.2c.2,0,.4.1.6.1a3.55,3.55,0,0,1,.9.4,4.23,4.23,0,0,1,.7.5c.1.1.2.2.2.3s.1.1.1.2.2.3.3.5a.76.76,0,0,1,.2.4c.1.2.1.3.2.5V5H51.3V6.6h7.9a.1.1,0,0,0,.1-.1v-1C59.4,5.4,59.4,5.3,59.4,5.1Z"/><path class="cls-1" d="M30.7,6.6a2.7,2.7,0,0,0,.7-.8c.1-.2.3-.5.4-.7s.1-.5.2-.7v-1a4.33,4.33,0,0,0-.1-.5c-.1-.2-.2-.5-.3-.7s-.3-.4-.4-.6a1,1,0,0,0-.5-.4c-.2-.1-.3-.2-.5-.3a1.42,1.42,0,0,0-.6-.2c-.1,0-.3-.1-.4-.1H29c0-.1-.1,0-.1,0H23.4V11.8h1.5c.1,0,.1,0,.1-.1V7.8h3.4a.1.1,0,0,0,.1.1,2.19,2.19,0,0,0,.3.5c.1.2.3.5.4.7a.76.76,0,0,1,.2.4c.1.2.2.3.3.5a2.19,2.19,0,0,0,.3.5c.1.2.3.5.4.7s.1.3.2.4.1.1.2.1h2.1c-.9-1.5-1.7-3-2.6-4.4C30.3,6.9,30.5,6.8,30.7,6.6ZM29.6,5.4c-.1.1-.2.2-.3.2s-.3.2-.5.2-.2.1-.4,0H24.8V2h3.5a1.27,1.27,0,0,1,.6.1c.1.1.3.1.4.2s.1.1.2.1a2.18,2.18,0,0,1,.5.8,1.27,1.27,0,0,1,.1.6V4a2.35,2.35,0,0,1-.2.8C30,5,29.8,5.2,29.6,5.4Z"/><path class="cls-1" d="M42.8.3H41.2V8.1h0c-.1-.1-.2-.2-.2-.3s-.3-.3-.4-.5-.2-.3-.3-.4L40,6.6l-.3-.3c-.1-.1-.2-.3-.3-.4l-.3-.3c-.1-.1-.2-.3-.3-.4l-.3-.3c-.1-.1-.2-.3-.3-.4s-.2-.3-.3-.4-.3-.3-.4-.5-.3-.4-.5-.6a4.23,4.23,0,0,1-.5-.7c-.2-.2-.4-.5-.6-.7l-.3-.3L35.3,1,35,.7c-.1-.1-.1-.2-.2-.2L34.7.4H33.4V11.5a.1.1,0,0,0,.1.1H35V3.5c.1.1.1.1.1.2s.2.3.3.4l.3.3.3.3.3.3.3.3.3.3c.1.1.2.3.3.4l.3.3c.1.1.2.3.3.4l.3.3.3.3.3.3.3.3.3.3.3.3.3.3.3.3.3.3.3.3.3.3c.1.1.2.2.2.3l.3.3c.1.1.2.3.3.4h1.2c.1,0,.1,0,.1-.1h0V0c-.3.4-.3.4-.4.3Z"/><path class="cls-1" d="M45,.3c-.2,0-.2,0-.2.2v11c0,.1,0,.1.1.1h1.5V.4h-.1A4.89,4.89,0,0,0,45,.3Z"/><path class="cls-1" d="M21.9,10.6c-.1-.2-.2-.5-.3-.7s-.1-.1-.1-.2-.2-.5-.3-.7-.1-.3-.2-.4L20.7,8c-.1-.2-.1-.3-.2-.5s-.1-.1-.1-.2-.2-.5-.3-.7-.1-.3-.2-.4-.2-.5-.3-.7-.1-.3-.2-.4-.2-.5-.3-.7-.1-.3-.2-.4-.2-.5-.3-.7-.1-.2-.1-.3a4.88,4.88,0,0,1-.3-.7c-.1-.2-.1-.3-.2-.5a3,3,0,0,0-.4-.8L17.3.4a.1.1,0,0,0-.1-.1H16c-.1.1-.1.3-.2.4-.2.5-.4.9-.6,1.4h0a4.88,4.88,0,0,0-.3.7c-.1.2-.2.5-.3.7a10.37,10.37,0,0,0-.4,1l-.3.6c0,.1,0,.1-.1.2s-.1.3-.2.4v.2c-.1.3-.3.6-.4.9s-.2.5-.3.7a10.37,10.37,0,0,0-.4,1c-.1.2-.2.5-.3.7h0c0,.1-.1.2-.1.3s-.1.3-.2.5c-.2.4-.4.9-.6,1.3,0,.1-.1.1-.1.2H13a.31.31,0,0,0,.1-.2c0-.1.1-.1.1-.2s.1-.3.2-.4.1-.1.1-.2v-.1c.1,0,.1-.1.1-.2v-.1a.35.35,0,0,0,.1-.2c0-.1.1-.1.1-.2s0-.2.1-.2.1-.1.1-.2.1-.1.1-.2.1-.1.1-.2.1-.2.1-.3V8.5c0-.1.1-.1.1-.2s.1-.1.1-.2,0-.2.1-.2a.35.35,0,0,0,.1-.2c0-.1.1-.1.1-.2s.1-.1.2-.1h4c.1.1.1.2.2.4a4.88,4.88,0,0,1,.3.7c.1.1.1.3.2.4s.2.5.3.7.1.3.2.4.2.5.3.7.1.3.2.4.1.2.1.3h1.7c-.1-.1-.1-.2-.2-.4A.78.78,0,0,1,21.9,10.6ZM16.7,5.8H15.3a1.42,1.42,0,0,0,.2-.6c.2-.4.4-.9.6-1.3a5.94,5.94,0,0,1,.4-.8c.1-.1.1-.2.2-.4.5,1,.9,2,1.4,3H16.7Z"/><path class="cls-1" d="M11.1,8.8c0-.1,0-.1.1-.2a1.42,1.42,0,0,0,.2-.6.35.35,0,0,1,.1-.2c0-.2.1-.3.1-.5s.1-.3.1-.5a.1.1,0,0,1,.1-.1v-1a.37.37,0,0,0-.1-.3h0V5.2c0-.1-.1-.1-.2-.1H3.7v.2h0V6.6c0,.1,0,.1.1.1H9.9c0,.1-.1.3-.1.4h0v.1c0,.1,0,.1-.1.2v.1a.35.35,0,0,1-.1.2.1.1,0,0,1-.1.1h0a1,1,0,0,1-.4.5L9,8.4a.22.22,0,0,1-.2.2l-.3.3h0a2.19,2.19,0,0,1-.5.3,6.12,6.12,0,0,1-1.2.5h0a.9.9,0,0,1-.5.1H5.4a2.35,2.35,0,0,1-.8-.2c-.1,0-.1,0-.2-.1s-.3-.1-.5-.2a.1.1,0,0,1-.1-.1H3.7c-.1,0-.1-.1-.2-.1s-.2-.1-.2-.2h0l-.1-.1-.1-.1a2.18,2.18,0,0,1-.4-.5c-.1-.1-.2-.3-.3-.4A5.64,5.64,0,0,1,2,6.6a.37.37,0,0,0-.1-.3V5.6c0-.2.1-.3,0-.4.1-.1,0-.2.1-.3V4.8c.1-.2.1-.4.2-.6s.2-.3.3-.5h0a.1.1,0,0,1,.1-.1c0-.1.1-.1.1-.2h0a.22.22,0,0,1,.2-.2h0a1.21,1.21,0,0,1,.5-.5c.1-.1.2-.1.2-.2h0a2.51,2.51,0,0,1,.7-.4A.35.35,0,0,0,4.5,2c.2-.1.5-.1.7-.2h.6A5.85,5.85,0,0,1,7.1,2c.1,0,.1.1.2.1l.6.3c.1,0,.2.1.3.2a.1.1,0,0,1,.1.1.1.1,0,0,1,.1.1c.1.1.2.1.3.2s.2.3.3.4.1.1.2.1h1.7c.1,0,.1,0,.1-.1s-.1-.3-.2-.4a.52.52,0,0,1-.2-.4l-.1-.1h0l-.3-.3c0-.1-.1-.1-.1-.2l-.3-.3a1.76,1.76,0,0,0-.5-.4H9.2c0-.1-.1-.1-.2-.1a.1.1,0,0,1-.1-.1C8.7,1,8.6.9,8.4.8A.37.37,0,0,0,8.1.7.1.1,0,0,1,8,.6.37.37,0,0,1,7.7.5H7.6A.1.1,0,0,1,7.5.4.6.6,0,0,1,7.1.3h0C6.9.3,6.6.2,6.4.2H5c-.1,0-.2.1-.3.1s-.3.1-.4.1A.37.37,0,0,0,4,.5a.37.37,0,0,0-.3.1.31.31,0,0,0-.2.1c-.1.1-.2.1-.4.2H3a.1.1,0,0,1-.1.1c-.2.1-.3.2-.5.3s-.2.1-.2.2a.1.1,0,0,1-.1.1h0l-.3.3-.2.2c0,.1-.1.1-.1.2s-.1.2-.2.2a.1.1,0,0,1-.1.1h0c0,.1-.1.1-.2.2H1a.1.1,0,0,1-.1.1c0,.1-.1.1-.1.2s-.1.3-.2.4S.4,3.8.4,4s-.1.4-.2.6a.37.37,0,0,1-.1.3.37.37,0,0,1-.1.3v.2H0V6.5c.1.1,0,.3.1.5s.1.2,0,.3h0c0,.1.1.1.1.2A.9.9,0,0,1,.3,8c0,.1.1.2.1.3s.1.2.2.3a.35.35,0,0,1,.1.2c.1.1.1.1.1.2s.1.1.1.2.2.3.3.5.2.2.2.3l.3.3v.1a.1.1,0,0,1,.1.1h.1l.1.1h.1c.1.1.2.1.3.3a.1.1,0,0,0,.1.1c.1,0,.2.2.3.2l.1.1h0c.1.1.2.1.3.2h0c.1,0,.1.1.2.1s.1.1.2.1v.1h.1c.1,0,.2,0,.2.1H4a.1.1,0,0,1,.1.1h.3a.37.37,0,0,1,.3.1h.1c.1.1.3,0,.4.1H6c.1-.1.1,0,.2,0a.75.75,0,0,0,.5-.1H7c0-.1.1,0,.1,0s.2-.1.3-.1.1-.1.2-.1.1-.1.2-.1.1-.1.2-.1v-.1c.2-.1.3-.1.5-.2s.2-.1.2-.2a.31.31,0,0,0,.2-.1c.1-.1.2-.1.3-.2s.2-.2.3-.2a.1.1,0,0,1,.1-.1v-.1l.2-.2.1-.1c0-.1.1-.1.1-.2s.2-.3.3-.4c.7-.6.8-.7.8-.8Z"/></g></g></svg>