<svg xmlns="http://www.w3.org/2000/svg" viewBox="0 0 70.1 23.1"><defs><style>.cls-1{fill:#fff;}</style></defs><g id="Layer_2" data-name="Layer 2"><g id="Layer_1-2" data-name="Layer 1"><path id="path2998" class="cls-1" d="M17.3,8.2H9.1v2.4h5.8c-.3,3.4-3.1,4.8-5.8,4.8A6.4,6.4,0,0,1,2.7,8.9,6.34,6.34,0,0,1,9.1,2.4a6.48,6.48,0,0,1,4.4,1.8l1.7-1.8A8.78,8.78,0,0,0,9,0,9.07,9.07,0,0,0,0,8.9a9,9,0,0,0,9.1,8.9c4.8,0,8.3-3.3,8.3-8.1a10.07,10.07,0,0,0-.1-1.5Z"/><path id="path3000" class="cls-1" d="M24,6.4a5.66,5.66,0,0,0-5.8,5.7,5.75,5.75,0,1,0,11.5.1A5.64,5.64,0,0,0,24,6.4Zm0,2.3a3.3,3.3,0,0,1,3.2,3.5,3.26,3.26,0,1,1-6.5,0A3.32,3.32,0,0,1,24,8.7Z"/><path id="path3005" class="cls-1" d="M36.5,6.4a5.66,5.66,0,0,0-5.8,5.7,5.75,5.75,0,0,0,11.5.1,5.64,5.64,0,0,0-5.7-5.8Zm0,2.3a3.3,3.3,0,0,1,3.2,3.5,3.26,3.26,0,1,1-6.5,0,3.32,3.32,0,0,1,3.3-3.5Z"/><path id="path3007" class="cls-1" d="M48.7,6.5a5.71,5.71,0,0,0-.1,11.4,3.55,3.55,0,0,0,3.1-1.4v1.1a2.89,2.89,0,0,1-3,3.2,3.21,3.21,0,0,1-2.9-2l-2.2.9a5.67,5.67,0,0,0,5.1,3.4c3.1,0,5.4-1.9,5.4-6V6.8H51.7v1a3.56,3.56,0,0,0-3-1.3ZM49,8.7a3.28,3.28,0,0,1,3.1,3.5A3.22,3.22,0,0,1,49,15.7a3.27,3.27,0,0,1-3.2-3.4A3.27,3.27,0,0,1,49,8.7Z"/><path id="path3011" class="cls-1" d="M64.9,6.4a5.37,5.37,0,0,0-5.3,5.7,5.49,5.49,0,0,0,5.6,5.7A5.83,5.83,0,0,0,70,15.3L68,14a3.23,3.23,0,0,1-2.8,1.6,3.05,3.05,0,0,1-2.8-1.7l7.7-3.2-.4-.9a5.37,5.37,0,0,0-4.8-3.4ZM65,8.6a2.39,2.39,0,0,1,2.1,1.2L62,11.9a3.14,3.14,0,0,1,3-3.3Z"/><path id="path3015" class="cls-1" d="M55.9,17.6h2.5V.7H55.9Z"/></g></g></svg>