<svg xmlns="http://www.w3.org/2000/svg" viewBox="0 0 69.94 38.8"><defs><style>.cls-1{fill:#fffef8;}</style></defs><g id="Layer_2" data-name="Layer 2"><g id="Layer_1-2" data-name="Layer 1"><g id="m9QMn0"><path class="cls-1" d="M55.54,30.5c-.3.8-.5,1.6-.8,2.5,0,.2-.1.2-.3.1A10.94,10.94,0,0,0,48,32a38.91,38.91,0,0,0-10.2,2.4c-.9.3-1.8.7-2.7,1a31.37,31.37,0,0,1-6.7,1.7,3.79,3.79,0,0,1-1.5,0,1,1,0,0,1-.8-1.4c.1-.2.1-.5.2-.7.1-.6-.1-.8-.7-.8a2.92,2.92,0,0,0-.9.2c-1.8.5-3.6,1.2-5.3,1.8a45.71,45.71,0,0,1-9,2.3,17.85,17.85,0,0,1-2.3.2.37.37,0,0,0-.3.1h-3a5,5,0,0,0-1.2-.2,8.3,8.3,0,0,1-3.4-1.3c-.2-.1-.3-.2-.2-.5a18.66,18.66,0,0,0,.7-2.2,9.72,9.72,0,0,0,5.5,1.5,32.74,32.74,0,0,0,7-.9,82.13,82.13,0,0,0,8.4-2.7,24.17,24.17,0,0,1,4.6-1.3,2.26,2.26,0,0,1,1.6.2.8.8,0,0,1,.3,1.1l-.3.6c-.3.9-.2,1.3.9,1.2a17.39,17.39,0,0,0,5-1.2,86.89,86.89,0,0,1,8.6-2.9,23.88,23.88,0,0,1,9.2-.9A9.75,9.75,0,0,1,55.54,30.5Z"/><path class="cls-1" d="M9.64,7.1c.3-.9.6-1.9.9-2.8a4.23,4.23,0,0,1,.7.5,6.39,6.39,0,0,0,3.3,1,18.64,18.64,0,0,0,6.2-.9c3-.8,6-1.9,9-2.9a40.5,40.5,0,0,1,6-1.5,5.46,5.46,0,0,1,1.8-.1c1.1.1,1.6.8,1.3,1.8a1.42,1.42,0,0,1-.2.6c-.1.6.1.8.7.8a3.59,3.59,0,0,0,1.1-.2,49.76,49.76,0,0,1,5.5-1.6A53.26,53.26,0,0,1,55.64.1c.1,0,.2,0,.2-.1h3.1a7.72,7.72,0,0,0,1.5.2,12.26,12.26,0,0,1,4.1,1.3c.2.1.3.2.2.5A18.66,18.66,0,0,0,64,4.2a10.21,10.21,0,0,0-2.9-1.1,22.72,22.72,0,0,0-7.8-.2A50.27,50.27,0,0,0,44,5.1a36.27,36.27,0,0,1-5.4,1.5,3.79,3.79,0,0,1-1.5,0,.68.68,0,0,1-.6-1,4.88,4.88,0,0,0,.3-.7c.1-.4.1-.7-.2-.9a.86.86,0,0,0-.6-.3,6.08,6.08,0,0,0-1.9.1A43.18,43.18,0,0,0,29,5.4a53,53,0,0,1-13.6,3.3A9.13,9.13,0,0,1,9.64,7.1Z"/><path class="cls-1" d="M69.94,5.5c-.1,0-.1.1-.1.2a1.72,1.72,0,0,1-3.3-.6,1.62,1.62,0,0,1,1.4-1.6,1.58,1.58,0,0,1,1.9,1c0,.1,0,.2.1.2Zm-1.7.9a1.35,1.35,0,0,0,1.4-1.3,1.4,1.4,0,0,0-2.8,0A1.35,1.35,0,0,0,68.24,6.4Z"/><path class="cls-1" d="M16.14,21.9c.9.6,1.6,1.1,2.4,1.6a1.4,1.4,0,0,0,1.1,0,5.51,5.51,0,0,0,1.4-.9,57.58,57.58,0,0,0,4.4-4.1c.4-.3.7-.7,1.1-1a4.05,4.05,0,0,1,.9-.5c.5-.1.8.1.8.6V18a2.65,2.65,0,0,1,.6-.5,4.45,4.45,0,0,1,2.9-1.2A1.24,1.24,0,0,1,33,17.7a5.56,5.56,0,0,1-.6,2.1,12.66,12.66,0,0,0-.6,1.8c-.1.4.1.6.5.5s.8-.5,1.2-.8a2.6,2.6,0,0,0,.9-1.6,6.23,6.23,0,0,1,4.6-5c.2,0,.3-.1.5-.1a3.45,3.45,0,0,0,1.3-.3,1.56,1.56,0,0,1,2.1,1v.1c.2.6.3.7.8.3l.3-.3c.2-.2.2-.3,0-.6a2,2,0,0,1,.2-2.8,1.2,1.2,0,0,1,2,.7.86.86,0,0,0,.8.8,2.92,2.92,0,0,1,.9.2,1.46,1.46,0,0,1,1,1.9,15.19,15.19,0,0,1-.6,2,3.81,3.81,0,0,0-.3,1c0,.3.1.4.5.4a1.16,1.16,0,0,0,.7-.5,11.53,11.53,0,0,0,2.3-4.2.37.37,0,0,0-.1-.3c-.8-.5-.8-2.4-.1-3a1.39,1.39,0,0,1,1.5-.4,1.1,1.1,0,0,1,.8,1.2.27.27,0,0,0,.3.3c.5.2,1.1.3,1.6.5a1.43,1.43,0,0,1,1,1.6,3.53,3.53,0,0,1-.3,1.4,12.09,12.09,0,0,0-.5,1.8v.2c0,.2,0,.3.2.4s.3,0,.4-.1a2.58,2.58,0,0,0,.9-.9,4.81,4.81,0,0,1,.9-1.1.62.62,0,0,1,.7-.2.67.67,0,0,1,.4.7,1.42,1.42,0,0,1-.2.6,10.63,10.63,0,0,1-2.6,3,4.49,4.49,0,0,1-2.7,1,1.3,1.3,0,0,1-1.3-1.2,3,3,0,0,1,.2-1.3,21.29,21.29,0,0,0,1.1-3.3.62.62,0,0,0-.2-.7c-.2-.1-.3-.1-.3.1a26.4,26.4,0,0,1-1.8,3.8,9.16,9.16,0,0,1-3.7,3.6,4.19,4.19,0,0,1-1.6.4,1.21,1.21,0,0,1-1.3-1.3A2,2,0,0,1,45,20c.4-1.2.8-2.3,1.3-3.5,0-.1.1-.3.1-.4s-.1-.3-.2-.3-.2.1-.3.2a5,5,0,0,1-2.3,1.8c-.2.1-.1.2-.2.4a6.31,6.31,0,0,1-1.7,3.9,5.31,5.31,0,0,1-4.2,2,2.43,2.43,0,0,1-2.4-1.4c-.1-.2-.2-.2-.4-.1a14.62,14.62,0,0,1-1.9,1.6,4.17,4.17,0,0,1-2.4.9,1.49,1.49,0,0,1-1.7-1.9c.1-.5.3-.9.4-1.3.3-.7.5-1.4.8-2.1.1-.2.1-.5-.1-.6s-.4-.1-.6,0a2.77,2.77,0,0,0-1.4,1.6,40.38,40.38,0,0,0-1.6,4.5.9.9,0,0,1-.6.6,27.41,27.41,0,0,0-2.8.5h-.4c.6-1.3,1.2-2.6,1.7-4a.52.52,0,0,0-.4.2c-.9.9-1.7,1.8-2.6,2.7a13.71,13.71,0,0,1-2.3,1.7,1.6,1.6,0,0,1-2.2-.5c-.5-.7-.9-1.6-1.3-2.3a3.17,3.17,0,0,0-.8-1.2c-.3-.3-.4-.2-.5.2-.5,1.5-1,3.1-1.4,4.6-.1.2-.2.4-.4.4-1.3.3-2.7.5-4,.7H8a.52.52,0,0,1,.2-.4c.9-1.8,1.9-3.6,2.8-5.4.1-.2.1-.3-.2-.4a1.09,1.09,0,0,1-.7-1c0-.5.3-.7.6-1a2.66,2.66,0,0,1,1.2-.3.37.37,0,0,0,.3-.1c.3-.5.5-1,.8-1.5.1-.1.1-.2-.1-.2a6.66,6.66,0,0,0-2.8-.2,2.7,2.7,0,0,0-1.7,1c-.2.2-.4.5-.6.6a.6.6,0,0,1-.7,0c-.2-.1-.2-.4-.2-.6a1.42,1.42,0,0,1,.2-.6,6.69,6.69,0,0,1,4.4-2.9,10.12,10.12,0,0,1,3,.2c.2.1.3,0,.5-.2a4.1,4.1,0,0,1,2.8-1.5A1.06,1.06,0,0,1,19,15.7a2.07,2.07,0,0,1-.9,1.3,5.24,5.24,0,0,1-1.9,1.1.78.78,0,0,0-.4.4l-.6,1.8a3.45,3.45,0,0,0,1.8-.5,9.23,9.23,0,0,0,2.9-2.3l1.5-1.8a7.44,7.44,0,0,1,6.8-2.7,5.84,5.84,0,0,1,1.8.4c.6.2.8.5.7.9s-.5.5-1.1.4a5.12,5.12,0,0,0-4.3,1c-.9.7-1.6,1.5-2.4,2.2-.4.5-.9.9-1.3,1.4a8.32,8.32,0,0,1-4.8,2.5C16.34,21.8,16.34,21.8,16.14,21.9Zm21.1-2.8a1.6,1.6,0,0,0,1.9,1.7,3,3,0,0,0,2.3-2.6c0-.1,0-.2-.2-.2a1.7,1.7,0,0,1-1.4-1.5c0-.2-.1-.3-.3-.2A3,3,0,0,0,37.24,19.1Z"/><path class="cls-1" d="M55.54,30.5a9.31,9.31,0,0,0-4-1.2,28.53,28.53,0,0,0-9.2.9,66.88,66.88,0,0,0-8.6,2.9,21.45,21.45,0,0,1-5,1.2c-1.1.1-1.2-.3-.9-1.2l.3-.6a.8.8,0,0,0-.3-1.1,2.19,2.19,0,0,0-1.6-.2,24.17,24.17,0,0,0-4.6,1.3,82.13,82.13,0,0,1-8.4,2.7,27.43,27.43,0,0,1-7,.9,9.93,9.93,0,0,1-5.5-1.5l.9-2.7c0-.2.1-.2.3-.1,1.7,1.5,3.8,1.6,5.9,1.3a53.75,53.75,0,0,0,10.5-2.6A67.72,67.72,0,0,1,26,28.3a8.22,8.22,0,0,1,2.7-.2,1.64,1.64,0,0,1,1.1.7,1,1,0,0,1,.2,1,1.45,1.45,0,0,0-.2.7c-.1.5,0,.7.6.7a2.77,2.77,0,0,0,1.3-.3c2-.7,3.9-1.4,6-2.1a51.29,51.29,0,0,1,9.4-2.2,18.28,18.28,0,0,1,7,.2,18,18,0,0,1,2.1.8.37.37,0,0,1,.2.5A12.35,12.35,0,0,0,55.54,30.5Z"/><path class="cls-1" d="M9.64,7.1a7.69,7.69,0,0,0,5.7,1.4,53,53,0,0,0,13.6-3.3A49.94,49.94,0,0,1,34,3.6a4.08,4.08,0,0,1,1.9-.1,3.33,3.33,0,0,1,.6.3c.3.3.4.6.2.9a4.88,4.88,0,0,0-.3.7c-.2.6,0,.9.6,1a7.52,7.52,0,0,0,1.5,0,33.21,33.21,0,0,0,5.4-1.5,48.45,48.45,0,0,1,9.3-2.2,22.72,22.72,0,0,1,7.8.2A10.21,10.21,0,0,1,63.94,4c-.3.8-.5,1.6-.8,2.4-.1.2-.1.2-.3.1a14.28,14.28,0,0,0-7.6-1.3,51.27,51.27,0,0,0-11.6,2.6,32.21,32.21,0,0,1-6,1.3,4.3,4.3,0,0,1-1.6,0,1.42,1.42,0,0,1-.6-.2c-.7-.4-.8-.7-.6-1.4.1-.2.1-.4.2-.6,0-.4-.1-.6-.5-.6a3.19,3.19,0,0,0-1.4.3c-2,.6-3.9,1.5-5.9,2.1a47.75,47.75,0,0,1-11.8,2.5,10,10,0,0,1-6.3-1.5c-.2-.2-.3-.3-.2-.6A9.33,9.33,0,0,0,9.64,7.1Z"/><path class="cls-1" d="M68.54,5.1c.2.3.3.5.5.8-.2.1-.3,0-.4-.1s-.3-.4-.4-.6a.37.37,0,0,0-.3-.1c-.1,0-.1.1-.1.2v.5c0,.1,0,.2-.2.2s-.1-.1-.1-.2V4.3c0-.2.1-.2.2-.2h.8c.3,0,.5.1.5.4s-.1.5-.4.5C68.64,5.1,68.64,5.1,68.54,5.1Zm-.3-.8c-.1.1-.4-.1-.4.2s.1.4.4.3.6.1.6-.3S68.44,4.3,68.24,4.3Z"/></g></g></g></svg>