<svg xmlns="http://www.w3.org/2000/svg" viewBox="0 0 70 12.7"><defs><style>.cls-1{fill:#fffef8;}</style></defs><g id="Layer_2" data-name="Layer 2"><g id="Layer_1-2" data-name="Layer 1"><g id="_6Q0n3V.tif" data-name="6Q0n3V.tif"><path class="cls-1" d="M16.9,12.6c-.3,0-.5-.1-.8-.1a7.09,7.09,0,0,1-4.6-2.7,5.57,5.57,0,0,1-1.1-3.9,5.59,5.59,0,0,1,1.9-3.8A7.1,7.1,0,0,1,16.4.2a7,7,0,0,1,5.4,1.5A5.69,5.69,0,0,1,24,5.3a5.55,5.55,0,0,1-1.2,4.8,6.41,6.41,0,0,1-4.1,2.4,2.77,2.77,0,0,1-.9.1c-.1,0-.1,0-.2.1A1.7,1.7,0,0,0,16.9,12.6Zm.8-11.1a5.71,5.71,0,0,0-3.4.9,4.64,4.64,0,0,0-1.1,6.9,5.42,5.42,0,0,0,7.7.6,4.72,4.72,0,0,0,.4-6.6A4.84,4.84,0,0,0,17.7,1.5Z"/><path class="cls-1" d="M33.4,7.5c1.1,1.4,2.1,2.8,3.2,4.2H34.9c-.2,0-.3,0-.4-.2-.8-1-1.6-2.1-2.4-3.1-.2-.2-.3-.4-.5-.6s-.1-.1-.3-.1H27.4v4H25.8c-.1-.2-.1-9.9,0-10.2h6.6a5.08,5.08,0,0,1,1.7.3A3.24,3.24,0,0,1,36,3.7a3.08,3.08,0,0,1,0,1.9,2.38,2.38,0,0,1-.6,1.1A3.55,3.55,0,0,1,33.4,7.5ZM27.5,6.2h5.3a1.69,1.69,0,0,0,1-.3,1.42,1.42,0,0,0,.5-1.6A1.61,1.61,0,0,0,33,3.1H27.3A15.64,15.64,0,0,1,27.5,6.2Z"/><path class="cls-1" d="M38.1,11.7V1.6h9.3V3H39.9a14,14,0,0,0,0,2.9h5.6V7.3H39.9a14,14,0,0,0,0,2.9h7.6v1.5C47.2,11.7,38.4,11.8,38.1,11.7Z"/><path class="cls-1" d="M49.4,11.7H47.7a.37.37,0,0,0,.1-.3c1.6-3.2,3.3-6.4,4.9-9.6.1-.2.2-.3.4-.3h1.1a.52.52,0,0,1,.4.2c1.1,2.1,2.1,4.1,3.2,6.2.6,1.1,1.2,2.3,1.7,3.4,0,.1.1.2.1.3H57.9c-.1-.1-.1-.2-.2-.4-.3-.7-.7-1.3-1-2-.1-.1-.2-.2-.3-.2H50.8c-.2,0-.3.1-.3.2-.3.7-.7,1.4-1,2.1C49.5,11.5,49.4,11.6,49.4,11.7Zm4.3-8.5c-.8,1.6-1.6,3.1-2.4,4.6a36.84,36.84,0,0,0,4.7,0C55.3,6.3,54.5,4.8,53.7,3.2Z"/><path class="cls-1" d="M62.3,1.6v8.7h7.6v1.4c-.2.1-9,.1-9.3,0V1.6A4.82,4.82,0,0,1,62.3,1.6Z"/><path class="cls-1" d="M0,1.6H1.7v8.8H9.3a3.78,3.78,0,0,1,0,1.5H.1V1.9A.77.77,0,0,1,0,1.6Z"/><path class="cls-1" d="M8.1,1.8H9.8c0,.1,0,.1-.1.2C9.2,3,8.6,4.1,8.1,5.1c-.1.1-.2.2-.3.2h-1C6.8,5.1,7.9,2.2,8.1,1.8Z"/><path class="cls-1" d="M67.1,3a1.39,1.39,0,0,1,1.5-1.4A1.43,1.43,0,0,1,70,3a1.37,1.37,0,0,1-1.4,1.4A1.45,1.45,0,0,1,67.1,3Zm2.7,0a1.2,1.2,0,1,0-2.4,0,1.2,1.2,0,1,0,2.4,0Z"/><path class="cls-1" d="M45.4,0,42.1,1.2h0l.1-.1c.2-.3.5-.6.7-.9.1-.1.1-.2.2-.2Z"/><path class="cls-1" d="M68.2,3.1v.7h-.3a4.82,4.82,0,0,1,0-1.7h1a.52.52,0,0,1,.3.7c0,.1-.1.1-.1.2.2.2.1.5.2.8H69V3.4a.27.27,0,0,0-.3-.3Zm0-.2h.5a.22.22,0,0,0,.2-.2.22.22,0,0,0-.2-.2h-.5Z"/></g></g></g></svg>