<svg xmlns="http://www.w3.org/2000/svg" viewBox="0 0 70.2 15.7"><defs><style>.cls-1{fill:#fffef8;}</style></defs><g id="Layer_2" data-name="Layer 2"><g id="Layer_1-2" data-name="Layer 1"><g id="jqHIQH.tif"><path class="cls-1" d="M70,.4l-.3,1.5a.37.37,0,0,1-.1.3c-.4,0-.7-.1-1.1-.1a1.32,1.32,0,0,0-1.4,1.1,4.25,4.25,0,0,0-.2,1.1h1.9c-.1.6-.3,1.2-.4,1.8H66.5c-.4,2-.8,4-1.3,6H62.7c.4-2,.8-4,1.3-6H62.9a10.46,10.46,0,0,1,.4-1.7.35.35,0,0,1,.2-.1h.9l.3-1.2A3.64,3.64,0,0,1,68.2,0h.9a4.25,4.25,0,0,0,1.1.2C70,.3,70,.3,70,.4Z"/><path class="cls-1" d="M27.5,4.3c-.1.6-.3,1.2-.4,1.8l-.6,2.7c-.2,1,.2,1.4,1.2,1.4a2.79,2.79,0,0,0,2.2-1.1.37.37,0,0,0,.1-.3c.3-1.4.6-2.9.9-4.3,0-.2.1-.2.3-.2h2.2c-.1.5-.2,1-.3,1.4-.4,2.1-.9,4.1-1.3,6.1a6.89,6.89,0,0,1-.3.8,4.56,4.56,0,0,1-3.9,3,8.77,8.77,0,0,1-3.6-.2c-.7-.2-.7-.2-.5-.8a4.25,4.25,0,0,0,.2-1.1h0c.5.1,1,.3,1.6.4a6,6,0,0,0,1.9,0,2,2,0,0,0,1.7-1.2c.3-.6.5-1.2.7-1.7h-.1l-.2.2a4.47,4.47,0,0,1-3.5.9,2.17,2.17,0,0,1-1.9-2.2,11,11,0,0,1,.2-1.8c.2-1.2.5-2.4.8-3.6,0-.2.1-.2.3-.2Z"/><path class="cls-1" d="M42.3,12.1c.3-1.2.5-2.4.8-3.5.6-2.7,1.2-5.4,1.7-8.1.1-.3.1-.3.4-.3h2.1c-.4,1.7-.7,3.4-1.1,5.1.1-.1.2-.1.3-.2a4.24,4.24,0,0,1,3.4-.9,2.13,2.13,0,0,1,1.8,2.1A8.81,8.81,0,0,1,51.5,8c-.3,1.3-.5,2.6-.8,3.9,0,.1,0,.2-.2.2H48.2l.3-1.5c.2-1.1.5-2.1.7-3.2S49,5.9,48,6a3.13,3.13,0,0,0-2.2,1.1.37.37,0,0,0-.1.3c-.3,1.5-.6,3.1-1,4.6v.1Z"/><path class="cls-1" d="M10.9,12.1c.1-.3.1-.5.2-.8-.1.1-.2.2-.3.2a4.68,4.68,0,0,1-4.1.7A3,3,0,0,1,4.6,9.5,5.06,5.06,0,0,1,9.1,4.2a4.07,4.07,0,0,1,2.2.2c.4.2.7.4,1.1.6,0-.1.1-.3.1-.4a.22.22,0,0,1,.2-.2H15c-.6,2.6-1.1,5.2-1.7,7.8A19.27,19.27,0,0,0,10.9,12.1ZM7.1,8.9A1.33,1.33,0,0,0,8,10.3a3,3,0,0,0,3.4-1.2.37.37,0,0,0,.1-.3c.1-.3.1-.6.2-.9A1.48,1.48,0,0,0,11,6.3a2.33,2.33,0,0,0-2-.2A2.78,2.78,0,0,0,7.1,8.9Z"/><path class="cls-1" d="M61.5,9.1H55.1a1.07,1.07,0,0,0,.5,1.1,2.84,2.84,0,0,0,1.3.4,11.68,11.68,0,0,0,3.7-.4,5.16,5.16,0,0,0-.2,1.1.77.77,0,0,1-.7.8,9.56,9.56,0,0,1-4.1.2,6.89,6.89,0,0,1-.8-.3A2.78,2.78,0,0,1,53,9.2a5.57,5.57,0,0,1,1.7-3.8,5,5,0,0,1,3.1-1.2,6.56,6.56,0,0,1,2,.1A3,3,0,0,1,62,7.8,3,3,0,0,0,61.5,9.1Zm-2-1.6a1.11,1.11,0,0,0-.6-1.4,2.89,2.89,0,0,0-2.7.3,2,2,0,0,0-.8,1.2C56.7,7.5,58.1,7.5,59.5,7.5Z"/><path class="cls-1" d="M20,6.1H16.2c.1-.6.3-1.2.4-1.7h7c-.1.5-.2.9-.3,1.4,0,.1-.1.1-.2.2l-4.5,4.2c-.1.1-.2.1-.2.2a.1.1,0,0,0,.1.1h4a8.47,8.47,0,0,1-.4,1.7H14.8c.1-.4.2-.9.3-1.3a.22.22,0,0,1,.2-.2l4.5-4.2c.1-.3.1-.3.2-.4Z"/><path class="cls-1" d="M41.4,9.7a8.47,8.47,0,0,1-.4,1.7.22.22,0,0,1-.2.2,6.6,6.6,0,0,1-2.7.6,6.15,6.15,0,0,1-1.9-.2,3,3,0,0,1-2.3-3.7,5,5,0,0,1,4.6-4.4,7.62,7.62,0,0,1,3,.2c.3.1.5.2.8.3.1.1.2.1.1.3A10.46,10.46,0,0,1,42,6.4h-.1A4.39,4.39,0,0,0,38.2,6a2.78,2.78,0,0,0-1.8,3.1,1.42,1.42,0,0,0,1.4,1.1,6.65,6.65,0,0,0,3.4-.6c.1.2.1.1.2.1Z"/><path class="cls-1" d="M2.5,12.1H0c.2-.8.3-1.6.5-2.4.7-3.1,1.3-6.2,2-9.3.1-.3.1-.4.4-.3H5C4.2,4.1,3.3,8.1,2.5,12.1Z"/></g></g></g></svg>