<svg xmlns="http://www.w3.org/2000/svg" viewBox="0 0 70 35.4"><defs><style>.cls-1{fill:#fffef8;fill-rule:evenodd;}</style></defs><g id="Layer_2" data-name="Layer 2"><g id="Layer_1-2" data-name="Layer 1"><path class="cls-1" d="M62.1,25.8a2.5,2.5,0,1,0,2.5,2.5A2.48,2.48,0,0,0,62.1,25.8Zm0,4.6A2.05,2.05,0,0,1,60,28.3a2.11,2.11,0,0,1,2.1-2.1,2.05,2.05,0,0,1,2.1,2.1A2.11,2.11,0,0,1,62.1,30.4Z"/><path class="cls-1" d="M63.2,27.6c0-.6-.3-.8-1-.8H61.1v2.8h.4V28.3H62l.7,1.3h.5l-.8-1.4C62.8,28.4,63.2,28.2,63.2,27.6Zm-1.7.4v-.7h.7q.6,0,.6.3c0,.3-.2.4-.6.4Z"/><path class="cls-1" d="M29.3,15.2h0c-1.3,0-2.4.1-2.4,1.2,0,.7.5,1.3,2.1,1.3s2.7-.2,2.7-1.3S30.6,15.2,29.3,15.2Z"/><path class="cls-1" d="M51.4,12.4c-1.5,0-2.2.3-2.2,1.6s1,1.5,2.3,1.5h0c1.5,0,2.5-.2,2.5-1.5C53.9,13.1,53.5,12.4,51.4,12.4Z"/><path class="cls-1" d="M40.3,12.4c-1.5,0-2.2.3-2.2,1.6s1,1.5,2.3,1.5c1.5,0,2.5-.2,2.5-1.5C42.8,13.1,42.4,12.4,40.3,12.4Z"/><path class="cls-1" d="M35,0C22.2-.1,0,3.7,0,15c0,7,9,9.8,16.1,11.5,7.4,1.8,15.6,3.2,18.9,8.9,3.3-5.7,11.5-7.1,18.9-8.9C61,24.8,70,22,70,15,70,3.7,47.8.1,35,0ZM23.1,19.1H20.4V12.9l-2.9,6.2h-2L12.4,13v6.1H9.7V9.9h3.9l2.9,5.7,2.7-5.7h3.9v9.2Zm11.4,0H31.7v-.5a7.84,7.84,0,0,1-3.3.7c-1.3,0-4.4-.2-4.4-2.8,0-.5-.2-2.9,5-2.9a6.21,6.21,0,0,1,2.8.5v-.5c0-.3-.1-1.4-2.7-1.4-1,0-1.7.2-2,.8a.49.49,0,0,0-.1.3H24.2V13c0-2.5,4.9-2.3,5.3-2.3,2.7,0,5.1.7,5.1,3.3v5.1Zm11-2c0,2.9-2.8,3.5-5,3.5-5.3,0-5.3-2.2-5.3-2.8v-.3H38v.3c0,1,1.3,1.2,2.4,1.2,2.3,0,2.4-1.4,2.4-1.7v-.8a5.36,5.36,0,0,1-2.8.6c-4.2,0-4.8-1.3-4.8-3.1,0-2,.6-3.3,4.7-3.3a4.52,4.52,0,0,1,2.9.8V11h2.7v6.1Zm11.1,0c0,2.9-2.8,3.5-5,3.5-5.3,0-5.3-2.2-5.3-2.8v-.3h2.8v.3c0,1,1.3,1.2,2.4,1.2,2.3,0,2.3-1.4,2.3-1.7v-.8a5.36,5.36,0,0,1-2.8.6c-4.2,0-4.8-1.3-4.8-3.1,0-2,.6-3.3,4.7-3.3a4.52,4.52,0,0,1,2.9.8V11h2.7v6.1Zm3.8,2H57.6V11h2.8Zm-2.7-8.7V9.3h2.5c.1,0,.1.1.2.1v1Z"/></g></g></svg>