<svg xmlns="http://www.w3.org/2000/svg" viewBox="0 0 70.04 28.99"><defs><style>.cls-1{fill:#fff;}</style></defs><g id="Layer_2" data-name="Layer 2"><g id="Layer_1-2" data-name="Layer 1"><g id="jdxkzQ"><path class="cls-1" d="M23.34,29a29.27,29.27,0,0,1-13-3.1A22.19,22.19,0,0,1,4.64,22a17,17,0,0,1-3.3-4.2A10.35,10.35,0,0,1,0,13.69,9.52,9.52,0,0,1,1.84,7a8,8,0,0,1,3.4-2.6,14.44,14.44,0,0,1,4.2-1.1,22.77,22.77,0,0,1,6.4.4,30.4,30.4,0,0,0,7.4.5A35.78,35.78,0,0,0,33.44,2c1.4-.5,2.7-1.1,4.1-1.6a5.19,5.19,0,0,1,4.7.4,6.68,6.68,0,0,1,3.3,4.4,7.08,7.08,0,0,1,0,2.9c-.4,1.7-.7,3.4-1.1,5.1a23.38,23.38,0,0,1-3.7,8,17.1,17.1,0,0,1-7.4,5.9,22,22,0,0,1-6.6,1.6C25.54,28.89,24.44,28.89,23.34,29Zm.4-.8c.5,0,1.4-.1,2.3-.1a25.54,25.54,0,0,0,5.5-1.1,15.74,15.74,0,0,0,7.8-5.6,23,23,0,0,0,3.5-7,33,33,0,0,0,1.3-5.2,10.21,10.21,0,0,0,.3-3,6,6,0,0,0-3-4.8,3.93,3.93,0,0,0-3.5-.3c-.4.2-.9.3-1.3.5a43.63,43.63,0,0,1-6,2.3,28.67,28.67,0,0,1-8.2,1.3,33.9,33.9,0,0,1-6.4-.7A24.52,24.52,0,0,0,9.44,4a10.22,10.22,0,0,0-3.9,1,7,7,0,0,0-3.6,3.4,10,10,0,0,0-.6,7.2,12.27,12.27,0,0,0,3.2,5.2,21.39,21.39,0,0,0,6.3,4.5A29.09,29.09,0,0,0,23.74,28.19Z"/><path class="cls-1" d="M46.24,18.29h2.7a5.7,5.7,0,0,0,1.3-.1,3,3,0,0,0,2.4-3.2,3,3,0,0,0-2.9-2.8H48v5.4h-1.9v-6.7c0-.3.1-.4.4-.4h3.1a4.78,4.78,0,0,1,.7,9.5c-.3,0-.5.1-.8.1h-3.1c-.3,0-.4,0-.4-.4A3.4,3.4,0,0,0,46.24,18.29Z"/><path class="cls-1" d="M57,16.59a1.94,1.94,0,0,0,.9,1.4,2.56,2.56,0,0,0,3.2-.1l.2-.2c.2-.1.3-.1.4,0s.4.5.6.7.1.4-.1.5a4,4,0,0,1-4.5.7,4.25,4.25,0,0,1-.9-7.3,4.2,4.2,0,0,1,5.1.1,3.9,3.9,0,0,1,1.5,3.6c0,.2-.1.3-.3.4h-5.8C57.24,16.59,57.14,16.59,57,16.59Zm4.6-1.5a2.29,2.29,0,0,0-2.3-1.8,2.36,2.36,0,0,0-2.2,1.8Z"/><path class="cls-1" d="M64.64,14.69V9.79c0-.4.1-.5.5-.5H66a.37.37,0,0,1,.4.4v9.7c0,.4-.1.5-.5.5h-.8c-.4,0-.5-.1-.5-.5Z"/><path class="cls-1" d="M68.14,16v-3.7c0-.3.1-.5.5-.5h.9c.3,0,.5.1.5.5v7.3c0,.3-.1.4-.4.4h-1c-.3,0-.4-.1-.4-.4-.1-1.2-.1-2.4-.1-3.6Z"/><path class="cls-1" d="M69.14,9.39h.5a.37.37,0,0,1,.4.4v.9c0,.3-.1.4-.4.4h-1c-.3,0-.4-.1-.4-.4v-.9c0-.3.1-.4.4-.4h.5Z"/><path class="cls-1" d="M22.94,27.49a31.73,31.73,0,0,1-7.5-1.2,22.26,22.26,0,0,1-6.1-2.7,16.8,16.8,0,0,1-5.5-5.1A9.09,9.09,0,0,1,2,13.79,7.94,7.94,0,0,1,3.44,8a7.06,7.06,0,0,1,3.4-2.5,11.67,11.67,0,0,1,3.7-.8,22,22,0,0,1,5.7.5,33.6,33.6,0,0,0,6.3.6A27.88,27.88,0,0,0,32,4.19c1.8-.6,3.6-1.3,5.5-2a7.84,7.84,0,0,1,1.4-.5,4.09,4.09,0,0,1,2.4.4,4.55,4.55,0,0,1,2.5,3.6,9.35,9.35,0,0,1-.2,3.7,46.7,46.7,0,0,1-1.8,6.4,20.23,20.23,0,0,1-3.3,5.7,13.93,13.93,0,0,1-5.1,3.9,22.73,22.73,0,0,1-7.2,2C25.14,27.39,24,27.39,22.94,27.49Zm-9.8-11.4c-.1-.1-.1-.1-.1-.2-1.3-1.8-2.7-3.6-4-5.3-.2-.2-.4-.3-.6-.2v9.1h2.2v-3.2h.1c.8,1.1,1.7,2.2,2.6,3.3.9-1.1,1.7-2.2,2.5-3.3a.37.37,0,0,1,.1.3v2.8c0,.2,0,.2.2.2h2v-9.1c-.3-.1-.5,0-.7.3-1.2,1.5-2.3,3.1-3.5,4.6A1.39,1.39,0,0,0,13.14,16.09Zm5.9,3.4h6.3v-2a.27.27,0,0,0-.3-.3h-3.7V16H24c.2,0,.3,0,.3-.3v-2h-3v-1.2H25c.2,0,.2,0,.2-.2v-2H19Zm16,0a.37.37,0,0,1-.1-.3c-.7-1.4-1.4-2.8-2-4.2s-1.4-2.9-2.1-4.4c-.1-.2-.2-.2-.4-.2a.4.4,0,0,0-.4.2l-.6,1.2c-1.1,2.3-2.2,4.6-3.3,7-.1.2-.2.5-.3.7H28a.35.35,0,0,0,.2-.1,3.7,3.7,0,0,0,.5-1.1c.1-.1.1-.2.3-.2h2.7c.1,0,.2,0,.3.2s.3.7.5,1c.1.1.1.2.3.2H35Zm5.3-9.1h-7.1v2.2h2c.3,0,.3,0,.3.3v6.3a.27.27,0,0,0,.3.3h2.3c0-2.3-.1-4.6-.1-6.9h2.3Z"/><path class="cls-1" d="M31.24,16.19h-1.7c.3-.6.5-1.1.8-1.7C30.64,15,30.94,15.59,31.24,16.19Z"/></g></g></g></svg>