<svg xmlns="http://www.w3.org/2000/svg" viewBox="0 0 70 42.57"><defs><style>.cls-1{fill:#fff;}</style></defs><g id="Layer_2" data-name="Layer 2"><g id="Layer_1-2" data-name="Layer 1"><path class="cls-1" d="M55.3,15.34c-2.2.2-2.8,2.4-3.1,4.6s-.4,4.3,2,4.1c1.8-.2,2.7-2.4,3.1-4.6C57.5,17.14,57.7,15,55.3,15.34Z"/><path class="cls-1" d="M45.4,8.14a1.06,1.06,0,0,0-.9,1l2.1-.2A1.1,1.1,0,0,0,45.4,8.14Z"/><path class="cls-1" d="M58.6,6.74a1.06,1.06,0,0,0-.9,1l2.1-.2A1.3,1.3,0,0,0,58.6,6.74Z"/><path class="cls-1" d="M67.2,5.44c-5.4-9.9-19.4-3.5-22.5-2.3S29,9.84,28.4.74C21.5.74,3.5,13,5.4,29.64c1.4,12.2,15.8,8.2,20,6.9,5.5-1.7,18.2-7.3,20.9,1.2C62.7,33.44,73.3,16.64,67.2,5.44Zm-8.3,4.1a1.05,1.05,0,0,0,.9-.5c.1-.1.1-.2.3-.2l.7-.1c.2,0,.2.1.2.2a2.06,2.06,0,0,1-1.9,1.5,2.28,2.28,0,0,1-2.5-2.1,2.19,2.19,0,0,1,2-2.5,2.12,2.12,0,0,1,2.5,2.1c0,.2-.1.4-.3.4l-2.9.3C57.8,9.14,58.3,9.54,58.9,9.54Zm-2.3-4.8c.1,0,3.5-.7,3.5-.7a.27.27,0,0,1,.3.3v.4a.27.27,0,0,1-.3.3l-3.6.4a.22.22,0,0,1-.2-.2v-.3C56.4,4.94,56.5,4.74,56.6,4.74Zm-1.8-.1.5-.1c.2,0,.4.1.4.3l.6,5.4c0,.2-.1.4-.3.4l-.5.1c-.2,0-.4-.1-.4-.3L54.5,5C54.5,4.84,54.6,4.74,54.8,4.64Zm-2.8,2h.3l-.1-1.3c0-.2.1-.4.3-.4l.5-.1c.2,0,.4.1.4.3l.1,1.3.8-.1c.1,0,.3.1.3.2v.4c0,.1-.1.3-.2.3l-.8.1.2,2c0,.4.3.6.7.6h.1c.1,0,.3.1.3.2v.4c0,.1-.1.3-.2.3h-.5a1.4,1.4,0,0,1-1.6-1.3l-.2-2.2h-.3c-.1,0-.3-.1-.3-.2v-.4C51.7,6.84,51.8,6.64,52,6.64Zm-2.3,1.8a6.53,6.53,0,0,1,1.1.2,1.4,1.4,0,0,1,1.3,1.1c.1,1.1-1,1.6-1.8,1.7-1.2.1-2.1-.4-2.1-1.1v-.1a.22.22,0,0,1,.2-.2l.6-.1c.2,0,.3,0,.4.1.1.3.5.4.9.4s.8-.2.7-.6c0-.2-.3-.3-.5-.3a4.25,4.25,0,0,1-1.1-.2c-.7-.1-1.2-.4-1.3-1.1-.1-.9.6-1.5,1.7-1.6s1.9.4,2,1a.22.22,0,0,1-.2.2l-.6.1a.37.37,0,0,1-.3-.1.85.85,0,0,0-.9-.3c-.4,0-.7.2-.6.5S49.4,8.44,49.7,8.44Zm-11.8-2,.8-.1a.6.6,0,0,1,.6.3c.1.2,2.5,3.6,2.5,3.6l-.4-3.7c0-.2.1-.4.3-.4l9.3-1c.1,0,.3.1.3.2v.4c0,.1-.1.3-.2.3l-8.5.9.5,4.8c0,.2-.1.4-.3.4l-.7.1a.6.6,0,0,1-.6-.3c-.1-.1-2.5-3.6-2.5-3.6l.4,3.8c0,.2-.1.4-.3.4l-.5.1c-.2,0-.4-.1-.4-.3l-.6-5.4A.35.35,0,0,1,37.9,6.44Zm7.8,4.4a1.05,1.05,0,0,0,.9-.5c0-.1.1-.2.3-.2l.7-.1c.2,0,.2.1.2.2a2.06,2.06,0,0,1-1.9,1.5,2.28,2.28,0,0,1-2.5-2.1,2.19,2.19,0,0,1,2-2.5,2.12,2.12,0,0,1,2.5,2.1c0,.2-.1.4-.3.4l-2.9.3A.83.83,0,0,0,45.7,10.84ZM25.7,30c-1.4.1-3.4.4-3.4.4l1.4-7.8-5.2,8.6-2.4-7.7s-.8,4.4-1.1,5.8a2.29,2.29,0,0,1-2.3,2.1c-1.4.1-3.1.3-3.1.3S11.8,19,12,17.64c.3-1.7,1-2.7,2.9-2.9l3-.3,2.2,7s1.8-3.1,3-5,1.4-2.7,3.5-2.9,3.9-.4,3.9-.4S28,26.74,27.8,28,27.1,29.94,25.7,30Zm7.4-.7c-1.4.1-3.4.4-3.4.4s2.1-11.6,2.4-13.3c.3-1.5.9-1.9,2.3-2.1s3.3-.4,3.3-.4-2.2,12-2.4,13.3S34.5,29.14,33.1,29.34ZM62.4,19c-.6,5.3-3.7,8.5-9.8,8.5a4.73,4.73,0,0,1-4.8-2.8,9.09,9.09,0,0,1-.2,1.2c-.3,1.4-.9,1.9-2.4,2.1s-8.2.9-8.2.9,2.3-12.5,2.4-13.3c.3-1.5.9-1.9,2.3-2.1s3.3-.4,3.3-.4l-2.1,11.8,4.8-.5a9.67,9.67,0,0,1-.5-5c.7-8,8.4-7.8,9.3-7.8C60.5,11.94,63,14,62.4,19Z"/><path class="cls-1" d="M44.1,41.84c8.1-1.7,24.8-9.2,25.9-26.6,0-.5-.3-.6-.4,0-.7,3-4.4,18.3-23.9,23.7-1-4.9-5.1-7.2-16.5-2.6-10.5,4.2-20.6,4.6-23.5-1.5-5.5-11.4,3.6-25,13.2-31.1.4-.2.3-.6-.3-.3C4.7,11.24-3.3,27.64,1.3,37.14c3,6.2,11.7,8.1,28.2.3C37.5,33.74,44.9,33.64,44.1,41.84Z"/></g></g></svg>