<svg xmlns="http://www.w3.org/2000/svg" viewBox="0 0 70.1 41.6"><defs><style>.cls-1{fill:#fffef8;}</style></defs><g id="Layer_2" data-name="Layer 2"><g id="Layer_1-2" data-name="Layer 1"><g id="oOl7Wr.tif"><path class="cls-1" d="M31.6,3.22l1.2-.6a2.22,2.22,0,0,1,1.6-.1l.6.3h.2a2.13,2.13,0,0,1,2.3-.2c.4.2.7.4,1.1.6l.2-.2A12.78,12.78,0,0,1,41.7.72,5.82,5.82,0,0,1,45.1,0a4.2,4.2,0,0,1,3.3,2,9.43,9.43,0,0,1,1,2.3c.5,1.6,1,3.3,1.5,4.9,1.2,3.7,2.6,7.4,4.1,11,1.1,2.5,2.2,5.1,3.3,7.6,0,.1,0,.1.1.2H55.9a1.64,1.64,0,0,1-1.5-1c-.3-.6-.6-1.2-.9-1.9-2-4.6-3.9-9.3-5.5-14a.67.67,0,0,0-1.3.3,5.64,5.64,0,0,0,.4,1.2,117.76,117.76,0,0,0,4.5,11.7c.5,1.2,1.1,2.4,1.6,3.6a.1.1,0,0,0,.1.1H51.4a2.19,2.19,0,0,1-1.9-1.4c-.7-1.7-1.5-3.4-2.2-5.1-.6-1.4-1.1-2.8-1.6-4.1-.1-.3-.2-.5-.5-.5-.5-.2-1,.3-.9.9a7.84,7.84,0,0,0,.5,1.4c1.1,3,2.3,6,3.7,8.9a.1.1,0,0,0,.1.1H46.5a1.78,1.78,0,0,1-1.6-1,17.6,17.6,0,0,1-.9-2c-.5-1.1-.9-2.1-1.3-3.2,0-.1,0-.1-.1-.2a.35.35,0,0,1-.1.2,24.19,24.19,0,0,1-2.1,3.9,6.39,6.39,0,0,1-1.3,1.5,4.59,4.59,0,0,1-2.5,1,7.62,7.62,0,0,1-3-.2,5.38,5.38,0,0,1-2.8-2.1,29.3,29.3,0,0,1-2.1-3.9c0-.1-.1-.2-.1-.3h0c0,.1,0,.1-.1.2-.6,1.5-1.2,3-1.9,4.5a2.8,2.8,0,0,1-.9,1.3,2,2,0,0,1-1.3.4H22.6v-.1c1.2-2.6,2.2-5.2,3.2-7.9a2.7,2.7,0,0,1,1.1-1.5,2.67,2.67,0,0,1,3.6.6,4.13,4.13,0,0,1,.7,1.1,43.09,43.09,0,0,0,2.6,4.7,2.18,2.18,0,0,0,.4.5,1.6,1.6,0,0,0,2.3.1l.5-.5a23.61,23.61,0,0,0,2.8-5.2,4.67,4.67,0,0,0,.3-1.7,1.08,1.08,0,0,0-1-1H37.6a2.15,2.15,0,0,1-.8,0,.79.79,0,0,1-.8-.5.55.55,0,0,1,.3-.8.9.9,0,0,1,.5-.1,4.42,4.42,0,0,0,1.6-.6,3.62,3.62,0,0,0,1.8-2.8,4.85,4.85,0,0,0,0-1.7A1.85,1.85,0,0,0,39,9.42a2.25,2.25,0,0,0-1.8-.2c-.2.1-.3-.1-.3-.3a.79.79,0,0,1,.8-.8,2,2,0,0,1,1.1.3c.1.1.3.2.4.4l.2.2c.1,0,.2.1.3,0s.1-.2.1-.3a1.47,1.47,0,0,0-1.5-1.5h-.7a.35.35,0,0,1-.2-.1.22.22,0,0,1,.2-.2c.1,0,.3-.1.4-.1a.22.22,0,0,0,.2-.2c.2-.3.1-.6-.3-.6a.75.75,0,0,0-.5.1l-.5.5a.86.86,0,0,1-1,.4,1.27,1.27,0,0,1-.9-.7,1,1,0,0,1,.1-.9.83.83,0,0,1,.8-.3h.2c0-.1,0-.2-.1-.2a1.25,1.25,0,0,0-1.3-.4,1,1,0,0,0-.6,1.2A1.76,1.76,0,0,0,35,7l.1.1a1.4,1.4,0,0,1-1.1,0c-.4-.1-.5-.4-.7-.8,0,.1,0,.3-.1.3-.1.2-.1.4-.2.6a1.09,1.09,0,0,1-.9.4.88.88,0,0,1-.7-.6,1.72,1.72,0,0,1,.1-1.4l.1-.1.1.1c.1.3.2.4.5.4a.46.46,0,0,0,.4-.5v-.4a.67.67,0,0,0-1-.5,1,1,0,0,0-.6.5,2,2,0,0,0,0,2.1,1.76,1.76,0,0,0,.4.5,1.07,1.07,0,0,1,.1,1.1,4.13,4.13,0,0,0-.4,2.2c0,.2.1.5.1.7s0,.1-.1.2-.1,0-.2-.1a2.18,2.18,0,0,1-.4-.5.78.78,0,0,0-1.3.4,1.27,1.27,0,0,0,.1.6,1.48,1.48,0,0,0,1.6.8c.3-.1.4,0,.5.3a24.69,24.69,0,0,1,1,2.9v.2a.27.27,0,0,1-.3.3,4.42,4.42,0,0,1-1.6-.6,4.7,4.7,0,0,1-1.7-2,.1.1,0,0,0-.1-.1,4.62,4.62,0,0,1-2.7-3.5,2.82,2.82,0,0,1,.2-1.8,1.75,1.75,0,0,1,1.7-1.1,1.16,1.16,0,0,1,1.2,1.2,1,1,0,0,1-.9,1.2h-.1v-.3c0-.2-.1-.3-.3-.4s-.4-.1-.5.1a1,1,0,0,0-.2,1.2.81.81,0,0,0,.9.4,2.08,2.08,0,0,0,1.4-1.6,4.14,4.14,0,0,0-.2-1.6,4.25,4.25,0,0,1-.2-1.1c0-.2.1-.4.1-.6V6a9.76,9.76,0,0,0-1.8-1.7,2,2,0,0,0-2.9.7,8.51,8.51,0,0,0-.6,1.7c-1.6,5.1-3.3,10.2-5.3,15.2-.7,1.7-1.5,3.5-2.2,5.2l-.3.6a1.6,1.6,0,0,1-1.4.8H12c0-.1.1-.1.1-.2q3-6.3,5.4-12.9,1.8-5,3.3-9.9a10.89,10.89,0,0,1,1-2.5A4.22,4.22,0,0,1,25,.72a6,6,0,0,1,3.5.5,9.66,9.66,0,0,1,2.6,1.9C31.1,2.82,31.4,3,31.6,3.22Z"/><path class="cls-1" d="M6.5,37.92c.1-.3.2-.5.3-.8.4-1,.7-2,1.1-3A1.59,1.59,0,0,1,9.4,33h1.7c.2,0,.2.1.2.2.2,1.2.5,2.4.7,3.5l.9,4.5v.1H11.4a1.39,1.39,0,0,1-1.4-1.2c-.2-1.2-.4-2.4-.6-3.5v-.1c0,.1-.1.1-.1.2-.5,1.2-.9,2.5-1.4,3.7a1.49,1.49,0,0,1-2.3.7,1.79,1.79,0,0,1-.5-.7c-.5-1.2-.9-2.5-1.4-3.7,0-.1,0-.1-.1-.2-.1.3-.1.7-.2,1-.2.9-.3,1.8-.5,2.7a1.3,1.3,0,0,1-1.3,1.1H0c.1-.3.1-.6.2-.8.3-1.8.7-3.6,1-5.4a12.86,12.86,0,0,1,.4-1.9c0-.1.1-.1.2-.1H3.6a1.5,1.5,0,0,1,1.5,1.1l1.2,3.6C6.4,37.72,6.5,37.82,6.5,37.92Z"/><path class="cls-1" d="M40.7,37.92V33H43v8.3H41.1a1.82,1.82,0,0,1-1.7-1c-.2-.4-.4-.9-.6-1.4-.4-.9-.7-1.7-1.1-2.6a.1.1,0,0,0-.1-.1v5.1H35.3V33h2.1a1.8,1.8,0,0,1,1.7,1.3c.4.9.8,1.9,1.2,2.9a2.51,2.51,0,0,1,.4.7Z"/><path class="cls-1" d="M17.1,28.12c0-.1.1-.2.1-.3,1.8-4.2,3.6-8.5,5.1-12.9a4.05,4.05,0,0,1,.5-.9,1.6,1.6,0,0,1,1.6-.5,1.39,1.39,0,0,1,1.1,1.1,2.88,2.88,0,0,1-.1,1.3c-.3,1-.7,2-1,2.9-1,2.5-2,5.1-3,7.6a2.51,2.51,0,0,1-.4.7,1.83,1.83,0,0,1-1.3.8A11,11,0,0,1,17.1,28.12Z"/><path class="cls-1" d="M17.6,32.82a5.93,5.93,0,0,1,2.3.5,3.62,3.62,0,0,1,2,2.9,7,7,0,0,1-.1,2.5,4.07,4.07,0,0,1-2.3,2.5,5.26,5.26,0,0,1-3.9,0,3.77,3.77,0,0,1-2.4-2.9,4.61,4.61,0,0,1,.1-2.6,3.78,3.78,0,0,1,2.6-2.6c.2-.1.4-.1.6-.2A3.75,3.75,0,0,0,17.6,32.82Zm2,4.4h0a4.87,4.87,0,0,0-.1-1.2,1.63,1.63,0,0,0-1.1-1.3,1.27,1.27,0,0,0-.6-.1,1.58,1.58,0,0,0-1.8,1.3,4.16,4.16,0,0,0,0,2.7,1.63,1.63,0,0,0,1.2,1.2,2.2,2.2,0,0,0,.8.1,1.59,1.59,0,0,0,1.6-1.2A7.52,7.52,0,0,1,19.6,37.22Z"/><path class="cls-1" d="M70.1,41.32H67.5c-.1,0-.2,0-.2-.2-.1-.4-.3-.8-.4-1.2,0-.1-.1-.1-.2-.1H63.8c-.1,0-.1,0-.2.1l-.3,1.2c0,.1-.1.1-.2.1H60.6l.3-.9c.6-2,1.3-4,1.9-6a1.87,1.87,0,0,1,1.9-1.4H67a.22.22,0,0,1,.2.2c.9,2.6,1.8,5.2,2.6,7.8C70,41.12,70.1,41.22,70.1,41.32Zm-3.7-3.1c-.4-1.2-.8-2.4-1.1-3.6h0c-.3,1.2-.7,2.4-1,3.6Z"/><path class="cls-1" d="M43.6,41.32v-.2c.7-2.3,1.5-4.5,2.2-6.8a1.92,1.92,0,0,1,1.9-1.4H50c.1,0,.1,0,.2.1l2.7,8.1v.1H50.3c-.1,0-.2,0-.2-.2-.1-.4-.3-.8-.4-1.2,0-.1-.1-.1-.2-.1H46.7c-.1,0-.2,0-.2.1L46.2,41c0,.1-.1.1-.2.1H43.6C43.7,41.32,43.6,41.32,43.6,41.32Zm5.6-3.1c-.4-1.2-.8-2.4-1.1-3.6h0c-.3,1.2-.7,2.4-1,3.6Z"/><path class="cls-1" d="M31.1,41.32H28.8a1,1,0,0,1-.9-.6c-.4-.8-.7-1.5-1.1-2.3-.2-.5-.5-.9-.7-1.4a.1.1,0,0,0-.1-.1c.3-.1.5-.1.8-.2a1.79,1.79,0,0,0,.7-.5.78.78,0,0,0,.2-.8c-.1-.4-.3-.7-.7-.7H25.6l-.1.1v6.4H23.2c-.1,0-.2,0-.2-.2V33c0-.1,0-.2.2-.2H28a2.27,2.27,0,0,1,1.6.6,1.8,1.8,0,0,1,.3,2.1,2.37,2.37,0,0,1-1.1,1.3l-.1.1C29.5,38.52,30.3,39.92,31.1,41.32Z"/><path class="cls-1" d="M59.8,34.82a4.87,4.87,0,0,0-1.1-.4,2.86,2.86,0,0,0-1.6.1,2,2,0,0,0-1.5,1.4,5.28,5.28,0,0,0,0,2.5,1.38,1.38,0,0,0,1.3,1.1c.3,0,.5-.1.8-.1.1,0,.1-.1.1-.2v-2.4h2.4v4.3a1.7,1.7,0,0,0-.7.1,10.12,10.12,0,0,1-3,.2,4.9,4.9,0,0,1-2.4-.8,3.11,3.11,0,0,1-1.1-1.9,6,6,0,0,1,.2-3.5,3.93,3.93,0,0,1,2.7-2.3,6,6,0,0,1,2.3-.2,6.75,6.75,0,0,1,1.4.2c.1,0,.1.1.1.2v1.6Z"/><path class="cls-1" d="M33.9,33v8.1c0,.2,0,.2-.2.2H31.6c-.1,0-.2,0-.2-.2v-8c0-.1,0-.2.1-.2h2.1C33.8,33,33.8,33,33.9,33Z"/><path class="cls-1" d="M34.1,8.82h-.9a1.07,1.07,0,0,0-.6.2.19.19,0,0,1-.3,0c-.1-.1-.1-.2,0-.4a1.59,1.59,0,0,1,1.2-.9.82.82,0,0,1,1,.7c-.1.3-.2.5-.4.4Z"/><path class="cls-1" d="M34.2,11.42a1.35,1.35,0,0,0,.9-.5c.2-.1.3-.2.5-.1h.1c.1-.1.3,0,.4.1s.4.3.5.4a.37.37,0,0,0,.3.1.1.1,0,1,1,0,.2c-.1,0-.3.1-.4.1-.3,0-.6-.1-.9-.1a2,2,0,0,0-.8.1.75.75,0,0,1-.5-.1C34.3,11.52,34.3,11.42,34.2,11.42Z"/><path class="cls-1" d="M35.6,10h-.4c-.2,0-.3-.1-.2-.3s.2-.3.4-.4a.67.67,0,0,1,.9.4c0,.1,0,.2-.2.2a.9.9,0,0,1-.5.1Z"/></g></g></g></svg>