<svg xmlns="http://www.w3.org/2000/svg" viewBox="0 0 67.8 70"><defs><style>.cls-1{fill:#fffef8;}</style></defs><g id="Layer_2" data-name="Layer 2"><g id="Layer_1-2" data-name="Layer 1"><path class="cls-1" d="M41.4,30.1C39,32.6,39.2,34,36.7,35a18.38,18.38,0,0,1-2.4.7c-.6-1.8-2.1-3.6-3.6-3.6a11.67,11.67,0,0,0-3.8,1.2,28.5,28.5,0,0,0-3.7,1.9l.7.9a29.23,29.23,0,0,1,3.4-1.6,11.26,11.26,0,0,1,3.2-1c1.2,0,2,1.4,2.5,2.5a27,27,0,0,1-5.1.5c-.4,0-.5.1-.6.2a1.63,1.63,0,0,0-.3.6l-.1.4h.9c4.5,0,8.7-.7,11.4-2.4a4.25,4.25,0,0,0,1.1.2,7.17,7.17,0,0,0,4.2-1.6.8.8,0,0,0,.4-.8v-.9c-1.4,1.1-2.6,2-4.1,2-.3,0-.5,0-.6-.1,1.4-2.3,2.7-4.4,5.9-6L45,27.4A13.07,13.07,0,0,0,41.4,30.1Z"/><path class="cls-1" d="M36.5,30.8c-1,0-.9-1.7-1-3.1a19.83,19.83,0,0,0-8.3,2.7l.3,1.1a15.78,15.78,0,0,1,6.7-2.3c0,1.3.6,3.1,2.1,3.1s3.5-2.5,5.8-5.4l.6-.8a7.05,7.05,0,0,1-.9-.7C39.4,28.4,37.4,30.8,36.5,30.8Z"/><path class="cls-1" d="M30.2,12.2a8.87,8.87,0,0,1-1.5.2,3,3,0,0,1-1.2-.2,3.73,3.73,0,0,0-1.2-.2,4.49,4.49,0,0,0-2.7,1,4.83,4.83,0,0,0-1.4,3.7,4.51,4.51,0,0,1-1.2,3,25,25,0,0,0-2.3,3.4,7.46,7.46,0,0,1,1.2.7c.8-1.2,2-2.8,2.7-3.9a4.1,4.1,0,0,0,1-2.9v-.7a4.14,4.14,0,0,1,.9-2.2,3,3,0,0,1,2-.8c.7,0,1.1.2,1.8.2a2.51,2.51,0,0,0,1-.2l.2-.1-.6,1.3,1.3.5a7.13,7.13,0,0,0-2.6,5.3,10.9,10.9,0,0,0,.3,2.6.2.2,0,0,0,.4,0v-.3a13.28,13.28,0,0,1,.4-3.2,8.51,8.51,0,0,1,3.4-4.6L30,13.9l.9-2.2Z"/><path class="cls-1" d="M36.4,3.5c-.8,0-1,.8-1,1.2s.1.7.5.7A1.82,1.82,0,0,0,37,4.9c.3-.3.5-.5.5-.7s-.2-.4-.5-.5C36.9,3.5,36.7,3.5,36.4,3.5Z"/><polygon class="cls-1" points="31.7 18.6 31.1 19.7 37.2 19.7 36.8 18.6 31.7 18.6"/><path class="cls-1" d="M24.6,8.5c.3-.2.6-.5.6-.8a.76.76,0,0,0-.2-.4,1.14,1.14,0,0,0-.8-.3,1,1,0,0,0-.9,1.1.53.53,0,0,0,.6.6A1.85,1.85,0,0,0,24.6,8.5Z"/><path class="cls-1" d="M60.1,30.4l.6.4c.1.1.1.1.2.1a.22.22,0,0,0,.2-.2c0-.1,0-.1-.1-.2-1.7-1.6-3.6-3.5-5.4-5.4a57.24,57.24,0,0,1-4-4.6c-.1-.1-.2-.2-.3-.2a.22.22,0,0,0-.2.2c0,.2.1.4.4.9a23.16,23.16,0,0,0,3.4,4.5A31.7,31.7,0,0,0,60.1,30.4Z"/><path class="cls-1" d="M52.6,52H51.2a1,1,0,0,0-.8.3,1.45,1.45,0,0,0-.2.7V68.6a1.45,1.45,0,0,0,.2.7,1,1,0,0,0,.8.3h1.4a1,1,0,0,0,.8-.3,1.45,1.45,0,0,0,.2-.7V53a1.45,1.45,0,0,0-.2-.7A1,1,0,0,0,52.6,52Z"/><path class="cls-1" d="M27.9,15.1a.52.52,0,0,0-.2-.4,1.85,1.85,0,0,0-.7-.2.78.78,0,0,0-.8.6c0,.1-.1.3-.1.4,0,.4.2.7.5.7C27.1,16.2,27.9,15.6,27.9,15.1Z"/><path class="cls-1" d="M11.4,29.8l.1.5a.55.55,0,0,0,.3.5,2.81,2.81,0,0,0,1.1.1,14,14,0,0,0,2.9-.3,6.36,6.36,0,0,0,5.4,3,10.68,10.68,0,0,0,5-1.5L25.9,31a9.94,9.94,0,0,1-4.7,1.5A4.84,4.84,0,0,1,17,30c-.5-.8-.9-1.7-1.4-2.6a2.47,2.47,0,0,0-2.3-1.5,8.38,8.38,0,0,0-3,.8v.2c.1.4.2.6.6.6.2,0,.3-.1.4-.1a4.53,4.53,0,0,1,1.6-.3c.9,0,1.3.5,1.9,1.8l.2.5a13.88,13.88,0,0,1-3.2.3h-.4Z"/><path class="cls-1" d="M61.3,56.5a6.41,6.41,0,0,0-6.5,6.7A6.49,6.49,0,0,0,61.3,70a6.84,6.84,0,0,0,5.1-2.1,3.64,3.64,0,0,0,.9-1.9c0-.2,0-.3-.1-.4a.59.59,0,0,0-.5-.2H64.8a.81.81,0,0,0-.8.4,3,3,0,0,1-2.6,1.3,2.92,2.92,0,0,1-3-2.9h8.3a1,1,0,0,0,.8-.3,1.33,1.33,0,0,0,.3-1,6.9,6.9,0,0,0-1.5-4.4A6.44,6.44,0,0,0,61.3,56.5Zm-3,5.2a3,3,0,0,1,6,0Z"/><path class="cls-1" d="M56.4,6.3h.2v.3A2.16,2.16,0,0,0,59,9a15,15,0,0,0,4.3-1.1c1.3-.4,2.5-.9,3.1-1.1V5.4c-.7.2-2,.7-3.4,1.2a15.34,15.34,0,0,1-3.8,1A1.06,1.06,0,0,1,58,6.4a13.35,13.35,0,0,1,1.5-4.9H58.1a78.67,78.67,0,0,1-5.3,8.1l.9,1C54.5,9.5,55.4,7.9,56.4,6.3Z"/><path class="cls-1" d="M46.3,6.3c-1.2-1.2-2.1-2.5-2.7-3.1C42.3,1.8,40.6,0,37.8,0a5.22,5.22,0,0,0-5,3.3c-.2.4-.3,1-.4,1.1-.3.4-1.4,2.4-1.9,3.2h2.2l-1.1,2a13.22,13.22,0,0,1,3.3-.5,2.41,2.41,0,0,1,2.2.9c.6,1.2.6,5,1.7,7.8s3.4,5.3,6.1,7.3H45a.22.22,0,0,0,.2-.2c0-.1,0-.1-.1-.2A20.87,20.87,0,0,1,40,17.2c-1-2.7-.8-6.4-1.7-8a3.09,3.09,0,0,0-2.9-1.4,8.62,8.62,0,0,0-2.1.3l1-1.6H32.7A14.62,14.62,0,0,1,33.6,5,6.6,6.6,0,0,0,34,3.9a3.91,3.91,0,0,1,3.8-2.6c2.2,0,3.6,1.4,4.9,2.9a31,31,0,0,0,2.7,3.1,29.82,29.82,0,0,1,4.5,3.9,51.46,51.46,0,0,1,4.5,5.5A99,99,0,0,1,66.1,38.4h0c-6.1-4.1-11.3-8-15.5-12.8a48.06,48.06,0,0,1-7.9-12.4,3,3,0,0,1-.4-1c-.1-.1-.1-.2-.2-.2a.22.22,0,0,0-.2.2c0,.1.1.4.2,1,1.2,5.2,4.6,9.9,8.1,13.8a75.71,75.71,0,0,0,10.9,9.6L63.7,44a1.27,1.27,0,0,1,.1.6.37.37,0,0,1-.1.3c-.1.1-.2.1-.4.1h-.8c-.3,0-.5,0-.6-.1a1.38,1.38,0,0,1-.3-.4c-.2-.7-1.6-4.6-1.9-5.4a.2.2,0,1,0-.4,0,1.34,1.34,0,0,0,.1.5c.3,1.8.8,3.8.9,4.5a3.71,3.71,0,0,1,.2.9.55.55,0,0,1-.2.5l-.8.8a.55.55,0,0,1-.5.2c-.2,0-.3-.1-.4-.5-.9-4.2-2.3-9.5-2.6-11-.1-.3-.1-.5-.3-.5s-.2.1-.2.3v.3c.2,1.5,1.1,7,2,12,.2.9.5,1.3,1.2,1.3a1.43,1.43,0,0,0,1-.4l1.2-1.2a1.68,1.68,0,0,1,1.4-.6h1.8a1,1,0,0,0,1.1-1.1,3,3,0,0,0-.2-1c-.5-1.2-1.9-5.3-2.3-6.5h0c1.5,1.1,3.7,2.6,4.6,2.6.3,0,.5-.1.5-.6,0-2.2-3.7-11.2-12-23.7A41.26,41.26,0,0,0,46.3,6.3Z"/><path class="cls-1" d="M56.8,14.6a11.63,11.63,0,0,1,4.1-1,18.51,18.51,0,0,0,5.4-.6V11.9a30.57,30.57,0,0,1-3.6.5c-.5,0-.7-.1-.7-.2s.1-.2.3-.3c1.4-.6,4-1.6,5.5-2.2V8.2A112.89,112.89,0,0,0,56,13.4,12.49,12.49,0,0,0,56.8,14.6Z"/><path class="cls-1" d="M16,14.4a21.68,21.68,0,0,0-4,7.2h1.6l.2-.4a23.36,23.36,0,0,1,3.5-6l.5-.6c1.6-1.9,2.6-3,3.2-5.5a4.4,4.4,0,0,1,1-2.3A2.93,2.93,0,0,1,23.9,6a3.81,3.81,0,0,1,1.7.4,3.53,3.53,0,0,0,1.4.3h.5l-.8,1.1,1.1.8A4,4,0,0,0,25.4,11c0,.1-.1.2-.1.3s0,.2.2.2.3-.1.5-.4c.7-.8,1.2-1.4,3.8-2.2L28,7.5l1.4-2H28.1A5.11,5.11,0,0,1,26,5.2a5.25,5.25,0,0,0-2.3-.6,4.3,4.3,0,0,0-2.8,1.1,5.67,5.67,0,0,0-1.5,3.1,8.94,8.94,0,0,1-1.2,2.9A21.59,21.59,0,0,1,16,14.4Z"/><path class="cls-1" d="M5.6,9.9c-2.9,0-4.2,1.4-4.2,2.4A2.4,2.4,0,0,0,0,14.5a2.89,2.89,0,0,0,3,3A2.77,2.77,0,0,0,4.6,17a3.59,3.59,0,0,0,1.1.2A3,3,0,0,0,8.1,16h.3a2.77,2.77,0,0,0,2.4-1.6,1.69,1.69,0,0,0,.2-.5.22.22,0,0,0-.2-.2c-.2,0-.2.2-.5.4a4.12,4.12,0,0,1-2.7.8A2.06,2.06,0,0,1,5.7,16a2.3,2.3,0,0,1-1.4-.4,1.46,1.46,0,0,1-1.2.5,1.58,1.58,0,0,1-1.6-1.6,1.54,1.54,0,0,1,1-1.5c.1-1.2,1.4-2,3-2h.6a2.08,2.08,0,0,1,1.6-.9c.2,0,.3,0,.4-.1s.1-.1.1-.2,0-.2-.1-.2-.2-.1-.4-.1A2.67,2.67,0,0,1,5.6,7.8,3.05,3.05,0,0,1,2.5,4.7V4.6a1.54,1.54,0,0,1-1-1.5A1.58,1.58,0,0,1,3.1,1.5a1.71,1.71,0,0,1,1.3.7,2,2,0,0,1,.8-.1,2.9,2.9,0,0,1,3,2.5,2.47,2.47,0,0,1,2.2,2.2c.1.3.1.6.3.6s.3-.2.3-.6a2.75,2.75,0,0,1,.8-1.5,2.82,2.82,0,0,1,2.8-2.9,1.46,1.46,0,0,1,1.5-.9,1.58,1.58,0,0,1,1.6,1.6,1.61,1.61,0,0,1-.6,1.3,2.49,2.49,0,0,1,.1.8,2.2,2.2,0,0,1-1.7,2.1,3,3,0,0,1-.8,1.6c-.7.7-1.4.7-1.4,1s.1.3.4.3a2.64,2.64,0,0,0,2.8-2,2.94,2.94,0,0,0,2-2.7,1.48,1.48,0,0,0-.1-.7A2.53,2.53,0,0,0,19.2,3a2.66,2.66,0,0,0-.9-2,2.79,2.79,0,0,0-2-.8,2.66,2.66,0,0,0-2.4,1.3,3.42,3.42,0,0,0-3,3.5h-.2A1.59,1.59,0,0,0,9.2,3.8,3.66,3.66,0,0,0,5.7,1H5A3,3,0,0,0,3,.2,2.9,2.9,0,0,0,.1,3.1,2.94,2.94,0,0,0,1.5,5.5v.2A3.76,3.76,0,0,0,5.1,9.1,1.17,1.17,0,0,0,6,10v.2l-.4-.3Z"/><path class="cls-1" d="M37.8,62.1l-2.7-.7c-1.1-.3-1.6-.5-1.6-1.2s.6-1.2,2-1.2a2.58,2.58,0,0,1,2,.7c.4.4.3.6.6.8a1.48,1.48,0,0,0,.7.1h1.4c.2,0,.4,0,.5-.2a.85.85,0,0,0,.2-.6,2.91,2.91,0,0,0-1.1-2,6.9,6.9,0,0,0-4.3-1.4c-3.3,0-5.4,1.6-5.4,4a3.29,3.29,0,0,0,.8,2.2A5,5,0,0,0,33.6,64l2.7.7c.8.2,1.4.4,1.4,1.1,0,1-1.1,1.4-2.2,1.4a4.15,4.15,0,0,1-1.6-.3,2.7,2.7,0,0,1-.8-.7c-.2-.3-.2-.5-.5-.6a1.27,1.27,0,0,0-.6-.1H30.5a.85.85,0,0,0-.6.2.75.75,0,0,0-.1.5,2.66,2.66,0,0,0,.6,1.6A6.52,6.52,0,0,0,35.6,70c2.4,0,5.7-1,5.7-4.2a3.14,3.14,0,0,0-.7-2.1A6.27,6.27,0,0,0,37.8,62.1Z"/><path class="cls-1" d="M10.5,10.1a30.71,30.71,0,0,1,2.7,5.1c.2-.3.7-1,.9-1.3A17.05,17.05,0,0,0,11,9.6Z"/><path class="cls-1" d="M40,23.7a11.27,11.27,0,0,1-4,.9,15,15,0,0,1-2.2-.2,24.62,24.62,0,0,0-2.6-.2,6.75,6.75,0,0,0-4.3,1.2l.7.9a9.46,9.46,0,0,1,3.5-.7,15,15,0,0,1,2.2.2A22.82,22.82,0,0,0,36,26a11.37,11.37,0,0,0,4.8-1.4A7.27,7.27,0,0,0,40,23.7Z"/><path class="cls-1" d="M25.4,25.3l-.7-.9c-2.7,1-5.7,2.7-5.7,4.4,0,1,.7,1.7,2.3,1.7,2.4,0,4.9-1.2,6.9-2.3l-.3-.4c-.2-.2-.3-.3-.5-.3s-.3.1-.4.1a13.61,13.61,0,0,1-5.4,1.7c-1,0-1.3-.3-1.3-.7C20.5,27.4,23.8,26,25.4,25.3Z"/><path class="cls-1" d="M48.4,57H46.2V53.1a1.45,1.45,0,0,0-.2-.7,1,1,0,0,0-.8-.3H43.9a1,1,0,0,0-.8.3,1.45,1.45,0,0,0-.2.7V57h-.7a1.42,1.42,0,0,0-.6.2c-.2.1-.2.3-.2.6v.8a.71.71,0,0,0,.8.8h.7v6a3.94,3.94,0,0,0,1.2,3.2,4.21,4.21,0,0,0,3.3,1.1h1a1.42,1.42,0,0,0,.6-.2c.2-.1.2-.3.2-.6v-1a.71.71,0,0,0-.8-.8h-.1a2,2,0,0,1-1.4-.5,1.72,1.72,0,0,1-.5-1.5V59.4h2.2a1.42,1.42,0,0,0,.6-.2c.2-.1.2-.3.2-.6v-.8a.85.85,0,0,0-.2-.6A1.2,1.2,0,0,0,48.4,57Z"/><path class="cls-1" d="M66.6,54.7a1.42,1.42,0,0,0,.6-.2c.2-.1.2-.3.2-.6V52.8a1.55,1.55,0,0,0-.2-.8.85.85,0,0,0-.6-.2,2,2,0,0,0-.7.1l-9.5.9a.59.59,0,0,0-.5.2.76.76,0,0,0-.2.5v.6c0,.2,0,.3.1.4a.76.76,0,0,0,.5.2Z"/><path class="cls-1" d="M12.4,43.2a5.19,5.19,0,0,1-2.7.7,1.17,1.17,0,0,0-.7.2,1.17,1.17,0,0,0-.2.7v.4h.3a6.76,6.76,0,0,0,4.7-1.5l5.3-4.1A7,7,0,0,0,24,41.7a10.7,10.7,0,0,0,3.2-.6,14.55,14.55,0,0,1,3.7-.4h5.6a9.83,9.83,0,0,0,5.8-1.5,19.16,19.16,0,0,0,7.8-8.6c-.4-.3-.8-.5-1.1-.7A18.23,18.23,0,0,1,41.7,38a8.51,8.51,0,0,1-5.1,1.2H31a18.33,18.33,0,0,0-4.2.5,9.37,9.37,0,0,1-2.8.6,5.51,5.51,0,0,1-3.7-1.5l1.3-1-.7-.9c-.4.3-5.1,3.7-6,4.5h-.1v-.7c0-2.6-1.2-3.3-3.1-4l-1.3.7c2.5.8,3.2,1.5,3.2,3.4A2.14,2.14,0,0,1,12.4,43.2Z"/><path class="cls-1" d="M.5,41.3c.9,0,1-.5,1-1.1V39a2.3,2.3,0,0,1,1.6-2.6c.6-.3,3.8-1.6,6.2-2.6a5,5,0,0,1,2.1-.5,5.88,5.88,0,0,1,2.9,1,15.1,15.1,0,0,1,2.8,2.2l1-.8A17.64,17.64,0,0,0,14.8,33a6.78,6.78,0,0,0-3.2-1.1c-.4,0-.7.1-1,.1a3,3,0,0,1-1,.2,1.83,1.83,0,0,1-1.4-.7c-.2-.2-1.5-1.7-1.8-2.1A2.3,2.3,0,0,1,6,28.3a1.08,1.08,0,0,1,.2-.7,7.9,7.9,0,0,0,4.2,1.6l-.2-1.1c-2.4-.6-5-2.7-5-4.1a1.45,1.45,0,0,1,.2-.7,7.83,7.83,0,0,0,4.3,1.8,4.71,4.71,0,0,0,1.7-.4,4.19,4.19,0,0,1,1.6-.4,15.06,15.06,0,0,1,5.1,1.4c.1,0,.2.1.3.1a.55.55,0,0,0,.6-.4l.2-.4a15.39,15.39,0,0,0-6.3-2.2,4.26,4.26,0,0,0-1.7.4,4.19,4.19,0,0,1-1.5.4c-1.2,0-4.3-1.2-4.3-2.4,0-1.4,4.9-1.9,5.5-1.9l.5-1.1c-3.6,0-7.8,1.3-7.8,2.9,0,.5.3.7.3,1.2s-.3,1-.3,1.7a3.62,3.62,0,0,0,.6,1.5c.3.5.7.8.7,1.3a10.87,10.87,0,0,0-.2,1.5c0,1.6.9,2.6,2.7,4.5l.4.4c-1.5.6-4.2,1.8-4.9,2C.7,36.1.1,37.3.1,39.1v2.2Z"/><path class="cls-1" d="M15.6,4.1a.22.22,0,0,0-.2-.2c-.1,0-.2.1-.3.2a8,8,0,0,0-1.3,1.3A9.34,9.34,0,0,0,12.3,8l.6.4c.4-.7,1.9-2.9,2.6-4C15.5,4.2,15.6,4.2,15.6,4.1Z"/><path class="cls-1" d="M40.4,54.5c.2-.1.2-.3.2-.6V52.8a.71.71,0,0,0-.8-.8H12.6a1.1,1.1,0,0,0-.9.4,1,1,0,0,0-.3.8V64h-.1S5.4,53.4,5.1,52.9a2.7,2.7,0,0,0-.7-.8,1.92,1.92,0,0,0-1.2-.3h-2a1.1,1.1,0,0,0-.9.4A1,1,0,0,0,0,53V68.4a1,1,0,0,0,.3.8,1.27,1.27,0,0,0,.9.4H2.3a1.1,1.1,0,0,0,.9-.4,1,1,0,0,0,.3-.8V57.3h.1S9.8,68.2,10,68.6a1.87,1.87,0,0,0,1.8,1h1.9a1.1,1.1,0,0,0,.9-.4,1,1,0,0,0,.3-.8V54.5h25A.33.33,0,0,0,40.4,54.5Z"/><path class="cls-1" d="M22.6,56.5a6.41,6.41,0,0,0-6.5,6.7A6.49,6.49,0,0,0,22.6,70a6.84,6.84,0,0,0,5.1-2.1,3.64,3.64,0,0,0,.9-1.9c0-.2,0-.3-.1-.4a.59.59,0,0,0-.5-.2H26.1a.81.81,0,0,0-.8.4,3,3,0,0,1-2.6,1.3,2.92,2.92,0,0,1-3-2.9H28a1,1,0,0,0,.8-.3,1.33,1.33,0,0,0,.3-1,6.9,6.9,0,0,0-1.5-4.4A6.76,6.76,0,0,0,22.6,56.5Zm-3,5.2a2.88,2.88,0,0,1,3-2.6,2.88,2.88,0,0,1,3,2.6Z"/><path class="cls-1" d="M4.3,13.8a.22.22,0,0,0,.2.2.37.37,0,0,0,.3-.1l4.4-1.5L9,11.7a9.08,9.08,0,0,0-4.5,1.9C4.3,13.7,4.3,13.7,4.3,13.8Z"/><path class="cls-1" d="M7,5.3A12.56,12.56,0,0,0,4.7,4H4.5a.22.22,0,0,0-.2.2c0,.1,0,.1.1.2,1,.9,3,2.6,3.7,3.1l.5-.6A8,8,0,0,0,7,5.3Z"/></g></g></svg>