<svg xmlns="http://www.w3.org/2000/svg" viewBox="0 0 69.96 27.28"><defs><style>.cls-1{fill:#fff;}</style></defs><g id="Layer_2" data-name="Layer 2"><g id="Layer_1-2" data-name="Layer 1"><path class="cls-1" d="M16.36,12a17.61,17.61,0,0,1-1.5,7.5,10.38,10.38,0,0,1-2.9,3.7,5.94,5.94,0,0,1-7.8-.2A10,10,0,0,1,1,18.08a17.66,17.66,0,0,1-.9-7.2,15.29,15.29,0,0,1,2.3-7.2,8.42,8.42,0,0,1,3.2-3,5.7,5.7,0,0,1,5.9.3,9.33,9.33,0,0,1,3.3,3.8A18.11,18.11,0,0,1,16.36,12Zm-4.4.4a11.24,11.24,0,0,0-.4-3.2,7.13,7.13,0,0,0-1.4-2.9,2.12,2.12,0,0,0-3.3-.1A5.44,5.44,0,0,0,5.76,8a12.19,12.19,0,0,0-.3,8,6.59,6.59,0,0,0,1.4,2.6,2,2,0,0,0,3.2,0,7.84,7.84,0,0,0,1-1.5A12.67,12.67,0,0,0,12,12.38Z"/><path class="cls-1" d="M43.46,11a4.4,4.4,0,0,1,1-.2l1.2-.3a3.24,3.24,0,0,1,3.2,1.2,3.72,3.72,0,0,1,.9,1.9,24.94,24.94,0,0,1,.4,6.7c-.1,1.2-.3,2.3-.5,3.5a1.09,1.09,0,0,1-.8.8,4.6,4.6,0,0,1-2.6,0,1.72,1.72,0,0,1-1.1-1.1,3.66,3.66,0,0,1,0-1.8c.1-1.6.3-3.2.4-4.8,0-.5-.1-.8-.5-1a1.28,1.28,0,0,0-1.2,0,1.62,1.62,0,0,0-.7,1.4c0,1.4,0,2.7.1,4.1a13.4,13.4,0,0,0,.1,2,1,1,0,0,1-.9,1.2,3.6,3.6,0,0,1-3.5-1.3,1.42,1.42,0,0,1-.2-.6v-6.6c0-2.8.1-5.6.1-8.4a28.1,28.1,0,0,1,.1-2.9,6.11,6.11,0,0,1,.3-1.3,1.33,1.33,0,0,1,1.1-.8,2.78,2.78,0,0,1,3.2,2c0,.1.1.3.1.4,0,1.9,0,3.7-.1,5.6C43.46,10.68,43.46,10.78,43.46,11Z"/><path class="cls-1" d="M32.66,24.48a9.2,9.2,0,0,1-5.2-1.9,1.86,1.86,0,0,1-.2-2.8,2.26,2.26,0,0,1,1.5-1,1.49,1.49,0,0,1,1.4.3l1.2.9a1,1,0,0,0,.9.2.45.45,0,0,0,.3-.6,2.65,2.65,0,0,0-.5-.6c-.5-.3-1.1-.6-1.6-.9a9.79,9.79,0,0,1-3.1-2.6,3.54,3.54,0,0,1-.5-3.8,5.66,5.66,0,0,1,1.2-1.5,4.94,4.94,0,0,1,5.3-.9,6.77,6.77,0,0,1,2.4,1.2,2.42,2.42,0,0,1,1.1,2.2,1.65,1.65,0,0,1-.9,1.5,1.08,1.08,0,0,1-1.1,0c-.5-.2-1-.5-1.5-.7a7.6,7.6,0,0,0-1.1-.4.53.53,0,0,0-.7.2c-.2.3,0,.5.2.7a4.7,4.7,0,0,0,.9.6,9.53,9.53,0,0,1,3,1.9,6.89,6.89,0,0,1,1.1,1.3,3,3,0,0,1,.6,2,5.85,5.85,0,0,1-1.5,3.6,4.1,4.1,0,0,1-2.8,1.3A.4.4,0,0,0,32.66,24.48Z"/><path class="cls-1" d="M18.16,16.88v-5.1a2.14,2.14,0,0,1,.9-1.8,1.26,1.26,0,0,1,1.3-.2,4.36,4.36,0,0,1,2.5,1.7.6.6,0,0,1,.1.4v6.4a5.85,5.85,0,0,0,.2,1.3c.1.5.5.6,1,.4a2.18,2.18,0,0,0,.5-.4,4.35,4.35,0,0,1,.7-.4c.4-.1.6.1.6.5a2.62,2.62,0,0,1-.5.9,26,26,0,0,1-3.6,3,3.46,3.46,0,0,1-1.6.8,1.46,1.46,0,0,1-1.8-.9,4.48,4.48,0,0,1-.4-2c.1-1.5.1-3.1.1-4.6Z"/><path class="cls-1" d="M52.16,16.78v-5a2.13,2.13,0,0,1,1.4-2,1.39,1.39,0,0,1,.9,0,3.7,3.7,0,0,1,2.5,1.7.6.6,0,0,1,.1.4v6.4a5.85,5.85,0,0,0,.2,1.3.57.57,0,0,0,.9.4,2.18,2.18,0,0,0,.5-.4,4.35,4.35,0,0,1,.7-.4c.4-.1.6.1.6.5s-.2.6-.5.9c-.8.7-1.5,1.4-2.3,2.1a10.92,10.92,0,0,1-1.7,1.3,4.42,4.42,0,0,1-1.6.6,1.36,1.36,0,0,1-1.3-.7,4.06,4.06,0,0,1-.5-2.1C52.16,20,52.16,18.38,52.16,16.78Z"/><path class="cls-1" d="M21.26,7.48a3.15,3.15,0,0,1-2.4-1.1,1.78,1.78,0,0,1,.1-2.6,2.9,2.9,0,0,1,2.3-1,3.53,3.53,0,0,1,2.6.8,2,2,0,0,1-.2,3.2A4,4,0,0,1,21.26,7.48Z"/><path class="cls-1" d="M54.86,2.68a3.7,3.7,0,0,1,2.1.6,2.06,2.06,0,0,1,.1,3.4,3.6,3.6,0,0,1-4.4,0,2.11,2.11,0,0,1,.2-3.5A4.55,4.55,0,0,1,54.86,2.68Z"/><path class="cls-1" d="M70,23.88a3.45,3.45,0,0,1-3.5,3.4,3.31,3.31,0,0,1-3.3-3.5,3.37,3.37,0,0,1,3.4-3.4A3.52,3.52,0,0,1,70,23.88Zm-3.4,3a3,3,0,0,0,0-6,3,3,0,0,0-3,3A3,3,0,0,0,66.56,26.88Z"/><path class="cls-1" d="M65.16,25.68v-3.5h2.1a.77.77,0,0,1,.7.8.83.83,0,0,1-.5,1c-.1.1-.3.1-.4.2a4.81,4.81,0,0,1,1.2,1.6c-.5.1-.5.1-.8-.3s-.3-.5-.5-.8a.83.83,0,0,0-1-.5h-.4v1.6A.6.6,0,0,0,65.16,25.68Zm.5-2.1h1.4c.1,0,.2-.1.3-.1a.37.37,0,0,0,.2-.5.43.43,0,0,0-.4-.4h-1.5Z"/></g></g></svg>