<svg xmlns="http://www.w3.org/2000/svg" viewBox="0 0 70.1 44.98"><defs><style>.cls-1{fill:#fff;}</style></defs><g id="Layer_2" data-name="Layer 2"><g id="Layer_1-2" data-name="Layer 1"><g id="z6c47N"><path class="cls-1" d="M9.1,23H3.5a21.3,21.3,0,0,1-2.5-.3c-.2,0-.3-.1-.5-.2a.87.87,0,0,1-.5-.9c.1-1.4.6-2.6,2.2-2.9a5.44,5.44,0,0,1,1.8,0,10.1,10.1,0,0,1,3.3,1.2,24.7,24.7,0,0,0,5.4,1.9,6,6,0,0,0,2.3.1,1.93,1.93,0,0,0,1.8-2.1,8,8,0,0,0-.5-2.6,25.1,25.1,0,0,0-2.8-5.4c-.7-1.1-1.5-2.1-2.1-3.2a9.47,9.47,0,0,1-1.3-4.7A3.46,3.46,0,0,1,12.5.38a5.3,5.3,0,0,1,2.8-.3,3,3,0,0,1,2.2,2A7,7,0,0,1,17.9,5a53.53,53.53,0,0,1-.7,5.6,19.4,19.4,0,0,0,.1,5.9,5.72,5.72,0,0,0,1.5,3,3.45,3.45,0,0,0,2.3,1,7.1,7.1,0,0,0,3.5-.7,17.19,17.19,0,0,0,6-4.6c1-1.2,1.9-2.5,2.9-3.7a10.78,10.78,0,0,1,3.2-2.8,4,4,0,0,1,2.6-.6,3.29,3.29,0,0,1,1.6.7,5.1,5.1,0,0,1,1.7,2.8,2.64,2.64,0,0,1-.6,2.3,6.25,6.25,0,0,1-3.1,1.9,27.44,27.44,0,0,1-3.9.9,17.06,17.06,0,0,0-6.5,2.4,7.46,7.46,0,0,0-3.3,4.3,8.72,8.72,0,0,0,.2,4.8,16.77,16.77,0,0,0,3.8,6.4,18.1,18.1,0,0,0,3,2.5A20,20,0,0,1,34.4,39a3.59,3.59,0,0,1,.7,1,2.42,2.42,0,0,1-.2,3.1,5.46,5.46,0,0,1-2.4,1.8,2,2,0,0,1-1.7-.2,3.76,3.76,0,0,1-1.5-1.8,19.33,19.33,0,0,1-1.6-4.6c-.2-.7-.3-1.3-.5-2a12.3,12.3,0,0,0-1.7-4.1c-.7-1.1-1.5-2.2-2.3-3.3a7.5,7.5,0,0,0-2.9-2.4,2.89,2.89,0,0,0-3.3.6,6.54,6.54,0,0,0-1.7,2.6,32.21,32.21,0,0,0-1.4,4.4,15.67,15.67,0,0,1-1.8,4.2,6.68,6.68,0,0,1-1.7,2,2.25,2.25,0,0,1-3.4-.6,3.05,3.05,0,0,1-.2-3.3A9.73,9.73,0,0,1,9,33.28c1.3-1.1,2.6-2.2,3.8-3.3a14.25,14.25,0,0,0,2.9-3.1,6.12,6.12,0,0,0,.5-1.2,1.34,1.34,0,0,0-.6-1.5,5.27,5.27,0,0,0-2.4-.8L9,23.08C9.1,22.88,9.1,23,9.1,23Z"/><path class="cls-1" d="M51.9,22c.2-.9.4-1.7.6-2.6.3-1.2.5-2.4.8-3.7a.27.27,0,0,1,.3-.3c1.4-.3,2.8-.5,4.2-.8.4-.1.4-.1.4.3v16.6c0,.3-.1.4-.4.5-1.2.2-2.4.5-3.6.7-.3.1-.4.1-.4-.3v-6.2h-.1l-1.8,6.9h-.1c-.6-2.1-1.2-4.1-1.8-6.2h0v6.2c0,.3-.1.4-.4.5-1.2.2-2.4.4-3.5.7-.3.1-.4,0-.4-.3V17.28c0-.3.1-.4.4-.4,1.4-.3,2.8-.5,4.2-.8.3,0,.4,0,.4.3.4,1.8.8,3.5,1.2,5.3-.2.1-.1.2,0,.3Z"/><path class="cls-1" d="M33.7,27.88v-4.1A5.28,5.28,0,0,1,35.1,20a4.83,4.83,0,0,1,2-1.4,11,11,0,0,1,4-.8,3,3,0,0,1,3.1,2.4,5.66,5.66,0,0,1,.3,1.8v7.8a7.3,7.3,0,0,1-.9,3.5,5.58,5.58,0,0,1-3.3,2.3,7.72,7.72,0,0,1-3.7.4,3.08,3.08,0,0,1-2.7-2.5,7.72,7.72,0,0,1-.2-1.5v-4.1Zm6.5-1.2h0v-3.8a2.77,2.77,0,0,0-.1-.9.63.63,0,0,0-.5-.6,1.17,1.17,0,0,0-1.4.7,6.75,6.75,0,0,0-.2,1.4v7a4.1,4.1,0,0,0,.1,1.1.67.67,0,0,0,.4.7,1.16,1.16,0,0,0,1.4-.6,3,3,0,0,0,.2-1C40.2,29.48,40.2,28.08,40.2,26.68Z"/><path class="cls-1" d="M70,21v4.1A6.12,6.12,0,0,1,68.7,29a5.45,5.45,0,0,1-2.7,1.7,8,8,0,0,1-3.4.5,3,3,0,0,1-2.5-1.1,4.19,4.19,0,0,1-.8-2.2c0-.3-.1-.6-.1-.9V19a6.58,6.58,0,0,1,.7-3,5.13,5.13,0,0,1,2.9-2.5,8.84,8.84,0,0,1,3.3-.7,3.34,3.34,0,0,1,3.3,1.4,5,5,0,0,1,.7,2.7c-.1,1.4-.1,2.8-.1,4.1Zm-4.3.7h0v-3.9c0-.3-.1-.5-.1-.8a.63.63,0,0,0-.6-.5c-.6,0-1.2.2-1.3.9a4.87,4.87,0,0,0-.1,1.2v7c0,.5.1.9.1,1.4a.47.47,0,0,0,.5.5,1.27,1.27,0,0,0,1.3-.7,5.85,5.85,0,0,0,.2-1.3Z"/></g></g></g></svg>