<svg xmlns="http://www.w3.org/2000/svg" viewBox="0 0 70 10.6"><defs><style>.cls-1{fill:#fffef8;}</style></defs><g id="Layer_2" data-name="Layer 2"><g id="Layer_1-2" data-name="Layer 1"><polygon class="cls-1" points="15 0.4 10.8 0.4 9.1 9.9 11.7 9.9 12.8 2.5 13 2.5 14.1 9.9 16.7 9.9 15 0.4"/><polygon class="cls-1" points="27.3 9.9 27.2 2.8 26.9 2.8 25.7 9.9 23.2 9.9 21.9 2.8 21.7 2.8 21.6 9.9 19.2 9.9 19.5 0.4 23.6 0.4 24.3 5.7 24.5 5.7 25.3 0.4 29.3 0.4 29.7 9.9 27.3 9.9"/><polygon class="cls-1" points="42.2 7.8 42.2 0.4 44.8 0.4 44.8 7.7 44.8 7.7 44.8 7.8 44.8 7.8 44.8 7.9 44.8 7.9 44.8 7.9 44.9 8 44.9 8 44.9 8 44.9 8.1 44.9 8.1 44.9 8.1 44.9 8.2 45 8.2 45 8.2 45 8.3 45.1 8.3 45.1 8.3 45.1 8.3 45.1 8.3 45.2 8.4 45.2 8.4 45.2 8.4 45.3 8.4 45.3 8.4 45.3 8.4 45.4 8.5 45.4 8.5 45.4 8.5 45.5 8.5 45.5 8.5 45.6 8.5 45.6 8.5 45.6 8.5 45.7 8.5 45.7 8.5 45.7 8.5 45.8 8.4 45.8 8.4 45.8 8.4 45.9 8.4 45.9 8.4 45.9 8.4 46 8.3 46 8.3 46 8.3 46.1 8.3 46.1 8.3 46.1 8.2 46.1 8.2 46.1 8.2 46.2 8.1 46.2 8.1 46.2 8.1 46.2 8 46.2 8 46.2 8 46.3 7.9 46.3 7.9 46.3 7.9 46.3 7.8 46.3 7.8 46.3 7.7 46.3 7.7 46.3 0.4 48.9 0.4 48.9 7.9 48.9 8 48.9 8.2 48.9 8.3 48.9 8.5 48.8 8.6 48.8 8.8 48.7 8.9 48.6 9 48.6 9.1 48.5 9.2 48.4 9.3 48.3 9.4 48.2 9.5 48.1 9.6 48 9.7 47.9 9.8 47.8 9.9 47.6 10 47.5 10 47.4 10.1 47.2 10.1 47.1 10.2 46.9 10.2 46.8 10.3 46.6 10.3 46.5 10.4 46.2 10.4 45.9 10.4 45.6 10.5 45.2 10.4 44.9 10.4 44.6 10.4 44.5 10.3 44.3 10.3 44.2 10.2 44 10.2 43.9 10.1 43.7 10.1 43.6 10 43.5 9.9 43.3 9.9 43.2 9.8 43.1 9.7 43 9.6 42.9 9.5 42.8 9.4 42.7 9.3 42.6 9.2 42.5 9.1 42.5 9 42.4 8.9 42.3 8.7 42.3 8.6 42.2 8.4 42.2 8.3 42.2 8.2 42.2 8 42.2 7.8"/><polygon class="cls-1" points="60.3 0.4 57.9 0.4 57.9 6.4 57.9 6.4 55.2 0.4 52.3 0.4 52.3 9.9 54.7 9.9 54.7 4.4 54.7 4.4 57.2 9.9 60.3 9.9 60.3 0.4"/><polygon class="cls-1" points="32.5 8.1 32.5 6.8 35.2 6.8 35.2 7.4 35.2 7.5 35.2 7.6 35.2 7.7 35.2 7.7 35.2 7.8 35.2 7.9 35.2 7.9 35.2 7.9 35.2 8 35.3 8 35.3 8 35.3 8 35.3 8.1 35.3 8.1 35.3 8.1 35.3 8.1 35.4 8.1 35.4 8.2 35.4 8.2 35.4 8.2 35.4 8.2 35.5 8.2 35.5 8.2 35.5 8.2 35.5 8.3 35.6 8.3 35.6 8.3 35.6 8.3 35.7 8.3 35.7 8.3 35.8 8.3 35.9 8.3 36 8.4 36 8.4 36 8.4 36 8.4 36 8.4 36.1 8.3 36.1 8.3 36.1 8.3 36.1 8.3 36.2 8.3 36.2 8.3 36.2 8.3 36.3 8.3 36.3 8.2 36.3 8.2 36.4 8.2 36.4 8.2 36.4 8.1 36.5 8.1 36.5 8 36.5 8 36.6 8 36.6 7.9 36.6 7.9 36.6 7.8 36.6 7.7 36.6 7.7 36.6 7.6 36.6 7.6 36.6 7.5 36.6 7.4 36.6 7.4 36.6 7.3 36.6 7.2 36.6 7.2 36.5 7.1 36.5 7 36.5 7 36.5 7 36.4 6.9 36.4 6.9 36.4 6.9 36.4 6.8 36.3 6.8 36.3 6.7 36.2 6.7 36.1 6.6 36.1 6.6 35.9 6.5 35.7 6.4 35.4 6.2 34.9 6 34.5 5.8 34.2 5.6 34 5.5 33.7 5.3 33.5 5.1 33.4 5 33.4 5 33.4 5 33.3 4.9 33.3 4.9 33.3 4.9 33.2 4.8 33.2 4.7 33.1 4.6 33.1 4.6 33 4.5 33 4.4 32.9 4.3 32.9 4.2 32.9 4.1 32.8 3.9 32.8 3.6 32.7 3.4 32.7 3.2 32.7 3 32.7 2.7 32.7 2.5 32.7 2.3 32.7 2.1 32.8 1.9 32.8 1.8 32.8 1.7 32.9 1.6 32.9 1.5 33 1.4 33 1.2 33.1 1.1 33.2 1.1 33.2 1 33.3 0.9 33.4 0.8 33.5 0.7 33.6 0.6 33.7 0.6 33.8 0.5 33.9 0.5 34.1 0.4 34.2 0.4 34.3 0.3 34.4 0.2 34.7 0.2 35 0.1 35.3 0.1 35.5 0.1 35.8 0 36.1 0.1 36.4 0.1 36.7 0.1 36.9 0.2 37.2 0.2 37.5 0.3 37.7 0.4 38 0.5 38.1 0.6 38.2 0.6 38.3 0.7 38.4 0.8 38.5 0.8 38.5 0.9 38.6 1 38.7 1 38.8 1.1 38.8 1.2 38.9 1.3 38.9 1.3 38.9 1.4 39 1.4 39 1.5 39 1.5 39 1.6 39 1.6 39.1 1.7 39.1 1.7 39.1 1.8 39.1 1.8 39.1 1.9 39.1 1.9 39.1 2 39.1 3.3 36.7 3.3 36.7 2.7 36.7 2.6 36.7 2.5 36.7 2.4 36.7 2.4 36.7 2.3 36.6 2.3 36.6 2.3 36.6 2.2 36.6 2.2 36.6 2.2 36.6 2.2 36.6 2.1 36.6 2.1 36.6 2.1 36.5 2.1 36.5 2.1 36.5 2.1 36.5 2 36.5 2 36.5 2 36.4 2 36.4 2 36.4 2 36.4 2 36.3 1.9 36.3 1.9 36.3 1.9 36.3 1.9 36.2 1.9 36.1 1.9 36 1.9 36 1.9 35.9 1.9 35.8 1.9 35.8 1.9 35.8 1.9 35.7 1.9 35.7 1.9 35.7 1.9 35.6 1.9 35.6 1.9 35.6 2 35.5 2 35.5 2 35.5 2 35.4 2.1 35.4 2.1 35.4 2.1 35.3 2.2 35.3 2.2 35.3 2.2 35.3 2.2 35.3 2.2 35.3 2.3 35.3 2.3 35.3 2.3 35.3 2.3 35.2 2.3 35.2 2.4 35.2 2.4 35.2 2.4 35.2 2.4 35.2 2.5 35.2 2.5 35.2 2.5 35.2 2.5 35.2 2.6 35.2 2.6 35.2 2.6 35.2 2.7 35.2 2.8 35.3 2.8 35.3 2.9 35.3 3 35.3 3 35.4 3.1 35.5 3.2 35.6 3.3 35.6 3.4 35.8 3.5 35.9 3.6 36.1 3.7 36.3 3.8 36.4 3.9 36.6 4 37.3 4.3 37.7 4.5 37.8 4.6 38 4.7 38.2 4.8 38.3 4.9 38.4 4.9 38.5 5 38.5 5 38.6 5.1 38.6 5.2 38.7 5.2 38.8 5.3 38.8 5.4 38.9 5.5 38.9 5.6 39 5.6 39 5.7 39.1 5.8 39.1 5.9 39.1 6 39.2 6.2 39.2 6.3 39.2 6.4 39.2 6.5 39.3 6.7 39.3 6.9 39.3 7.3 39.3 7.6 39.3 8 39.2 8.1 39.2 8.3 39.2 8.4 39.1 8.5 39.1 8.6 39 8.7 39 8.9 38.9 9 38.8 9.1 38.7 9.2 38.6 9.3 38.5 9.3 38.4 9.4 38.3 9.5 38.2 9.6 38.1 9.7 38 9.7 37.8 9.8 37.7 9.8 37.6 9.9 37.4 9.9 37.3 10 37 10.1 36.7 10.1 36.4 10.2 36.1 10.2 35.8 10.2 35.5 10.2 35.2 10.2 34.9 10.1 34.6 10 34.3 10 34 9.9 33.9 9.8 33.8 9.8 33.7 9.7 33.6 9.6 33.4 9.6 33.3 9.5 33.2 9.4 33.1 9.3 33 9.3 33 9.2 32.9 9.1 32.8 9 32.8 8.9 32.7 8.8 32.7 8.8 32.7 8.7 32.6 8.7 32.6 8.6 32.6 8.5 32.6 8.5 32.6 8.4 32.6 8.4 32.5 8.3 32.5 8.3 32.5 8.2 32.5 8.1"/><polygon class="cls-1" points="3.3 0 2.9 0.1 2.5 0.1 2.3 0.1 2.1 0.2 2 0.2 1.8 0.3 1.7 0.3 1.5 0.4 1.4 0.5 1.3 0.5 1.2 0.6 1.1 0.7 1 0.7 0.9 0.8 0.8 0.9 0.7 1 0.6 1.1 0.5 1.2 0.5 1.3 0.4 1.4 0.4 1.5 0.3 1.6 0.3 1.7 0.2 1.8 0.2 1.9 0.2 2 0.1 2.1 0.1 2.2 0.1 2.3 0.1 2.4 0.1 2.6 0.1 2.9 0.1 3.1 0.1 3.3 0.2 3.5 0.2 3.7 0.3 3.9 0.3 4.1 0.4 4.2 0.5 4.4 0.6 4.6 0.6 4.7 0.7 4.8 0.8 4.9 0.8 4.9 0.8 5 0.9 5 0.9 5 0.9 5 1 5.1 1.2 5.3 1.5 5.5 1.7 5.6 1.9 5.8 2.4 6 2.8 6.2 3.2 6.4 3.4 6.5 3.5 6.6 3.6 6.6 3.7 6.7 3.7 6.7 3.8 6.8 3.9 6.8 3.9 6.9 3.9 6.9 3.9 6.9 3.9 7 4 7 4 7 4 7.1 4.1 7.2 4.1 7.2 4.1 7.3 4.1 7.4 4.1 7.4 4.1 7.5 4.1 7.6 4.1 7.6 4.1 7.7 4.1 7.7 4.1 7.8 4.1 7.9 4.1 7.9 4 8 4 8 4 8 4 8.1 3.9 8.1 3.9 8.2 3.9 8.2 3.8 8.2 3.8 8.2 3.8 8.3 3.7 8.3 3.7 8.3 3.6 8.3 3.6 8.3 3.6 8.3 3.6 8.3 3.5 8.3 3.5 8.4 3.5 8.4 3.5 8.4 3.5 8.4 3.4 8.4 3.4 8.3 3.3 8.3 3.2 8.3 3.1 8.3 3.1 8.3 3.1 8.3 3 8.3 3 8.3 3 8.2 3 8.2 2.9 8.2 2.9 8.2 2.9 8.2 2.9 8.2 2.9 8.2 2.8 8.1 2.8 8.1 2.8 8.1 2.8 8.1 2.8 8.1 2.8 8 2.8 8 2.7 8 2.7 8 2.7 7.9 2.7 7.9 2.7 7.9 2.7 7.8 2.7 7.7 2.7 7.7 2.7 7.6 2.6 7.5 2.6 7.4 2.7 6.8 0 6.8 0 8.1 0 8.1 0 8.2 0 8.3 0 8.3 0 8.4 0.1 8.4 0.1 8.5 0.1 8.5 0.1 8.6 0.1 8.7 0.2 8.7 0.2 8.8 0.2 8.8 0.2 8.9 0.3 9 0.4 9.1 0.4 9.2 0.5 9.3 0.6 9.3 0.7 9.4 0.8 9.5 0.9 9.6 1 9.6 1.2 9.7 1.3 9.8 1.4 9.8 1.5 9.9 1.8 10 2.1 10 2.4 10.1 2.7 10.2 3 10.2 3.3 10.2 3.6 10.2 3.9 10.2 4.2 10.1 4.5 10.1 4.8 10 4.9 9.9 5.1 9.9 5.2 9.8 5.3 9.8 5.4 9.7 5.6 9.7 5.7 9.6 5.8 9.5 5.9 9.4 6 9.3 6.1 9.3 6.2 9.2 6.3 9.1 6.4 9 6.4 8.9 6.5 8.7 6.6 8.6 6.6 8.5 6.7 8.4 6.7 8.3 6.7 8.1 6.7 8 6.8 7.6 6.8 7.3 6.8 6.9 6.7 6.7 6.7 6.5 6.7 6.4 6.7 6.3 6.7 6.2 6.6 6 6.6 5.9 6.5 5.8 6.5 5.7 6.5 5.6 6.4 5.6 6.4 5.5 6.3 5.4 6.3 5.3 6.2 5.2 6.1 5.2 6.1 5.1 6 5 5.9 5 5.9 4.9 5.8 4.9 5.6 4.8 5.5 4.7 5.3 4.6 5.2 4.5 4.8 4.3 4.1 4 3.9 3.9 3.8 3.8 3.6 3.7 3.4 3.6 3.3 3.5 3.1 3.4 3 3.3 3 3.2 2.9 3.1 2.8 3 2.8 3 2.8 2.9 2.7 2.8 2.7 2.8 2.7 2.7 2.7 2.6 2.7 2.6 2.7 2.6 2.7 2.5 2.7 2.5 2.7 2.5 2.7 2.5 2.7 2.4 2.7 2.4 2.7 2.4 2.7 2.4 2.7 2.3 2.7 2.3 2.7 2.3 2.8 2.3 2.8 2.3 2.8 2.2 2.8 2.2 2.8 2.2 2.8 2.2 2.8 2.2 2.9 2.1 2.9 2.1 2.9 2.1 2.9 2 3 2 3 2 3 2 3.1 1.9 3.1 1.9 3.2 1.9 3.2 1.9 3.2 1.9 3.3 1.9 3.3 1.9 3.3 1.9 3.4 1.9 3.4 1.9 3.5 1.9 3.6 1.9 3.7 1.9 3.7 1.9 3.8 1.9 3.8 1.9 3.8 1.9 3.8 2 3.9 2 3.9 2 3.9 2 3.9 2 4 2 4 2 4 2.1 4 2.1 4 2.1 4 2.1 4.1 2.1 4.1 2.1 4.1 2.2 4.1 2.2 4.1 2.2 4.1 2.2 4.1 2.3 4.1 2.3 4.1 2.3 4.2 2.4 4.2 2.4 4.2 2.5 4.2 2.6 4.2 2.7 4.2 3.3 6.6 3.3 6.6 2 6.6 1.9 6.6 1.8 6.6 1.8 6.6 1.7 6.5 1.6 6.5 1.6 6.5 1.5 6.5 1.4 6.5 1.4 6.4 1.3 6.4 1.3 6.4 1.2 6.4 1.2 6.3 1.1 6.3 1.1 6.3 1 6.2 1 6.2 0.9 6.1 0.9 6.1 0.8 6 0.8 5.9 0.7 5.8 0.6 5.7 0.6 5.6 0.5 5.4 0.4 5.3 0.4 5.2 0.3 4.9 0.3 4.6 0.2 4.4 0.1 4.1 0.1 3.8 0.1 3.3 0"/><polygon class="cls-1" points="67 10.6 67.3 10.6 67.6 10.6 67.8 10.5 68.1 10.5 68.3 10.5 68.5 10.4 68.6 10.4 68.7 10.4 68.8 10.3 68.9 10.3 68.9 10.2 69 10.2 69.1 10.2 69.2 10.1 69.2 10.1 69.3 10 69.3 10 69.4 9.9 69.5 9.9 69.5 9.8 69.5 9.8 69.6 9.7 69.6 9.6 69.7 9.6 69.7 9.5 69.7 9.5 69.8 9.4 69.8 9.4 69.8 9.2 69.9 9.1 69.9 9 69.9 8.8 70 8.7 70 8.6 70 8.5 70 8.2 70 8 70 7.5 70 5 66.9 5 66.9 6.3 67.5 6.3 67.5 8 67.5 8 67.5 8 67.5 8.1 67.5 8.1 67.5 8.1 67.5 8.2 67.5 8.2 67.4 8.2 67.4 8.3 67.4 8.3 67.4 8.3 67.4 8.3 67.4 8.4 67.3 8.4 67.3 8.4 67.3 8.4 67.3 8.5 67.2 8.5 67.2 8.5 67.2 8.5 67.2 8.5 67.1 8.6 67.1 8.6 67.1 8.6 67 8.6 67 8.6 67 8.6 67 8.6 66.9 8.6 66.9 8.6 66.9 8.6 66.8 8.6 66.8 8.6 66.7 8.6 66.7 8.6 66.7 8.6 66.6 8.6 66.6 8.6 66.6 8.6 66.6 8.6 66.5 8.6 66.5 8.6 66.5 8.5 66.4 8.5 66.4 8.5 66.4 8.5 66.4 8.5 66.3 8.4 66.3 8.4 66.3 8.4 66.3 8.4 66.3 8.3 66.2 8.3 66.2 8.3 66.2 8.3 66.2 8.2 66.2 8.2 66.2 8.2 66.2 8.1 66.2 8.1 66.1 8.1 66.1 8 66.1 8 66.1 8 66.1 2.7 66.1 2.6 66.1 2.6 66.1 2.6 66.2 2.5 66.2 2.5 66.2 2.5 66.2 2.4 66.2 2.4 66.2 2.4 66.2 2.3 66.2 2.3 66.3 2.3 66.3 2.3 66.3 2.2 66.3 2.2 66.3 2.2 66.4 2.2 66.4 2.1 66.4 2.1 66.4 2.1 66.5 2.1 66.5 2.1 66.5 2 66.6 2 66.6 2 66.6 2 66.6 2 66.7 2 66.7 2 66.7 2 66.8 2 66.8 2 66.9 2 66.9 2 66.9 2 67 2 67 2 67 2 67 2 67.1 2 67.1 2 67.1 2.1 67.2 2.1 67.2 2.1 67.2 2.1 67.2 2.1 67.3 2.2 67.3 2.2 67.3 2.2 67.3 2.2 67.4 2.3 67.4 2.3 67.4 2.3 67.4 2.3 67.4 2.4 67.4 2.4 67.5 2.4 67.5 2.5 67.5 2.5 67.5 2.5 67.5 2.6 67.5 2.6 67.5 2.6 67.5 2.7 67.5 3.5 70 3.5 70 2.5 70 2.3 70 2.3 70 2.2 70 2.1 69.9 2.1 69.9 2 69.9 1.9 69.9 1.9 69.9 1.8 69.9 1.8 69.8 1.7 69.8 1.6 69.8 1.6 69.7 1.5 69.6 1.4 69.6 1.3 69.5 1.2 69.4 1.1 69.3 1 69.2 0.9 69.1 0.9 69 0.8 68.9 0.7 68.8 0.7 68.6 0.6 68.5 0.6 68.4 0.5 68.2 0.5 68 0.4 67.7 0.3 67.4 0.3 67.1 0.2 66.8 0.2 66.5 0.2 66.2 0.3 65.9 0.3 65.6 0.4 65.3 0.5 65.2 0.5 65.1 0.5 64.9 0.6 64.8 0.7 64.7 0.7 64.6 0.8 64.5 0.9 64.4 0.9 64.3 1 64.2 1.1 64.1 1.2 64 1.3 63.9 1.4 63.9 1.5 63.8 1.6 63.8 1.6 63.7 1.7 63.7 1.7 63.7 1.8 63.7 1.8 63.7 1.9 63.6 2 63.6 2 63.6 2.1 63.6 2.1 63.6 2.2 63.6 2.3 63.6 2.4 63.6 8.4 63.6 8.5 63.6 8.6 63.6 8.6 63.6 8.7 63.6 8.8 63.6 8.9 63.7 9 63.7 9 63.7 9.1 63.7 9.2 63.8 9.2 63.8 9.3 63.8 9.4 63.9 9.4 63.9 9.5 63.9 9.5 64 9.6 64 9.6 64.1 9.7 64.1 9.7 64.2 9.8 64.2 9.8 64.3 9.9 64.4 10 64.5 10.1 64.7 10.1 64.8 10.2 64.9 10.3 65.1 10.3 65.2 10.4 65.3 10.4 65.6 10.5 65.9 10.5 66.2 10.5 66.5 10.6 66.7 10.6 67 10.6"/></g></g></svg>