<svg xmlns="http://www.w3.org/2000/svg" viewBox="0 0 70.01 14.51"><defs><style>.cls-1{fill:#fffef8;}</style></defs><g id="Layer_2" data-name="Layer 2"><g id="Layer_1-2" data-name="Layer 1"><g id="_8ByEPe" data-name="8ByEPe"><path class="cls-1" d="M8.41,2.9H2.81V5.6a23.48,23.48,0,0,1-2.6.1A22.19,22.19,0,0,1,.11.4,55.37,55.37,0,0,1,8.41.3Z"/><path class="cls-1" d="M8.41,14.1H.11V11.5h5.6V8.8h2.7Z"/><path class="cls-1" d="M38.21,9.2h1.1c.3,1,.6,1.9.8,2.8h.1c.2-1.1.5-2.2.8-3.3h1.1c-.4,1.9-.8,3.8-1.2,5.6h-1.2c-.3-1-.6-2-.9-3.2a22.59,22.59,0,0,1-1,3.1h-1.2c-.4-1.8-.8-3.7-1.2-5.6h1.1c.2,1.1.5,2.2.7,3.3h.1Q37.76,10.7,38.21,9.2Z"/><path class="cls-1" d="M27.71,14.3h-1.1c.2-1-.5-1.6-1-2.2s-.9-1-1.5-1.7v3.9H23V8.8a1.29,1.29,0,0,1,1.6.5,19.36,19.36,0,0,0,2,2.1V8.8h1.1Z"/><path class="cls-1" d="M34.41,11.4a10.46,10.46,0,0,1-.4,1.7,2.42,2.42,0,0,1-2.5,1.4,2.35,2.35,0,0,1-2.1-2.2,4.3,4.3,0,0,1,0-1.6,2.36,2.36,0,0,1,2.7-2.2,2.44,2.44,0,0,1,2.3,2.5c-.1.1-.1.2,0,.4Zm-1.3.1a5.27,5.27,0,0,0-.3-1.2,1.09,1.09,0,0,0-1-.7,1,1,0,0,0-1,.7,3.93,3.93,0,0,0,0,2.4,1,1,0,0,0,1,.8,1,1,0,0,0,1-.7C32.91,12.3,33,11.9,33.11,11.5Z"/><path class="cls-1" d="M54.21,8.6a24.3,24.3,0,0,1,2.7,0,2.13,2.13,0,0,1,1.8,1.6,2.49,2.49,0,0,1,.1.8c.2,2.3-1,3.4-3.1,3.2h-1.5Zm1.2,4.5c1.2.2,1.6.1,1.9-.5a3.34,3.34,0,0,0-.1-2.6c-.5-.6-1.2-.4-1.8-.3Z"/><path class="cls-1" d="M52.21,10.9V12h-2.3v1.3h2.7v1h-3.9V8.7h3.9v1H50v1.2Z"/><path class="cls-1" d="M66.11,8.7h3.8v1h-2.7v1.2h2.4v1h-2.4v1.2h2.7a4.1,4.1,0,0,0,.1,1.1h-3.9Z"/><path class="cls-1" d="M28,5.7h-1.2a5.74,5.74,0,0,0-.4-.7H24a2.09,2.09,0,0,1-.4.6h-1.2c.8-1.9,1.5-3.7,2.2-5.6h1.2C26.51,1.9,27.21,3.8,28,5.7Zm-3.7-1.8H26c-.3-.7-.5-1.4-.8-2.2A20.36,20.36,0,0,0,24.31,3.9Z"/><path class="cls-1" d="M21.11.1V1.2h-2.2c-.4,0-.7.2-.7.6s.3.6.7.6h.9a1.66,1.66,0,0,1,1.8,1.7,1.69,1.69,0,0,1-1.7,1.7h-2.7v-1h2.6c.4,0,.7-.1.7-.5s-.2-.6-.7-.6h-.9A1.83,1.83,0,0,1,17.21,2,1.65,1.65,0,0,1,18.71.3,8.6,8.6,0,0,1,21.11.1Z"/><path class="cls-1" d="M18.21,11.8v2.4H17V8.6h1.1V11c1.1-.6,1.3-1.7,2.1-2.4h1.2c-.7,1-1.3,1.9-2,2.8l2.1,2.7c-1,.3-1.2.3-1.7-.4l-1.1-1.4C18.71,12.2,18.51,12.1,18.21,11.8Z"/><path class="cls-1" d="M64.21,8.6V9.7h-1.3c-1.2,0-1.5.4-1.6,1.5v.6c.1,1.2.8,1.7,2,1.2,0-.5.1-.9.1-1.5h1.1v2.1a2.73,2.73,0,0,1-4-.3,4,4,0,0,1,0-3.8,2.45,2.45,0,0,1,1.7-1.1A6.17,6.17,0,0,0,64.21,8.6Z"/><path class="cls-1" d="M31.11,5.7h-1.2V1.2a9.7,9.7,0,0,0-1.7-.1V.1h4.5v1c-.5,0-1,.1-1.7.1C31.11,2.7,31.11,4.2,31.11,5.7Z"/><path class="cls-1" d="M44.71,13.2h2.5v1.1h-3.7V8.7h1.1C44.71,10.2,44.71,11.6,44.71,13.2Z"/><path class="cls-1" d="M14.11,11.5v2.6h-2.6V11.5Z"/><path class="cls-1" d="M34.71,4.8v.9h-1V4.8Z"/></g></g></g></svg>