<svg xmlns="http://www.w3.org/2000/svg" viewBox="0 0 70.07 25.32"><defs><style>.cls-1{fill:#fffef8;}</style></defs><g id="Layer_2" data-name="Layer 2"><g id="Layer_1-2" data-name="Layer 1"><g id="_4gk3OL" data-name="4gk3OL"><path class="cls-1" d="M64.4,1V4.2c0,.1.1.2.2.3s.2-.1.3-.1c.3-.5.6-.9.9-1.4s.5-.6.9-.1.7.4,1.2.3a2.35,2.35,0,0,1,.8-.2c.7-.2.7-.2.6.5a2.2,2.2,0,0,1-.1.8c0,.4.1.7.5.8.6.2.3.3.1.6a14.62,14.62,0,0,0-1.6,1.9A1.23,1.23,0,0,0,68,9.2c.2.4.1.5-.3.5a19.27,19.27,0,0,0-2.4.1c-.6,0-.6.2-.5.8s.2,1.2.3,1.9c0,.1-.2.3-.3.4-.1-.1-.3-.2-.3-.4-.1-.5-.1-1.1-.2-1.6-.2-.7-.2-.7-.9-.5-.5.2-1.1.5-1.6.7a4.88,4.88,0,0,1-.7.3c-.3.1-.6,0-.5-.4.1-.6-.3-.8-.8-1-1.1-.5-2.1-1-3.2-1.5-.3-.1-.3-.3,0-.5s.4-.4.2-.7S56.3,6.4,56,6s-.1-.5.3-.4a1.42,1.42,0,0,1,.6.2c.5.1,1,.1,1.2-.6.1-.4.3-.3.6-.1a5.67,5.67,0,0,0,1.3.8c.1.1.4,0,.6.1V5.5a21.16,21.16,0,0,0-1.1-2.1l-.3-.6c-.1-.3-.2-.5.3-.4,1.1.2,1.1.2,1.5-.8,0-.1.1-.2.1-.3.2-.4.4-.8.6-1.3a7,7,0,0,1,.8,1c.6.5.7.6,1.9,0Z"/><path class="cls-1" d="M.2,9.6V8.1a.22.22,0,0,1,.2-.2.22.22,0,0,1,.2.2v.2c.3,2.2,2.4,2.9,4.2,2.4A2.8,2.8,0,0,0,6,9.9,1.27,1.27,0,0,0,6,8.1,8.06,8.06,0,0,0,4.2,6.9L1.5,5.7A2.36,2.36,0,0,1,.3,2.9,2.47,2.47,0,0,1,2.5,1.2a4.81,4.81,0,0,1,2.9.4c.2.1.4.3.7,0,.5-.4.6-.3.6.2V3.9c0,.1-.2.2-.3.3-.1-.1-.2-.1-.2-.2a.37.37,0,0,1-.1-.3A2.81,2.81,0,0,0,2.8,1.9a4.18,4.18,0,0,0-1,.4,1.23,1.23,0,0,0,0,2.2,10.08,10.08,0,0,0,1.8.9c.9.4,1.7.8,2.5,1.2A2.09,2.09,0,0,1,7.2,8.2a2.5,2.5,0,0,1-2,3.1,5.27,5.27,0,0,1-3.7-.4c-.4-.2-.7-.4-1,.2,0,.1-.2.1-.4.2,0-.1-.1-.2-.1-.3A3.18,3.18,0,0,0,.2,9.6Z"/><path class="cls-1" d="M61.1,19.6v3.8c0,.6.1,1,.8,1.1.1,0,.2.2.3.3a.76.76,0,0,1-.4.2c-.6-.1-1.2.3-1.7-.2-.1-.1-.3,0-.4.1a5.64,5.64,0,0,1-1.2.4c-2.1.2-3.4-.8-3.7-3.3a4.17,4.17,0,0,1,.6-2.7,3,3,0,0,1,4.3-.9c.1.1.3.2.4.3,0-.2.1-.3.1-.5V17c0-.6,0-1.2-.9-1.2-.1,0-.2-.2-.3-.3a1.38,1.38,0,0,1,.4-.3c1.6-.4,1.8-.2,1.8,1.3C61.1,17.5,61.1,18.6,61.1,19.6Zm-.9,2c-.1-.5-.2-1.1-.3-1.6a2,2,0,0,0-1.5-1.4,1.81,1.81,0,0,0-2,.8,4.08,4.08,0,0,0,.2,4.6,1.87,1.87,0,0,0,3.2-.7A10.46,10.46,0,0,0,60.2,21.6Z"/><path class="cls-1" d="M53.3,5.9V9.4c0,.7,0,1.3.9,1.4.1,0,.2.2.2.2s-.2.3-.3.3c-.6-.1-1.3.4-1.7-.4a2,2,0,0,1-.5.1,3.16,3.16,0,0,1-4-.5A4.66,4.66,0,0,1,48,4.7a2.91,2.91,0,0,1,3.8-.2.76.76,0,0,0,.5.2V3c0-.7-.1-1.2-.9-1.3-.1,0-.1-.1-.2-.2l.3-.3c1.7-.2,1.7-.8,1.7,1.3C53.3,3.9,53.3,4.9,53.3,5.9Zm-.8,1.9a8,8,0,0,0-.3-1.5,2.08,2.08,0,0,0-1.6-1.4,2,2,0,0,0-1.9.8,3.73,3.73,0,0,0,.2,4.7,2,2,0,0,0,3.3-.9A10.1,10.1,0,0,0,52.5,7.8Z"/><path class="cls-1" d="M19.8,20c.1-.6.2-1.2.3-1.7.8-3,3.5-3.9,6.3-3,.3.1.5.3.7.3a.75.75,0,0,0,.5-.1c.6-.3.6-.3.6.3v2a.22.22,0,0,1-.2.2c-.1,0-.2-.1-.3-.1a.76.76,0,0,1-.2-.4,2.91,2.91,0,0,0-3-1.9,3.13,3.13,0,0,0-2.9,1.7,5.3,5.3,0,0,0-.2,4.9,3.73,3.73,0,0,0,4.6,2,3.14,3.14,0,0,0,1.7-1.5,5.94,5.94,0,0,1,.4-.8.19.19,0,0,1,.3-.1c.1.1.2.2.2.3v.2a4,4,0,0,1-3.6,3C21.6,25.6,19.7,23,19.8,20Z"/><path class="cls-1" d="M23,8.3v1.9c0,.5.3.6.7.3.2-.1.3-.5.5-.1a.64.64,0,0,1,0,.6,1,1,0,0,1-1.9,0c-.2-.4-.3-.4-.7-.1a3.31,3.31,0,0,1-2.9.7,2,2,0,0,1-1.5-1.4,2,2,0,0,1,.5-2.1A4.42,4.42,0,0,1,20.1,7c.5-.1.9-.1,1.4-.2s.5-.3.4-.7a1.84,1.84,0,0,0-2.1-1.4,2.35,2.35,0,0,0-.8.2c-.3.1-.5.2-.3.6a.6.6,0,0,1,.1.4c-.1.3-.2.6-.6.6a.67.67,0,0,1-.7-.5A1.19,1.19,0,0,1,18,4.7a3.8,3.8,0,0,1,4.1-.1,2.52,2.52,0,0,1,.9,2V8.3Zm-1,.2c0-1.1-.1-1.2-1.1-1a3.54,3.54,0,0,0-1.1.3,3.53,3.53,0,0,0-1.3.8,1.34,1.34,0,0,0,.5,2.1A2.35,2.35,0,0,0,22,8.5Z"/><path class="cls-1" d="M65.9,17.8h.3c1.8,0,2.6.8,2.6,2.6v3.3c.1.6.2.6.8.3.1-.1.3-.4.4-.1a.45.45,0,0,1,0,.5c-.5,1-1.4,1-2.1.1-.2-.3-.3-.3-.5-.1a3.53,3.53,0,0,1-2.6.8A2,2,0,0,1,63.1,24a2.18,2.18,0,0,1,.4-2.3,4.12,4.12,0,0,1,2.1-1,11.14,11.14,0,0,1,1.7-.2c.4,0,.5-.2.4-.6a1.82,1.82,0,0,0-2.3-1.5c-.8.1-.9.2-.9,1a.71.71,0,0,1-.7.8.77.77,0,0,1-.7-.8,2.47,2.47,0,0,1,.4-.9A4.06,4.06,0,0,1,65.9,17.8Zm2,4.4v-.6a.45.45,0,0,0-.3-.4,4.05,4.05,0,0,0-3,.8,1.39,1.39,0,0,0-.4,1.5c.1.6.6.8,1.1.9A2.21,2.21,0,0,0,67.9,22.2Z"/><path class="cls-1" d="M33.2,17.8a2.77,2.77,0,0,1,.9.1A2.15,2.15,0,0,1,36,20v3.7c.1.6.3.7.8.4.2-.1.3-.3.5-.1s.1.4.1.5a1.08,1.08,0,0,1-2,.1c-.2-.3-.3-.4-.6-.1a3.09,3.09,0,0,1-2.6.7,1.54,1.54,0,0,1-1.6-1.1,2,2,0,0,1,.3-2.2,3.86,3.86,0,0,1,2.2-1.1,8.75,8.75,0,0,1,1.6-.2c.6-.1.7-.2.6-.7a1.39,1.39,0,0,0-1-1.2,2.48,2.48,0,0,0-1.7,0c-.4.1-.7.2-.4.7a.66.66,0,0,1-.3.9.61.61,0,0,1-.6-.1.69.69,0,0,1-.3-1,1.88,1.88,0,0,1,1.6-1.1C32.5,17.8,32.9,17.8,33.2,17.8Zm1.9,4.4v-.6c-.1-.1-.2-.4-.3-.4a4.35,4.35,0,0,0-2.9.7,1.42,1.42,0,0,0-.5,1.6,1.44,1.44,0,0,0,1.1.9A2.21,2.21,0,0,0,35.1,22.2Z"/><path class="cls-1" d="M49.9,17.8a2.77,2.77,0,0,1,.9.1,2,2,0,0,1,1.7,2,26.15,26.15,0,0,1,0,2.8v.9c.1.7.2.7.9.4a.3.3,0,0,1,.4,0c.1,0,.1.2.1.3a1.06,1.06,0,0,1-.9.9,1,1,0,0,1-1.2-.5c-.2-.5-.4-.4-.7-.1a3.14,3.14,0,0,1-2.8.6,1.8,1.8,0,0,1-1.5-1.5,1.9,1.9,0,0,1,.8-2.2,8.86,8.86,0,0,1,1.7-.8,8,8,0,0,1,1.5-.3c.9-.1,1.1-.3.7-1.1a1.21,1.21,0,0,0-.7-.7,2.44,2.44,0,0,0-2.2,0,.76.76,0,0,0-.2.4c0,.1.1.2.1.3,0,.5-.3.8-.6.8s-.9-.5-.7-.9a2.07,2.07,0,0,1,.6-1A3.61,3.61,0,0,1,49.9,17.8Zm.9,3.4a3.89,3.89,0,0,0-2.3.7,1.42,1.42,0,0,0-.5,1.6,1.52,1.52,0,0,0,1.3,1,2.34,2.34,0,0,0,2.5-2.4C51.8,21.2,51.8,21.2,50.8,21.2Z"/><path class="cls-1" d="M44.8,21.9v1.2c0,.7,0,1.4,1,1.5.1,0,.2.2.2.3a.22.22,0,0,1-.2.2H43.2c-.1,0-.2-.1-.3-.2.1-.1.1-.3.2-.3.9-.1.9-.8.9-1.5V20.4a1.62,1.62,0,0,0-1-1.6,1.84,1.84,0,0,0-2,.3,1.88,1.88,0,0,0-.8,1.7,22.55,22.55,0,0,1,0,2.6c0,.6,0,1,.7,1.2.1,0,.1.2.2.2-.1.1-.2.2-.3.2H38.4c-.1,0-.2-.1-.3-.2l.3-.3c.7-.1.8-.5.8-1.1V19.7c0-.6,0-1.2-.9-1.2a.2.2,0,0,1,0-.4c.4-.1.9-.1,1.3-.2s.6,0,.6.5.2.3.4.1a3.63,3.63,0,0,1,1.7-.7,2.39,2.39,0,0,1,2.6,2.3,10.87,10.87,0,0,0-.1,1.8Z"/><path class="cls-1" d="M38,7.9a3.55,3.55,0,0,1-3.2,3.7,3.17,3.17,0,0,1-3.4-2,4.59,4.59,0,0,1,.1-3.8A3.09,3.09,0,0,1,34.6,4a3,3,0,0,1,2.9,1.9C37.7,6.6,37.8,7.3,38,7.9Zm-1.3,0a3.62,3.62,0,0,0-.6-2.3,2.06,2.06,0,0,0-3.3,0c-.8,1-.9,3.6.3,4.7a1.79,1.79,0,0,0,2.8,0A3.07,3.07,0,0,0,36.7,7.9Z"/><path class="cls-1" d="M46,7.6c-.2,2.8-1.3,3.8-3.1,4a3.1,3.1,0,0,1-3.4-2,4.59,4.59,0,0,1,.1-3.8A2.92,2.92,0,0,1,42.4,4a3.11,3.11,0,0,1,3,1.7C45.7,6.4,45.8,7.2,46,7.6Zm-1.1.2a11.69,11.69,0,0,0-.6-2,2.06,2.06,0,0,0-3.6-.1,4.61,4.61,0,0,0,.2,4.4,1.87,1.87,0,0,0,3.2-.1A3.9,3.9,0,0,0,44.9,7.8Z"/><path class="cls-1" d="M12.8,7.8H10.6c-.5,0-.6.2-.5.7a2.81,2.81,0,0,0,1.6,2.3,2.67,2.67,0,0,0,2.9-.8c.2-.2.3-.7.7-.4s0,.7-.2.9a3.41,3.41,0,0,1-3.3,1.2A3.09,3.09,0,0,1,9.2,9.4,4,4,0,0,1,10,5.2a3.15,3.15,0,0,1,3.4-.9,3.23,3.23,0,0,1,2.2,2.9c0,.4-.2.6-.5.6a8.85,8.85,0,0,0-2.3,0Zm-.5-.6h1.5c.5,0,.6-.1.6-.6a2,2,0,0,0-2-1.8,2.44,2.44,0,0,0-2.2,2c0,.3.1.5.4.5A9.15,9.15,0,0,1,12.3,7.2Z"/><path class="cls-1" d="M26.3,7.7V5.8c0-.6,0-.9-.8-.9h-.3l-.3-.3c.1-.1.2-.2.3-.2h.1c.8-.1.8-.1.9-1a2.14,2.14,0,0,1,2.1-2.2,2.3,2.3,0,0,1,1.4.4.89.89,0,0,1,.5.8.73.73,0,0,1-.6.9c-.5.1-.8-.3-.8-.8a.75.75,0,0,1,.1-.5c-.3,0-.6-.1-.8,0-.7.2-.9.8-1,1.5-.1,1.2.1,1,.9,1,.4,0,.9-.3,1.1.3A4.25,4.25,0,0,1,28,5c-.9.1-.9,0-.9.9V9.7c0,.7.1,1.2.9,1.3.1,0,.2.2.3.3a.52.52,0,0,1-.4.2H25.3c-.1,0-.2-.2-.3-.3s.1-.3.2-.3c1.1-.1,1-.8,1-1.5A10.28,10.28,0,0,0,26.3,7.7Z"/><path class="cls-1" d="M14.3,21.4c.1.4.1.8.2,1.1,0,.1.1.3.1.4h-.9a.9.9,0,0,1,.1-.5,4.88,4.88,0,0,0,0-2.4c-.2-.6-.7-.7-1.1-.2a1,1,0,0,0-.4.7v1.9a1.42,1.42,0,0,0,.2.6h-1v-.3a3.73,3.73,0,0,0,0-3.1c-.2-.4.2-.3.2-.3a2.57,2.57,0,0,0,1.5-.1c.4-.1.8.4,1.2.4s.8-.4,1.2-.4a.86.86,0,0,1,.9.7c.1.4.1.8.2,1.3a5.7,5.7,0,0,0,.1,1.3c.1.6.2.6-.4.6s-.4-.1-.3-.6a5.43,5.43,0,0,0,0-2.2.9.9,0,0,0-.6-.6,1.13,1.13,0,0,0-.8.5C14.3,20.5,14.4,21,14.3,21.4Z"/><path class="cls-1" d="M7.1,21.1c0-1.2.6-2,1.7-2a2,2,0,0,1,1.9,2,1.87,1.87,0,0,1-1.9,2C7.6,23.1,7.1,22.4,7.1,21.1ZM10,21a1.23,1.23,0,0,0-.2-.7,1.09,1.09,0,0,0-1-.7,1,1,0,0,0-1,.7,2.92,2.92,0,0,0-.2.9,1.77,1.77,0,0,0,1.2,1.7A1.86,1.86,0,0,0,10,21Z"/><path class="cls-1" d="M1.4,21.3V20.1a.76.76,0,0,0-.2-.5c-.5-.2-.6-.2,0-.4.2-.1.2-.4.3-.7a1.21,1.21,0,0,1,1.6-.9,2.19,2.19,0,0,1,.5.3.61.61,0,0,1-.1.6c-.2.2-.4.1-.5-.2s-.1-.6-.4-.4a1.37,1.37,0,0,0-.5.8c-.1.3.1.4.4.4h.4c.1,0,.1.1.2.1l-.2.2c-.7.2-.8.2-.7,1s-.3,1.5.3,2.2l-.1.3H1.6c-.1,0-.2-.3-.2-.3C1.6,22.3,1.3,21.7,1.4,21.3Z"/><path class="cls-1" d="M4.4,21c-.1-.4-.1-.8-.2-1.3a.76.76,0,0,0-.2-.4,1,1,0,0,0,.4-.1c.4.4.8.2,1.3,0s.8-.2,1,.2a.3.3,0,0,1,0,.4.6.6,0,0,1-.4.1c-.2-.1-.3-.6-.7-.3s-.7.6-.7,1c-.1.7-.3,1.4.4,2l-.1.3H4.6c-.5,0-.8.1-.3-.6C4.4,22.1,4.3,21.5,4.4,21Z"/><path class="cls-1" d="M64.4,1.1l.1-.1-.1.1c.1-.1,0-.1,0,0Z"/></g></g></g></svg>