<svg xmlns="http://www.w3.org/2000/svg" viewBox="0 0 69.87 35.55"><defs><style>.cls-1{fill:#fffef8;}</style></defs><g id="Layer_2" data-name="Layer 2"><g id="Layer_1-2" data-name="Layer 1"><path class="cls-1" d="M68.07,11.65a22,22,0,0,0-8.5-6.6A48,48,0,0,0,44.27.65a48.87,48.87,0,0,0-6.6-.5,22.61,22.61,0,0,0-5.2,0h-1.2a.76.76,0,0,0-.1.4.76.76,0,0,1,.1-.4,48.34,48.34,0,0,0-9.2,1.2,16.28,16.28,0,0,0-3,.7,41.46,41.46,0,0,0-9.6,3.7h0a17.72,17.72,0,0,0-4.6,3.1,12.8,12.8,0,0,0-4.6,6.8,9.78,9.78,0,0,0,2.4,8.9,24,24,0,0,0,9,6.4,52.41,52.41,0,0,0,16,4.1,35.53,35.53,0,0,0,4.6.3c.1,0,.3,0,.3.2h.5c.3-.3.7-.1,1-.1a58.78,58.78,0,0,0,22-3.6,26.93,26.93,0,0,0,10.4-6.5,13.3,13.3,0,0,0,3.2-5.5c0-.1,0-.4.2-.4v-3.2A10.1,10.1,0,0,0,68.07,11.65Zm-49.8,8.8a3.56,3.56,0,0,1-1.6,2.2,6.18,6.18,0,0,1-2.7.9,7.3,7.3,0,0,1-6.3-1.9A10.92,10.92,0,0,1,9,20c.3-.3.4.1.6.2a4.28,4.28,0,0,0,4.3,1.2c.8-.2,1.4-.5,1.4-1.5,0-.8-.5-1.1-1.1-1.3a7.85,7.85,0,0,0-2.2-.5c-2.7-.5-3.9-1.6-4.2-3.9a4.8,4.8,0,0,1,.5-1.7,5.45,5.45,0,0,1,3.9-2.1,8,8,0,0,1,5,1.3c.2.2.6.3.6.7-.3.3-.7.6-1,.9s-.5.5-1,.1a4.14,4.14,0,0,0-3.7-.9c-.9.2-1.2.7-1.2,1.7.1.5.5.7.9.9a7.34,7.34,0,0,0,2,.5c2.7.4,3.9,1.4,4.5,3.8A4,4,0,0,1,18.27,20.45Zm3.9,1.5v1.3h-2.4V15c0-.6.2-.8.8-.8,1.5,0,1.5,0,1.7,1.8C22.17,18,22.17,20,22.17,22ZM20,12.15c0,.1-.3,0-.4.1-.2-1.4-.7-2.7-.4-4.1a3.37,3.37,0,0,1,4.6-2.7,3.26,3.26,0,0,1,2,2.4,2.43,2.43,0,0,1-1.4,2.4,4.8,4.8,0,0,1-1.7.5C21.67,11.05,20.57,11.05,20,12.15Zm17.8,11.1h-2.4v-4.6a4.33,4.33,0,0,0-.1-1.6c0-.1,0-.3-.2-.3h0c0-.5-.4-.6-.7-.6a2.16,2.16,0,0,0-2.2,1c-.2,1.7,0,3.5-.1,5.2v1h-2.4v-3.5a6.2,6.2,0,0,0-.2-2.7c0-.9-.6-1-1.3-1s-1.7.7-1.7,1.3v3.6c0,.7.3,1.8-.1,2.2s-1.6.1-2.4.1v-8.5a.47.47,0,0,1,.5-.5h1.1c.6-.1,1,0,1,.8,2.9-1.5,4.2-1.4,5.5.5a12.67,12.67,0,0,1,1.3-1.1c2.1-.9,4-.3,4.5,1.6a5.7,5.7,0,0,1,.1,1.3A54.3,54.3,0,0,0,37.77,23.25Zm11.2-4a4.26,4.26,0,0,1-4.7,4.3,3.41,3.41,0,0,1-2.3-1.3V27h-1.7c-.7.1-.8-.3-.8-.9,0-3.8,0-7.6-.1-11.3,0-.4.2-.5.6-.5h1.9a3.44,3.44,0,0,0,.1.9,3.81,3.81,0,0,1,2.4-1.1,4.28,4.28,0,0,1,4.6,4v1.2Zm3.7,3.9c-.5.5-1.5.1-2.4.2V11.45c0-.5.1-.7.6-.6h1.5c.3,0,.4.1.4.4V21C52.77,21.65,53.17,22.65,52.67,23.15Zm11.1-7.8c-1.2,2.9-2.5,5.9-3.6,8.8a4.25,4.25,0,0,1-4.6,3.1v-.8c0-.8-.2-1.5,1.1-1.5.6,0,1-.6,1.1-1.3.1-.2.1-.4-.1-.5h0a.4.4,0,0,0-.2-.4v-.1c0-.2,0-.3-.1-.4h0c0-.1,0-.3-.2-.3h0a15.87,15.87,0,0,0-.7-2l-2.1-5.1c-.2-.4-.1-.6.4-.6,2-.1,2-.1,2.7,1.8.6,1.6,1.1,3.1,1.8,4.9q1-3,2.1-5.7c.1-.4.1-1,.6-1a4.45,4.45,0,0,1,2.3.1c.1,0,.1.2.1.3C63.87,14.75,63.87,15.05,63.77,15.35Z"/><path class="cls-1" d="M44.37,16c-1.1-.2-2.4.5-2.4,1.3v3.4a2.34,2.34,0,0,0,4-.2,3.21,3.21,0,0,0,.2-2.7A1.94,1.94,0,0,0,44.37,16Z"/></g></g></svg>