<svg xmlns="http://www.w3.org/2000/svg" viewBox="0 0 70.2 11.9"><defs><style>.cls-1{fill:#fff;}</style></defs><g id="Layer_2" data-name="Layer 2"><g id="Layer_1-2" data-name="Layer 1"><path class="cls-1" d="M11.2,3.1A6.33,6.33,0,0,0,8.9.8,5.66,5.66,0,0,0,6.1,0H5.9A6.87,6.87,0,0,0,3.5.5,5.93,5.93,0,0,0,.8,3,6.5,6.5,0,0,0,0,6.1a5.29,5.29,0,0,0,.9,3,5.78,5.78,0,0,0,2.1,2,6,6,0,0,0,2.9.8h0a2.2,2.2,0,0,0,.8-.1,5.49,5.49,0,0,0,3.1-1.4,5.94,5.94,0,0,0,1.8-2.9A4.9,4.9,0,0,0,11.2,3.1ZM6.1,2.2a.55.55,0,0,1,.5-.3,1.08,1.08,0,0,1,1.1.6.84.84,0,0,1-.4,1.1,1.06,1.06,0,0,1-1.2-.2A.91.91,0,0,1,6.1,2.2ZM7.1,4c-.1.4-.2.8-.3,1.1H5.7c.1-.4.2-.8.3-1.1ZM4.6,4H5.7c-.1.4-.2.8-.3,1.1H4.3C4.4,4.7,4.5,4.3,4.6,4ZM3.1,5.1H4.2c-.1.4-.2.8-.3,1.1H2.8C2.9,5.8,3,5.5,3.1,5.1ZM3.3,9H2.2c.1-.4.2-.8.3-1.1H3.6A6.15,6.15,0,0,0,3.3,9ZM4.7,7.9H3.5l.3-1.2H4.9A5,5,0,0,1,4.7,7.9Zm.6-1.4c.1-.4.2-.8.3-1.1H6.7c-.1.4-.2.8-.3,1.1ZM8.3,9H7.2c.1-.4.2-.8.3-1.1H6.4c.1-.4.2-.8.3-1.1H7.8c-.1.4-.2.8-.3,1.1H8.6C8.5,8.3,8.4,8.6,8.3,9ZM9.7,4H8.6c-.1.4-.2.8-.3,1.1H7.2c.1-.4.2-.8.3-1.1H8.6c.1-.4.2-.8.3-1.1H10C9.9,3.2,9.8,3.6,9.7,4Z"/><path class="cls-1" d="M18.9,3.3h1.5c-.2.6-.3,1.2-.5,1.9a2.28,2.28,0,0,1,1.2-.6,1.8,1.8,0,0,1,1,.2.71.71,0,0,1,.3.6,5,5,0,0,1-.2,1.2l-.6,2.1H20.1c.2-.7.3-1.3.5-2a1.48,1.48,0,0,0,.1-.7c0-.1-.1-.2-.2-.3a.61.61,0,0,0-.6.1,2,2,0,0,0-.4.8,14.62,14.62,0,0,0-.5,2H17.5C17.9,6.9,18.4,5.1,18.9,3.3Z"/><path class="cls-1" d="M34.1,3.3h1.5a2.92,2.92,0,0,0-.2.9H33.9A2.92,2.92,0,0,1,34.1,3.3Z"/><path class="cls-1" d="M41.6,3.3h1.5a2.92,2.92,0,0,0-.2.9H41.4A2.92,2.92,0,0,1,41.6,3.3Z"/><path class="cls-1" d="M46.6,3.3h1.5c-.5,1.8-.9,3.6-1.4,5.3H45.3c.1-.2.1-.4.2-.6a2.65,2.65,0,0,1-.6.5,1.64,1.64,0,0,1-1,.2,1.42,1.42,0,0,1-.6-.2A.55.55,0,0,1,43,8a2.77,2.77,0,0,1-.1-.9,3,3,0,0,1,.5-1.6,2.06,2.06,0,0,1,1.7-1,1.08,1.08,0,0,1,.8.2l.3.3A13.64,13.64,0,0,1,46.6,3.3ZM45.1,5.7a1,1,0,0,0-.6.5,2.92,2.92,0,0,0-.2.9v.4l.3.3a.91.91,0,0,0,.7-.3,2.19,2.19,0,0,1,.3-.5,1.48,1.48,0,0,0,.1-.7.6.6,0,0,0-.1-.4A.37.37,0,0,0,45.1,5.7Z"/><path class="cls-1" d="M49,3.3h1.5a2.92,2.92,0,0,0-.2.9H48.8A2.92,2.92,0,0,0,49,3.3Z"/><path class="cls-1" d="M54,3.3h1.5c-.5,1.8-.9,3.6-1.4,5.3H52.7c.1-.2.1-.4.2-.6a1.79,1.79,0,0,1-.7.5,1.67,1.67,0,0,1-1.2.1c-.2-.1-.5-.2-.6-.5a1.8,1.8,0,0,1-.2-1,3,3,0,0,1,.5-1.6,2,2,0,0,1,1.5-1,1.34,1.34,0,0,1,.9.2l.3.3A4.92,4.92,0,0,0,54,3.3ZM52.6,5.7a1,1,0,0,0-.6.5,2.92,2.92,0,0,0-.2.9v.3c0,.1.2.2.3.3a.91.91,0,0,0,.7-.3c.1-.2.2-.3.3-.5a1.48,1.48,0,0,0,.1-.7.6.6,0,0,0-.1-.4A.44.44,0,0,0,52.6,5.7Z"/><path class="cls-1" d="M15.7,3.9c.5-.2,1.1-.4,1.6-.6a6.47,6.47,0,0,1-.4,1.3h.8c-.1.4-.2.7-.3,1.1h-.8v.1c-.1.5-.3,1-.4,1.5,0,.1-.1.2,0,.3s.2.1.2.1c.2,0,.3-.1.5-.1-.1.3-.2.7-.3,1a7.08,7.08,0,0,1-1.4.1.55.55,0,0,1-.5-.3.75.75,0,0,1-.1-.5c0-.3.1-.5.1-.7a8.33,8.33,0,0,1,.4-1.5h-.5c.1-.4.2-.7.3-1.1h.5C15.6,4.4,15.6,4.2,15.7,3.9Z"/><path class="cls-1" d="M24.5,4.7A2.57,2.57,0,0,1,26,4.6a1.4,1.4,0,0,1,.9.3,1.16,1.16,0,0,1,.4,1A3.59,3.59,0,0,1,27.1,7h-3v.5c.1.2.2.3.4.3a.62.62,0,0,0,.7-.2h1.6a2.73,2.73,0,0,1-1.2.9,3.81,3.81,0,0,1-1.5.1,1.93,1.93,0,0,1-1-.3,1.23,1.23,0,0,1-.5-1,3.37,3.37,0,0,1,.5-1.7A6.71,6.71,0,0,1,24.5,4.7Zm.3.9a1.79,1.79,0,0,0-.5.7h1.5V5.8c0-.1-.2-.2-.3-.3A.88.88,0,0,0,24.8,5.6Z"/><path class="cls-1" d="M28.9,5A2.1,2.1,0,0,1,30,4.6a.84.84,0,0,1,.7.2,1,1,0,0,1,.4.5c.1-.2.1-.4.2-.6h1.4c-.3,1.2-.6,2.3-.9,3.5l-.3.9-.3.6a2.7,2.7,0,0,1-.8.7,6.11,6.11,0,0,1-1.3.3h-2a3.55,3.55,0,0,1,.4-.9.85.85,0,0,1,.5-.3,8.55,8.55,0,0,0,1.6,0,1,1,0,0,0,.5-.4l.3-.9c-.2.1-.3.3-.5.4a3.55,3.55,0,0,1-1,.2.86.86,0,0,1-.6-.3,2,2,0,0,1-.4-.8,2.88,2.88,0,0,1,.3-1.6A1.77,1.77,0,0,1,28.9,5Zm1.3.7a.66.66,0,0,0-.5.4,2.77,2.77,0,0,0-.3,1.3c0,.1.1.3.2.3a.78.78,0,0,0,.8-.2l.3-.6a1.13,1.13,0,0,0,.1-.8c0-.1-.1-.3-.2-.3A.25.25,0,0,0,30.2,5.7Z"/><path class="cls-1" d="M37.8,4.6a3,3,0,0,1,1.6.2,1.1,1.1,0,0,1,.6,1,3.19,3.19,0,0,1-.3,1.4,2.19,2.19,0,0,1-.9,1,2.47,2.47,0,0,1-1.9.4,1.85,1.85,0,0,1-1.2-.5,1.44,1.44,0,0,1-.3-1.3A3.51,3.51,0,0,1,36,5.4,3.33,3.33,0,0,1,37.8,4.6Zm0,1a1.28,1.28,0,0,0-.7.5,2.92,2.92,0,0,0-.2.9v.5c.1.2.2.3.4.3a1,1,0,0,0,.7-.2,1,1,0,0,0,.4-.5,2.35,2.35,0,0,0,.2-.8c0-.2,0-.4-.2-.5A.73.73,0,0,0,37.8,5.6Z"/><path class="cls-1" d="M57.8,4.6a2.54,2.54,0,0,1,1.5.3A1.25,1.25,0,0,1,59.9,6a2,2,0,0,1-.4,1.3,2.19,2.19,0,0,1-.9,1,2.47,2.47,0,0,1-1.9.4,1.43,1.43,0,0,1-1.1-.5A1.31,1.31,0,0,1,55.3,7a2.09,2.09,0,0,1,.8-1.6A2.29,2.29,0,0,1,57.8,4.6Zm-.1,1a1.79,1.79,0,0,0-.7.5,1.69,1.69,0,0,0-.3,1,.9.9,0,0,0,.1.5.52.52,0,0,0,.4.2,1.14,1.14,0,0,0,.8-.3,2.19,2.19,0,0,1,.3-.5,1.88,1.88,0,0,0,.2-.8c0-.2,0-.3-.2-.4A.73.73,0,0,0,57.7,5.6Z"/><path class="cls-1" d="M63.2,4.7a2.77,2.77,0,0,1,.9-.1.71.71,0,0,1,.6.3.76.76,0,0,1,.2.5,1.7,1.7,0,0,1-.1.7,25,25,0,0,1-.7,2.6H62.6a16,16,0,0,0,.5-2.1c0-.2.1-.4.1-.6a.22.22,0,0,0-.2-.2.66.66,0,0,0-.6.1c-.1.1-.2.3-.3.4a6.15,6.15,0,0,0-.3,1.1l-.3,1.2H60c.3-1.3.7-2.7,1-4h1.4a6.37,6.37,0,0,0-.2.7A3.33,3.33,0,0,1,63.2,4.7Z"/><path class="cls-1" d="M66,5.2a1.61,1.61,0,0,1,1.3-.6,2,2,0,0,1,.8.1,1,1,0,0,1,.5.6c.1-.2.1-.4.2-.6h1.4c-.4,1.4-.7,2.7-1.1,4.1a2.22,2.22,0,0,1-.5,1.1,1.46,1.46,0,0,1-.9.6,5,5,0,0,1-1.2.2H64.7a2.35,2.35,0,0,1,.5-1,.52.52,0,0,1,.4-.2,6.53,6.53,0,0,0,1.4,0,.55.55,0,0,0,.5-.3,3.58,3.58,0,0,0,.4-1.1c-.2.1-.3.3-.5.4a1.29,1.29,0,0,1-1.2.1,1,1,0,0,1-.7-.9,2.2,2.2,0,0,1,.2-1.4A1.13,1.13,0,0,1,66,5.2Zm1.5.4a.63.63,0,0,0-.6.5,1.23,1.23,0,0,0-.2,1c0,.2,0,.3.2.4s.5.1.8,0l.3-.3a1.85,1.85,0,0,0,.2-.7c0-.2.1-.3,0-.5a.27.27,0,0,0-.3-.3C67.8,5.6,67.7,5.6,67.5,5.6Z"/><path class="cls-1" d="M33.7,4.7h1.5c-.3,1.3-.7,2.7-1,4H32.7C33,7.3,33.4,6,33.7,4.7Z"/><path class="cls-1" d="M41.2,4.7h1.5c-.3,1.3-.7,2.7-1,4H40.2C40.5,7.3,40.8,6,41.2,4.7Z"/><path class="cls-1" d="M48.7,4.7h1.5c-.3,1.3-.7,2.7-1,4H47.7C48,7.3,48.3,6,48.7,4.7Z"/><path class="cls-1" d="M59.2,9.5c.2,0,.4-.1.6,0a.52.52,0,0,1,.2.4h-.4a.19.19,0,0,0-.3,0,.52.52,0,0,0-.2.4c0,.1,0,.2.1.2a.37.37,0,0,0,.3-.1l.1-.1H60a.78.78,0,0,1-.4.4.64.64,0,0,1-.6,0,.32.32,0,0,1-.3-.3A.72.72,0,0,1,59.2,9.5Z"/><path class="cls-1" d="M60.8,9.5a1.27,1.27,0,0,1,.6.1.76.76,0,0,1,.2.4,1.06,1.06,0,0,1-.6.7c-.2,0-.4.1-.6,0s-.2-.2-.2-.4A.65.65,0,0,1,60.8,9.5Zm0,.3c-.1,0-.2.2-.2.3v.3c.1.1.2.1.2,0s.2-.2.2-.3V9.9C61,9.7,60.9,9.7,60.8,9.8Z"/><path class="cls-1" d="M62.3,9.6a1.42,1.42,0,0,1,.6-.2c.1,0,.1.1.2.2a.52.52,0,0,1,.4-.2c.1,0,.3,0,.3.1s0,.2,0,.4-.1.5-.2.7h-.5a6.37,6.37,0,0,0,.2-.7c0-.1,0-.2-.1-.2s-.2.1-.3.2a6.37,6.37,0,0,0-.2.7h-.5c.1-.2.1-.5.2-.7s0-.1-.1-.2-.2.1-.3.2a6.37,6.37,0,0,0-.2.7h-.5l.3-1.2H62C62.3,9.5,62.3,9.6,62.3,9.6Z"/><path class="cls-1" d="M57.9,10.2a.22.22,0,0,1,.3.3.24.24,0,1,1-.3-.3Z"/></g></g></svg>