<svg xmlns="http://www.w3.org/2000/svg" viewBox="0 0 63.4 70.1"><defs><style>.cls-1{fill:#fffef8;}</style></defs><g id="Layer_2" data-name="Layer 2"><g id="Layer_1-2" data-name="Layer 1"><path class="cls-1" d="M50.9,14.4c.3,1.8,3,4.3,3.8,4.2.5,0,.7-2.4.7-4.2,0-1.1.1-1.9-.5-2.1a4.37,4.37,0,0,1-4,2.1Zm.2-.8c2,0,3.8-1.6,3.8-3a1.16,1.16,0,0,0-1.1-1.3,1.07,1.07,0,0,1,.2.6c0,1.1-1.6,2.2-3.4,2.2a.71.71,0,0,0-.8.7c0,.6.5.8,1.3.8Zm-.4-2.2a.87.87,0,0,1-.9-.4c-.2-.3-.1-.9-.4-1.2a3.08,3.08,0,0,0,.9.1c.9,0,1.7-.6,2.3-.6a.56.56,0,0,1,.6.5c0,.9-1.7,1.6-2.5,1.6ZM7.6,26.5c.7,0,.5-4,1.6-4,.3,0,.3.3.3.6,0,.9-.4,2.2-.4,3,0,.4.1.5.3.5.5,0,1.3-4.4,2.1-4.4.3,0,.4.3.4.5,0,.9-1.2,3.6-1.2,4.3,0,.1,0,.2.1.2.5,0,1.4-2.1,1.8-3.1.2-.5.4-.8.6-.8s.4.2.4.7a17.45,17.45,0,0,1-1.8,5.1c-.7,1.3-1.7,3.1-1.7,4.1a2.06,2.06,0,0,0,.8,1.7c-1.2-.1-1.7-.2-2.2-1.2-2.1,4.1,3.8,3.7,1.8,7.3-.4-.7-3.3-1.3-3.3-5.1,0-3.3,2.9-5.2,2.9-6.6a.91.91,0,0,0-.3-.7c-.6-.5-.7-1-1.2-1s-.8.8-.3,1.6c.2.3.3.4.3.6,0,.5-.8,2-1.4,2s-1.1-1.5-1.1-3.9c0-2.1.5-4.3,1.1-4.3.2,0,.2.1.2.3s-.1.7-.1,1.6.1,1,.3,1ZM37.1,7.6c.3,0,.4.8.4,1.2,0,.2.1.3.2.3s.6-.9.8-.9c.4,0,1.3,1,3,1A4.35,4.35,0,0,0,46,4.7C46,1.9,44,.3,41.3.3a14.07,14.07,0,0,0-2.7.6c-.3,0-.8-.8-1-.8s-.2.2-.2.5,0,.9-.2.9c-.5,0-2.3-1.3-2.3-.8s1.2,1.8,1.2,2.1-1.2.7-1.2.9c0,.4,1.3.5,1.3,1s-1.3,1-1.3,1.4,1.3.1,1.3.5-1,1.8-1,2.1c0,.1,0,.1.1.1.4,0,1.5-1.2,1.8-1.2ZM12.4,36.1a.77.77,0,0,1,.7-.8.71.71,0,0,1,.8.7.75.75,0,1,1-1.5.1Zm-2.2.6a1.24,1.24,0,0,0,1.4,1.1.85.85,0,0,0,.6-.2,1.13,1.13,0,0,0,1.3.9,1.24,1.24,0,0,0,1.1-1.4c0-.2-.1-.3-.1-.4h.1a1.26,1.26,0,0,0-.3-2.5c-.3.1-.5.1-.6.3a1.41,1.41,0,0,0-1.4-1,1.19,1.19,0,0,0-1.1,1.4.6.6,0,0,0,.1.4h-.1a1.35,1.35,0,0,0-1,1.4ZM53.1,1.3a.5.5,0,0,0,1,0,.47.47,0,0,0-.5-.5c-.2.1-.5.3-.5.5ZM42.4,19.6a.8.8,0,1,0,.8-.8.86.86,0,0,0-.8.8Zm0,2.4a.9.9,0,1,0,.9-.9,1,1,0,0,0-.9.9Zm-2.7,1.7A1.3,1.3,0,1,0,41,22.4a1.21,1.21,0,0,0-1.3,1.3Zm.7-2.8a.8.8,0,1,0,.8-.8c-.5.1-.8.4-.8.8Zm-2.5,1.6a.8.8,0,1,0,.8-.8.79.79,0,0,0-.8.8ZM39.8,18A1.2,1.2,0,1,0,41,16.8,1.15,1.15,0,0,0,39.8,18Zm1.5-2.4a.7.7,0,1,0,.7-.7.68.68,0,0,0-.7.7Zm-3.5,1.9a.7.7,0,1,0,.7-.7c-.4-.1-.7.3-.7.7ZM37.7,20a1.2,1.2,0,1,0,1.2-1.2A1.16,1.16,0,0,0,37.7,20Zm-2.4,1.2a1.1,1.1,0,1,0,1.1-1.1,1.11,1.11,0,0,0-1.1,1.1Zm.6-2.7a.8.8,0,0,0,1.6,0,.74.74,0,0,0-.8-.8.86.86,0,0,0-.8.8ZM33.4,46.9a.8.8,0,1,0,.8-.8.74.74,0,0,0-.8.8ZM12.7,15a.8.8,0,1,0,.8-.8.74.74,0,0,0-.8.8Zm-1.1-1.8a.8.8,0,0,0,1.6,0,.74.74,0,0,0-.8-.8.86.86,0,0,0-.8.8Zm.9,19c.8,0,1.5-.6,1.5-1.9v-2a3.34,3.34,0,0,1,.6-2.2,2.2,2.2,0,0,0-.1.8c0,1.7.9,2.8.9,4.4q0,.9-.6.9c-.4,0-.4-.4-.5-.4s-.2.3-.2.5a1,1,0,0,0,1.1,1A1.32,1.32,0,0,0,16.5,32c0-1.7-1.3-3.7-1.3-5.5a4.36,4.36,0,0,1,.4-1.8c0,3.8,3.3,6.6,3.3,8.2a.68.68,0,0,1-.7.7.67.67,0,0,1-.7-.6c0-.1,0-.2-.1-.2a1.06,1.06,0,0,0-.5.9,1.45,1.45,0,0,0,1.5,1.4,1.71,1.71,0,0,0,1.7-1.8c0-2-3.9-5.1-3.9-8.4a4.66,4.66,0,0,1,.5-2.2,6.61,6.61,0,0,0-3.3,5.7c0,1.7-.1,2.5-.9,2.5-.4,0-.6-.4-.7-.4s-.2.3-.2.4a1,1,0,0,0,.9,1.3ZM45.9,12.9c.8,0,1.5-.4,1.5-.6s-.1-.1-.4-.1a7.07,7.07,0,0,1-1.7-.2c-.8-.1-1.4-.4-1.7-.4-.1,0-.1,0-.1.1,0,.5.9,1.2,2.4,1.2Zm-4.2-2.4c.3-.2,1.3.1,2.7-.6a.9.9,0,0,1,.5-.1c.7,0,.5.8,1.1.8s1.1-.4,1.5-.4c.6,0,1.4,1.8,1.4,2.7s-1.5,1.6-3.2,1.6a4.05,4.05,0,0,1-4.1-3.7c-.1-.2,0-.3.1-.3ZM12.9,39.4a3,3,0,0,0-1.7,2.7,5.36,5.36,0,0,0,5.4,4.8c2.8,0,3.5-1.9,3.5-3.3,0-2.9-1.8-5-4.1-5a2.29,2.29,0,0,0-2.4,2.3,3.23,3.23,0,0,0,3.3,3.2,1.63,1.63,0,0,0,1.7-1.7,2.15,2.15,0,0,0-1.9-2.1.58.58,0,0,0-.6.6c0,.5.6.9,1.4.9.2,0,.3,0,.4-.1a.35.35,0,0,0,.1.2c0,.4-.4.7-1.1.7A1.84,1.84,0,0,1,15,40.7c0-.7.6-1.2,1.5-1.2a2.82,2.82,0,0,1,2.7,3,2,2,0,0,1-2.3,2.2c-3.2.3-4.7-2.5-4-5.3ZM11,18.5c-.4.1-1.4.7-1.4,1.6a1.08,1.08,0,0,0,1.2,1.1,1.88,1.88,0,0,0,.8-.2,2.34,2.34,0,0,1-.7-1.7,1.06,1.06,0,0,1,.1-.8Zm-4.8.3v.3c0,.9.5,1.4,1.1,1.4a2,2,0,0,0,1.5-.9c-.2,0-.5.1-.7.1a3.07,3.07,0,0,1-1.9-.9Zm-.6,1.7c0,1.5.4,2.2,1.2,2.2a4.07,4.07,0,0,0,2.4-1.3,7.39,7.39,0,0,1-1.8.3,2.14,2.14,0,0,1-1.8-1.2ZM34.9,50.7a8.37,8.37,0,0,0,1.2-.1c.3,0,.3.2.3.3,0,.4-.9.9-2.6.9A1.75,1.75,0,0,1,32,50.7a7.82,7.82,0,0,1-3.9,1.2c-3.9,0-5-1.7-6.2-2.3-.9-.4-2.4.4-4.4-1.8a2.77,2.77,0,0,0,.9.1c1.8,0,2.7-.9,2.7-2.3v-.5a3.87,3.87,0,0,1,2.1,2.8c0,.2.8.4,1.3.4a1.54,1.54,0,0,0,1.7-1.4,4.36,4.36,0,0,0,4.2-3.3,4.66,4.66,0,0,1,2,1.4,3.73,3.73,0,0,1,1.2-.2,5.92,5.92,0,0,1,2.1.4c0-.3.1-.6.5-.6.6,0,.4.6.6,1,.1.2.6.3.6.7a.47.47,0,0,1-.5.5h-.2c-.4.1-.4,2.9-2,2.9a3.33,3.33,0,0,1-2.8-2.2.73.73,0,0,0-.7-.6c-.3,0-.5.1-.8.5a6.79,6.79,0,0,1-4.9,2.1,10.87,10.87,0,0,1-1.3-.1h-.1a2.6,2.6,0,0,0,2.1.7c3.4,0,4.2-1.9,4.8-1.9a.37.37,0,0,1,.4.3,3.57,3.57,0,0,0,3.5,2.2ZM23.9,12c1.3,0,1.8,1.1,1.8,2.3,0,.5-.2,1.3-.4,1.3s-.2-.4-.3-.8-.1-.6-.3-.6-.5.8-.5,1.5c0,.4.1.9.4.9a.76.76,0,0,0,.5-.2,1.75,1.75,0,0,1-1.7,1.7c-1.7,0-2.3-2-2.5-3.1a4.68,4.68,0,0,1-3.7,1.9,2.2,2.2,0,0,1-2.3-2.3c0-.3.1-1.2.5-1.2s.1,1.6,1,1.6a1.11,1.11,0,0,0,.9-.8,5.16,5.16,0,0,0,.2-1.1c0-.5-.1-.8-.5-.8a2.47,2.47,0,0,0-.9.4,2.93,2.93,0,0,1,2.8-2.1c1.5,0,2.3,1.3,2.3,2.9a2,2,0,0,1-.1.7c1-1.4,1.9-2.2,2.8-2.2ZM19.1.5c0-.1-.6-.2-1.4-.2-1.3,0-1.1,1-2,1S14.9.2,13.7.2c-.8,0-1.5.1-1.5.3s.9.1.9.8-1.9.9-1.9,1.3c0,.1.2.2.3.2.4,0,1.1-.2,1.6-.2.3,0,.5.1.5.3,0,.5-1,1.3-1,1.7a.22.22,0,0,0,.2.2c.4,0,1-1,1.7-1,1,0,.3,2.2.9,2.2s.3-2.1,1.2-2.1c.7,0,1.2,1.5,1.6,1.5a.22.22,0,0,0,.2-.2c0-.4-.6-1.2-.6-1.8a.47.47,0,0,1,.5-.5c.4,0,1,.3,1.4.3.1,0,.2,0,.2-.2,0-.5-1.7-1-1.7-1.6s.9-.6.9-.9Zm27.5,38c-.4,0-2.6,3-4.1,3-.3,0-.6-.7-.6-1.2,0-.3.2-.5.8-.6,3.3-.8,2.6-3.2,5.4-3.2a3.22,3.22,0,0,1,3.3,3.4c0,2.5-3.6,5.7-4.2,5.7-.4,0-.9-.6-.9-1.1,0-.1.1-.3.4-.5a4.49,4.49,0,0,0,2.9-3.3c0-.2-.1-.4-.3-.4s-1.7,3.2-3.3,3.2a2.53,2.53,0,0,1-2.2-1.4c0-.8,3.1-2.2,3.1-3.3,0-.3-.2-.3-.3-.3Zm2-1.2c-.3,0-.6.2-.6.7a1.29,1.29,0,0,0,.7,1.1.85.85,0,0,0,.6.2c.6,0,1-.2,1-.6a1.65,1.65,0,0,0-1.7-1.4ZM23.6,2.5c0,.3,1.2,1.1,1.8,1.1.3,0,.4-.4.4-.9s-.3-.6-.8-.6-1.4.2-1.4.4Zm2,3.8c0-1.2-3.2-3.3-3.2-4.2V2c.2-.6,2.9-1.1,2.9-1.6,0-.3-.5-.3-.7-.3-1.8,0-4.4.7-4.4,1.3s2.4,2.3,2.4,3a.27.27,0,0,1-.3.3c-.7,0-2.1-.8-2.8-.8-.3,0-.4.2-.4.5,0,.9,1.1,2.7,1.1,3.2,0,.1,0,.1-.1.1-.3,0-2-1.9-2.6-1.9-.2,0-.2.3-.2.7v.7c0,.4,0,.7-.2.7-.5,0-.7-1.4-1.2-1.4S15.3,9,14.8,9s-.1-2.8-.6-2.8S12.9,8,12.5,8c-.2,0-.2-.2-.2-.3,0-.6.3-1.5.3-2,0-.3-.1-.4-.3-.4-.6,0-1.9,1-2.4,1-.1,0-.2,0-.2-.1,0-.5,2.1-1.9,2.1-2.6s-2.9-.2-2.9-.9S11,1.4,11,.8,8.6,0,7.6,0,5.8.1,5.8.5s2.6.7,2.6,1.1S5.7,3.2,5.7,3.8s3.8,0,3.8.6S6.2,7.9,6.2,8.8c0,.2.2.3.4.3,1,0,3.6-1.9,4.3-1.9.3,0,.3.3.3.6,0,.5-.2,1.3-.2,1.8s.1.8.5.8c.7,0,1.4-1.2,1.8-1.2.6,0,.3,3.6,1.2,3.6s1.1-3.9,1.6-3.9S17,10,17.5,10s.3-1.9.9-1.9,2.6,2.3,3.5,2.3c.3,0,.4-.2.4-.5,0-1-1.4-3.3-1.4-4.1a.27.27,0,0,1,.3-.3c.8,0,2.9,1,4,1,.2.2.4.1.4-.2ZM51.9,28.5a13.19,13.19,0,0,1,1.3-2.7c-.6-.3-2.3-1-2.3-2.2s1.7-2.4,2-2.4.2.1.2.4c0,.7-.3,1.8-.3,2.4s.3,1.1.7,1.1a2.89,2.89,0,0,0,1.2-2.3,2.69,2.69,0,0,0-2.3-2.7,11.94,11.94,0,0,1-3.7.8c-4.1,0-5.1-4.1-5.1-5.9v-.1a2.93,2.93,0,0,0,1.8.5c.7,0,1.3-.2,2.3-.2,2.3,0,3.3,1.6,4.8,3.6.9.5,2.9,1.4,2.9,3.9,0,2.2-2.3,3.4-2.9,5.7.9-.1,1.4-1.7,2.3-1.7.5,0,.7.4.7.9a4.38,4.38,0,0,1-1.4,2.9v-.3c0-.5-.2-1.3-.8-1.3-1,0-1.3,1-1.8,1.9-.6-2-1.3-3.7-2.7-4.8s-3.7-.5-3.7-2.5c0-.5.3-1.3.3-1.9a.73.73,0,0,0-.2-.6c1.8.7,1.2,1.9,2.3,3.2.7.8,2.7,1.6,3.8,4.9v-.5c0-2.9-3.8-5.6-4.1-6.8,2.2.3,2.6.8,3.6,3.7a9.12,9.12,0,0,1,1.1,3ZM10.5,12.8a3.59,3.59,0,0,0,.2-1.1c0-.9-.4-2.3-1.7-2.3a1.26,1.26,0,0,0-1.3,1.3c0,1.5,1.5,2.1,2.8,2.1ZM8.9,17.6a1.61,1.61,0,0,1-1.3-1.5c0-.4.3-.9.5-.9s.1.1.1.2a2.31,2.31,0,0,0,1.3,1.8.1.1,0,0,1,.1.1c0,.1-.3.3-.7.3Zm2.3-1.8a.56.56,0,0,1-.5.6c-.7,0-1.2-1-1.2-1.6,0-.4.2-.4.5-.4a.37.37,0,0,1,.3.1c.2.1.2.5.4.8s.5.4.5.5Zm-.7-2h-.4a3.87,3.87,0,0,0-2.2.6c-1.7,1.1-1.4,2.8-1.7,3.3,0,.1-.1.1-.1.2a.43.43,0,0,0,.4.4h.3c.5,0,1,.3,1.7.3a2.91,2.91,0,0,0,1.6-.5A3.9,3.9,0,0,0,12,15.4c0-.4-.3-.3-.5-.7s-.1-.6-.3-.8-.3-.1-.7-.1Zm2.1,3.1a3.69,3.69,0,0,0-.9,2.2A1.72,1.72,0,0,0,13.3,21a1.48,1.48,0,0,0,1.4-1.6,2.91,2.91,0,0,0-2.1-2.5ZM8.4,13.2a2.64,2.64,0,0,1-1.3.4,1.47,1.47,0,0,1-1.5-1.5,1.58,1.58,0,0,1,1-1.5v.3a2.46,2.46,0,0,0,1.8,2.3ZM42.7,24.4a.68.68,0,0,1,.7-.7.77.77,0,0,1,.8.7.79.79,0,0,1-.8.8.71.71,0,0,1-.7-.8Zm.5,22.2c.1,0,.2.1.2.4a1.64,1.64,0,0,1-.9,1.4,3.75,3.75,0,0,1-2.1.6,3.53,3.53,0,0,0,.3-1.4v-.4H41a4.3,4.3,0,0,0,2.2-.6Zm.2-1.9c.2-.1.2-.3.2-.6v-.4c0-.6-.8-.9-2-.9-1.4,0-2.2.6-2.2.9v.9c0,.4.8.7,1.9.7a3.48,3.48,0,0,0,2.1-.6Zm1,.2a5.6,5.6,0,0,1-3.6,1.3,6.34,6.34,0,0,1-1.7-.3c-.2,0-.4.2-.6.4a3.92,3.92,0,0,0-1.1,2.6,1.53,1.53,0,0,0,1.7,1.5c3.6,0,6.3-2.3,6.3-4.1,0-1-.6-1.4-1-1.4ZM45,28.7c0,.5.2,1,.6,1s.8-.6.8-1.3-.1-1.4-.1-1.7a.35.35,0,0,1,.1-.2c.3,0,.6.8.9.8s.9-.6,1.1-.6a.1.1,0,0,1,.1.1c0,.3-.4.9-.4,1.2s1.1.3,1.1.4c0,.3-1.2.3-1.7.5s-.9.5-.9.9.4.5.9.5a7.75,7.75,0,0,0,2.5-.7c.1,0,.1,0,.1.1s-.7.8-.7,1.1,1.2.7,1.2.9-.1.1-.2.1-.5-.1-.8-.1-.3,0-.3.1,0,1.2-.2,1.2-.9-2.3-2.4-2.3a.46.46,0,0,0-.4.5,2.92,2.92,0,0,0,1.5,2.1c.3.2.9.4.9.5s-1.2,0-1.2.4.2.9.2,1.2c0,.1,0,.2-.1.2s-.8-1.1-1.1-1.1-.7.6-.9.6a.1.1,0,0,1-.1-.1c0-.4.7-1.4.7-2.4,0-.5-.1-1.5-.6-1.5s-1,.7-1.2,1.5c-.1.4,0,2.1-.3,2.1s-.2-1.1-.6-1.1-.9.5-1.1.5a.1.1,0,0,1-.1-.1c0-.2.6-1,.6-1.1,0-.3-1.3-.3-1.3-.6,0-.1.5-.2,1-.3,1-.2,2.4-.9,2.4-1.9s-1.1-1.6-1.8-2.1c-.4-.2-.8-.4-.8-.6s.5-.2.7-.2.6,0,.6-.3v-.8c0-.2,0-.3.1-.3.3,0,.7.9.9.9s.7-.8,1-.8c.1,0,.1.1.1.2a9.19,9.19,0,0,0-.8,2.6ZM35.8,23c.2,1.6,2.4.8,2.4,2.8,0,.3-.1.7-.1,1.1s0,.8.4.8.4-.2.4-.5-.1-.7-.1-.9a.72.72,0,0,1,.8-.8c.7,0,1.3.8,2.4.8-.3,1.2-2.8.9-2.8,2.3,0,.7.7.8,1.1.8s.5-.1.5-.4v-.5a.22.22,0,0,1,.2-.2c.4,0,2.5,1.6,2.5,2.1s-2.2.9-2.8.9c-.2,0-.2-.1-.2-.2s.3-.5.3-.8-.3-.3-1.1-.3c-.4,0-.6,0-.6.3,0,.5.8,1.2.8,1.6s-.2.6-.8.6-1.3-.4-1.3-1.1c0-.5.6-1.1.6-1.4a.32.32,0,0,0-.3-.3c-.7,0-.9,1.9-3.4,2.1a2.08,2.08,0,0,0,.8-1.6c0-.4-.1-.7-.1-1.2s.3-.9.7-.9c.7,0,1.1,1,1.5,1s.5-.2.5-.6c0-1.5-2.8-1.3-2.8-3.3-.2-.5,0-1.2.5-2.2Zm3.7,12.5a.47.47,0,0,0,.5.5.56.56,0,0,0,.5-.6c0-.4-.4-1-.7-1s-.1.2-.1.5a3.93,3.93,0,0,0-.2.6Zm-1-2.5a3.56,3.56,0,0,1,3.1,3.3,1.74,1.74,0,0,1-1.7,1.9,1.66,1.66,0,0,1-1.7-1.8c0-.8.6-1.7.6-2.5a.86.86,0,0,0-.3-.9Zm-2.6,3.3a.86.86,0,0,1,.3.6c0,.3-.1.6-.1.9a.82.82,0,0,0,.8.9.9.9,0,0,0,.9-.9c0-.8-.7-1.5-1.9-1.5ZM42.3,35a1.42,1.42,0,0,1,.2.6c0,.5-.4,1-.4,1.6a1.22,1.22,0,0,0,1.2,1.2A1.29,1.29,0,0,0,44.6,37c.1-1-.8-1.9-2.3-2Zm-5.9-1c.9.1,1.1.4,1.1.7s-.4.6-.8.6-.6-.1-.9-.1a1.58,1.58,0,0,0-1.2.5.64.64,0,0,1,.6.6c0,1.1-3.1.2-3.1,3.1,0,1.5,1.6,3.2,4,3.2,1.2,0,2-.4,2-.9s-.7-.1-.7-.4c0-.1.2-.4.2-.6s-.1-.3-.2-.3a6.82,6.82,0,0,1-2.3.6c-1,0-2.1-.6-2.1-1.4,0-.2.1-.3.2-.3s.3.1.4.1.1-.1.1-.3,0-.8.4-.8,1.1,1.3,3.7,1.3c.9,0,2.6-.2,3.2-.8a5,5,0,0,1-5.1,4.9,5.41,5.41,0,0,1-5.5-5.5,5.68,5.68,0,0,1,5.7-5.6c.8,0,1.6.3,1.6.7s-1.2.1-1.3.7ZM22.5,14.3c0-.3-.1-.4-.2-.4s-.4.2-.7.7c0,.7.2,1,.3,1s.6-.6.6-1.3Zm-2.7.8c.2,0,.5-.2,1-.8v-.8c0-.4-.2-.8-.4-.8-.6,0-.9,1.5-.9,1.9s.2.5.3.5ZM23,16.8c.5,0,1-1.8,1-3,0-.3,0-.5-.2-.5-.4,0-1.1,1.9-1.1,2.9q0,.6.3.6Zm-4.8-1.1c.7,0,1.4-3.5,1.4-4.1,0-.2-.1-.3-.2-.3-.6,0-1.4,3.4-1.4,4.1,0,.2.1.3.2.3Zm2.1,1.5c-.8,0-.9,1-.9,3-.6-1.3-1.6-2.8-2.8-2.8-.8,0-1.1.5-1.1,1.5a1.7,1.7,0,0,0,.1.7.79.79,0,0,1,.8-.5,3.57,3.57,0,0,1,2.5,1.5,21.11,21.11,0,0,0-2.1-.3,1.64,1.64,0,0,0-1,.2,2.55,2.55,0,0,0-1.3,2.3,1.27,1.27,0,0,0,.1.6,4.24,4.24,0,0,1,3.6-2.2h.5a3.44,3.44,0,0,0-.8,2.1c0,.3-.1.3-.3.3,0,.6.5,1.6.5,2.1a.52.52,0,0,1-.2.4c0,.8.8,1.5.8,2,0,.1,0,.3-.1.3.1.3,1,.9,1.1,1.2s.3.4.4.4c.3,0,.8-.4.8-.7,0-.1-.1-.3-.2-.3a2.13,2.13,0,0,1-.7-1.2.54.54,0,0,1-.4-.3,11,11,0,0,0-.3-1.6c-.3-.1-.4-.2-.4-.7,0-.3.2-1.2.2-1.6a.32.32,0,0,1-.3-.3c0-.6.6-1.1.8-1.9A2.83,2.83,0,0,1,21,23.8c0,.4-.1.8-.1,1.1.8-.4,2-1,2-2.2,0-.7-.3-1.5-2.5-1.8a5.7,5.7,0,0,1,2.2-.4c1.2,0,1.9.4,2.1,1.3a2.84,2.84,0,0,0,.4-1.2A1.69,1.69,0,0,0,23.3,19,5.66,5.66,0,0,0,20,20.4c.5-1,.8-1.7,1.5-1.7h.3a2.06,2.06,0,0,0-1.5-1.5ZM8,5.2A3.77,3.77,0,0,1,6,6.9c-.2,0-.3-.2-.3-.4a1.82,1.82,0,0,1,.4-1.1,2.5,2.5,0,0,1,1.3-.3c.3-.1.6-.1.6.1ZM52.8,31.1c1,0,1.7,1.3,1.7,2.7a5.86,5.86,0,0,1-2,4.4c0-2.6-3.2-1.8-3.2-3.7a1.26,1.26,0,0,1,1.3-1.3,2,2,0,0,1,1.4.5,1.85,1.85,0,0,1-.5-1.2,1.24,1.24,0,0,1,1.3-1.4ZM38.5,11.4a1.28,1.28,0,0,0-1-.4A1.55,1.55,0,0,0,36,12.1a1.48,1.48,0,0,1-.1-.7,1.91,1.91,0,0,1,2-1.9,3.56,3.56,0,0,1,1.9.7c.2,0,.4-.2.5-.2s.2.3.2.6a3.07,3.07,0,0,1-1.2,2.6,2.23,2.23,0,0,0-1-.9c-.1-.1-.2-.2-.2-.3a.82.82,0,0,1,.4-.6Zm-2.9,1.4a1.93,1.93,0,0,0,1.5.7c.2,0,.5-.1.6-.1s.3.1.3.2a1.52,1.52,0,0,1-.4.8,2,2,0,0,0,.8.1,2.3,2.3,0,0,0,2.4-2.4,2.84,2.84,0,0,1,.4,1.2,2.75,2.75,0,0,1-3,2.9,4.28,4.28,0,0,1-1.5-.3c-.4,0-.3.7-.6.7s-.8-1.1-.8-2.1a1.75,1.75,0,0,1,.3-1.7ZM22.2,7.2c0,.7,2.4,4,2.9,4s.7-.7.7-1.3c0-.2,0-.3-.1-.4a10.72,10.72,0,0,0-3.3-2.4c-.2,0-.2,0-.2.1ZM50,5.6c0-1.4-3.3-1.7-3.3-2s1.8-.7,2.8-.7C48.1,1.1,46,1.2,46,.9s1.5-.6,3-.6c1.2,0,2.3.3,2.3,1.2,0,.5-.4,1-.4,1.8a.73.73,0,0,0,.8.8c.6,0,.7-.6.7-1.3s-.1-1-.1-1.3A1.26,1.26,0,0,1,53.6.2c.7,0,.8.3,1.8.3a1.55,1.55,0,0,0-.7,1.1c0,.8.5,1.4.5,3,0,3-2.9,4.1-6.3,4.1-1,0-2-.1-3-.2-.2,0-.2-.1-.2-.2,0-.3,1.4-.4,1.4-1.6a7.47,7.47,0,0,0-.2-1.1.22.22,0,0,1,.2-.2c.3,0,.9,1.1,1.9,1.1.3.1,1,0,1-.9Zm3.3-2c0,1.7-1.2,3-3.5,3.4h.7c2.6,0,3.6-1.2,3.6-2.2a1.3,1.3,0,0,0-.8-1.2ZM51.4,19.1c0-.4-1-.4-1.1-1.6,0-.2-.1-.5-.3-.5s-.1,1.1-.5,1.1c-.9,0-1.2-1.7-1.5-1.7-.1,0-.2.1-.2.3v.6c0,.2-.1.4-.3.4-.5,0-1-1.2-1.4-1.2a.22.22,0,0,0-.2.2c0,.2.4.7.4.9,0,.5-1.3.2-1.3.6,0,.2.2.2.4.2.4,0,1-.2,1.4-.2.2,0,.5,0,.5.3s-.7.6-.7.9a.22.22,0,0,0,.2.2c.5,0,1.4-.9,2.1-.9.1,0,.4.1.4.2s-.7.7-.7,1.1a.22.22,0,0,0,.2.2c.3,0,.8-.9,1.5-.9.3,0,.6.1.8.1s.3-.2.3-.3ZM37.6,4.4c0-.2-.8-.6-.8-.8a.1.1,0,0,1,.1-.1c.2,0,.6.1.9.1s.3-1.1.5-1.1.4,1,.6,1,.7-.3.9-.3a.1.1,0,0,1,.1.1c0,.1-.5.7-.5.8s1.1.4,1.1.5-1.1.2-1.1.3.4.7.4.8a.1.1,0,0,1-.1.1,9.44,9.44,0,0,1-.9-.3c-.2,0-.6.8-.7.8s-.1-.1-.1-.2V5.3c0-.1,0-.2-.1-.2h-.8c-.1,0-.1,0-.1-.1-.1.1.6-.4.6-.6Zm3.8,3.7c-1.3,0-2.2-.7-2.2-1a.27.27,0,0,1,.3-.3c.4,0,1.3.7,1.7.7.1,0,.1,0,.1-.2S41,6.4,41,6.1c0-.1.1-.1.2-.1.5,0,1.3.2,1.7.2a.22.22,0,0,0,.2-.2c0-.4-1.3-1.3-1.3-1.5s1.6-.6,1.6-.9-2.1-.1-2.1-.5.4-.7.4-.9-.1-.1-.2-.1a15.46,15.46,0,0,1-1.5.4c-.2,0-.4,0-.4-.3s.8-.9,1.9-.9c1.9,0,3,1.3,3,3.5a3.17,3.17,0,0,1-3.1,3.3ZM28.3,41.4a1.42,1.42,0,0,1-.2.6,1.38,1.38,0,0,0-1.1-.6c-2,0-1.2,2.9-3.4,2.9a10.87,10.87,0,0,1-1.3-.1.22.22,0,0,0-.2.2c0,.5.7,1.7,2.7,1.7s3.9-1.2,3.9-2.7a3.09,3.09,0,0,0-.2-.8.76.76,0,0,1,.4-.2c.3,0,.5.3.8.3a.47.47,0,0,0,.5-.5c0-.3-.1-.4-.4-.5a.55.55,0,0,0,.3-.5.58.58,0,0,0-.6-.6.52.52,0,0,0-.4.2.66.66,0,0,0-.6-.7.47.47,0,0,0-.5.5,1.91,1.91,0,0,1,.3.8Zm-5.1.8c-.6,0-1.4-.6-1.4-1s.3-.4.5-.4c.5,0,1.3.6,1.3,1.1,0,.1-.1.3-.4.3Zm-5.4-4.4A3,3,0,0,1,20.3,40a4.67,4.67,0,0,0,.7,2.1,3.5,3.5,0,0,0,2.3,1c.7,0,1.3-.2,1.3-.9a2.63,2.63,0,0,0-2.3-2.3h-.5a.73.73,0,0,1-.6-.2c-.3-.3-.4-1.7-1-2.6a2.29,2.29,0,0,0-2.3-1.2c-.7,0-1.4.4-1.4.9s.1.7,1.3,1Zm9.7-2.3c0-.9-1.8-.9-1.8-2.2a3.27,3.27,0,0,1,.6-1.5,2.37,2.37,0,0,0,1.4,1.9,2.41,2.41,0,0,1,1.9,2.6,3.94,3.94,0,0,1-4.3,3.9A4.37,4.37,0,0,1,21,36.1c0-.5.1-1.1.5-1.1s.4.2.6.5a4,4,0,0,0,3.2,1.1c1.3-.1,2.2-.6,2.2-1.1Zm0,1.4c-.7.3-.9.2-.9.9,0,.3-.1.6-.1.8s0,.4.3.4a2.5,2.5,0,0,0,1.8-2.2c0-.3-.2-.4-.3-.4s-.3.3-.8.5Zm-6.1-9.8c0-1.2,2.9-1.9,2.9-3.4a1.93,1.93,0,0,0-.3-1A3.25,3.25,0,0,1,25.8,25c0,1.3-1.4,1.9-1.4,2.8s1.5,1.1,1.5,2.3c0,1-1.4,2.1-1.4,3.4a1.88,1.88,0,0,0,1.8,1.9,3.4,3.4,0,0,1-1,.1c-1.9,0-3.9-1.6-3.9-3.5a3.49,3.49,0,0,1,1-2.4,2.56,2.56,0,0,0,1.4.8.37.37,0,0,0,.4-.4c0-.7-2.8-1.3-2.8-2.9Z"/><path class="cls-1" d="M25.4,68.4A2.56,2.56,0,0,0,27.6,67a17.33,17.33,0,0,1-.8-3.5c-.2-3.5,1.1-6.8,2.6-6.9,1.1-.1,2,1,2.1,2.6.3,4.4-1.2,6.2-1.9,7.8a2.68,2.68,0,0,0,2.1,1.7,1.56,1.56,0,0,0,.9-.3,3.42,3.42,0,0,1-.1-1.1c0-2.5,1.6-4.7,3.1-4.7,1.1,0,1.8,1.5,1.8,2.5,0,1.2-1,2.1-2.4,3a1.5,1.5,0,0,0,1.1.4c2.1,0,3.2-2.5,4-4.8.1-.4.4-1.1.9-1.1.9,0,1.2,5.7,2.7,5.7.6,0,1.1-1.3,1.1-2.2,0-.7-.3-.8-.3-1.9s.6-2.1,1.5-2.1c.5,0,.7.5.7,1.1,0,2.3-1.7,6.6-4.1,6.6-1.9,0-1.7-3.2-2.4-3.2s-1.7,3.2-5.3,3.2a2.23,2.23,0,0,1-1.7-.9,4,4,0,0,1-2.4.8c-1.3,0-1.9-1.4-2.5-1.4s-1.4,1.4-3.6,1.4c-1.7,0-2-2.3-2.6-2.3s-1.4,2.3-2.3,2.3c-1.5,0-1.9-4-3.2-4-1.1,0-4.4,4.1-5.3,4-.4,0-.5-.3-.5-.7s.5-1.8.7-2.5c.3-1.1.6-2.3.7-2.7a.84.84,0,0,1,.9-.6c.2,0,.2.3.3.6.2.9.4,1.8.7,1.8.5,0,2.2-3.2,3.2-3.2,1.2,0,1.3,5.1,3,5.1.5,0,.9-.7,1.3-1.5,0-1.3.4-3.3,1.5-3.3.8,0,1.1,1.7.6,3.2-.3,2,.9,2.5,1.7,2.5Zm27.1-3.5a2.26,2.26,0,0,0-2.1-2.2c-1.6,0-3.2,1.8-3.2,4.2A2.59,2.59,0,0,0,50,69.8c2.4,0,3.9-2,4.6-3.6.4,1.1.6,3.6,1.5,3.6.4,0,.6-.2,1.1-1.2,1.1-2.4,2.1-5.2,3.6-5.2.5,0,.2,1,1.5,1a1.11,1.11,0,0,0,1.1-1.1,1.72,1.72,0,0,0-1.9-1.5c-3.4,0-4.1,5.1-4.7,5.1-.9,0-.6-4.1-1.3-4.1s-.9.7-.9,1c-.5,1.9-1.8,4.6-3.8,4.6-.5,0-1.3-.2-1.3-.7-.2-.3,3-.3,3-2.8ZM30.3,60.2c-.1-1-.3-1.5-.9-1.4s-1.1,2.3-.9,4.7c.1,1.6.3,1.8.5,1.8.5-.1,1.5-2.9,1.3-5.1ZM24.4,58a1,1,0,0,0-1.1-1A1.48,1.48,0,0,0,22,58.6a1.11,1.11,0,0,0,1.1,1.1c.8.1,1.4-.8,1.3-1.7Zm11.3,7.5c0-.6-.3-1.1-.7-1.1a1.38,1.38,0,0,0-1.1,1.5,2,2,0,0,0,.5,1.5,2,2,0,0,0,1.3-1.9Zm14.2-1.3c.8,0,1,.9.8,1.5A2.21,2.21,0,0,1,48.8,67c-.2-.5-.3-2.8,1.1-2.8ZM0,64.8a14.41,14.41,0,0,1,.7-5.1c.3-1.1.6-1.5,1.6-1.7.8-.1.7.7.5,1.7a17.66,17.66,0,0,0-.4,5.7C2.5,68,3.7,69,5,69c2,0,2.8-1.6,3.2-4a6.71,6.71,0,0,0-.1-3.4A15.6,15.6,0,0,1,7.6,60c-.1-1.4.5-2,1.1-2.2s.9.1,1.2.9a17.15,17.15,0,0,1,.3,4.9c-.1,3-1.6,6.6-5.3,6.5C1.5,70,.1,68,0,64.8Z"/></g></g></svg>