<svg xmlns="http://www.w3.org/2000/svg" viewBox="0 0 69.94 22.73"><defs><style>.cls-1{fill:#fffef8;}</style></defs><g id="Layer_2" data-name="Layer 2"><g id="Layer_1-2" data-name="Layer 1"><path class="cls-1" d="M13.28,0a1.91,1.91,0,0,1,1.6.6,1.84,1.84,0,0,1,.3,2,1.69,1.69,0,0,1-1.4.9,2.78,2.78,0,0,1-1.8-.3,1.75,1.75,0,0,1-.4-2.4A2,2,0,0,1,13.28,0Z"/><path class="cls-1" d="M52.38,0a2.51,2.51,0,0,1,1.9.5,1.75,1.75,0,0,1-.2,2.7,2.56,2.56,0,0,1-2.4.1,1.79,1.79,0,0,1-.6-2.7A1.49,1.49,0,0,1,52.38,0Z"/><path class="cls-1" d="M67.38.23a1.1,1.1,0,0,1,1.2.3,1,1,0,0,1-.2,1.6,1.16,1.16,0,0,1-1.6-.4A1.18,1.18,0,0,1,67.38.23Zm.2.1c-.7.1-.8,1.2-.3,1.6a.91.91,0,0,0,1.1-.1.91.91,0,0,0,0-1.2C68.28.33,67.88.33,67.58.33Z"/><path class="cls-1" d="M.28.23c.2-.1.5,0,.7,0h3.6c.2,0,.4.1.4.3s-.1.4-.1.6a4.44,4.44,0,0,0-.1,2l.6,8.4c0,.3.4.2.3,0,.2-2.9.4-5.7.7-8.6a5,5,0,0,0-.2-2.1c-.1-.3.1-.5.4-.5h4a.55.55,0,0,1,.5.3c0,.2-.1.4-.1.6a18.34,18.34,0,0,0-.7,3.2c-.5,3.5-1.1,7.1-1.6,10.6a.65.65,0,0,1-.6.6H3.18a.86.86,0,0,1-.7-.6c-.6-3.9-1.2-7.8-1.7-11.7A9.38,9.38,0,0,0,.18.93C-.12.63,0,.33.28.23Z"/><path class="cls-1" d="M55.58.23H59c.3,0,.5.2.4.5V15c0,.2-.1.5-.4.5h-2.9a.47.47,0,0,1-.5-.5V6.63a29.2,29.2,0,0,0-.3-5.9A.55.55,0,0,1,55.58.23Z"/><path class="cls-1" d="M60.08.43c.1-.2.4-.2.6-.2h3c.3,0,.4.3.4.5v7.4c.1-.1.3,0,.4-.2s.1-.7.2-1a4.29,4.29,0,0,1,1-2.4,3,3,0,0,1,2.4-.7c.2,0,.5.1.5.4v3.3a.37.37,0,0,1-.4.4,2.9,2.9,0,0,0-1.6,0,.76.76,0,0,0-.2.9c1.1,2,2.2,4.1,3.3,6.1.1.2,0,.6-.3.5h-3.3a.68.68,0,0,1-.6-.4c-.3-.9-.7-1.8-1-2.8a2.35,2.35,0,0,0-.5-1c-.1,1.3,0,2.6-.1,3.9a.43.43,0,0,1-.4.4h-2.9a.54.54,0,0,1-.5-.5V4a16.28,16.28,0,0,0-.3-3.1C60.08.73,60,.53,60.08.43Z"/><path class="cls-1" d="M67.38.63s.6-.1.8.1a.62.62,0,0,1-.1.8c.1.1.1.2.2.4H68a4,4,0,0,1-.3-.4v.4h-.3Zm.3.2v.4H68a.19.19,0,0,0,0-.3C68,.73,67.78.83,67.68.83Z"/><path class="cls-1" d="M21,4.13a3.86,3.86,0,0,1,2.1-.3,2.65,2.65,0,0,1,1.8,1.1,3.66,3.66,0,0,1,.4,1.8v8.2c0,.2-.1.5-.4.5H22a.55.55,0,0,1-.5-.3V7.53a1.08,1.08,0,0,0-.2-.8.67.67,0,0,0-1,.1c-.2.2-.1.5-.1.8v7.2c0,.3-.1.6-.4.5h-2.9a.54.54,0,0,1-.5-.5V8.23a17.11,17.11,0,0,0-.3-3.9c-.1-.3.2-.5.5-.5h3.2c.3.1.3.5.4.8C20.28,4.63,20.58,4.33,21,4.13Z"/><path class="cls-1" d="M27.18,4.93a7.16,7.16,0,0,1,4.7-1.1A3.51,3.51,0,0,1,34.38,5a4,4,0,0,1,.8,2.6V15c0,.2-.1.5-.4.5h-2.7c-.2,0-.4-.1-.4-.2a1.7,1.7,0,0,1-.1-.7,7.05,7.05,0,0,1-.9.7,3.66,3.66,0,0,1-2.3.4,2.58,2.58,0,0,1-2-1.5,3.89,3.89,0,0,1-.2-2.8,4.13,4.13,0,0,1,1.9-2.2c.9-.6,2-.9,2.9-1.4.3-.2.6-.6.3-.9a1.5,1.5,0,0,0-1.3-.1,7.44,7.44,0,0,0-2.7,1.6c-.2.2-.6,0-.6-.3V5.53C26.68,5.23,27,5,27.18,4.93Zm2.9,6.3a1.23,1.23,0,0,0-.2,1.4.75.75,0,0,0,1.2,0,1.68,1.68,0,0,0,.3-1.2V9.93C31,10.43,30.48,10.73,30.08,11.23Z"/><path class="cls-1" d="M41,4a4.27,4.27,0,0,1,2.5-.1,2.44,2.44,0,0,1,1.1.9,4.35,4.35,0,0,0,.7-.6,3.46,3.46,0,0,1,2.8-.4A2.55,2.55,0,0,1,49.58,5a5,5,0,0,1,.3,2.4v7.5c0,.2-.1.5-.4.4h-3c-.3,0-.5-.3-.4-.5V8a2.46,2.46,0,0,0-.1-1.2c-.1-.4-.7-.4-.9-.1a.84.84,0,0,0-.2.7v7.4c0,.2-.1.5-.4.5h-2.8a1.27,1.27,0,0,1-.6-.1.75.75,0,0,1-.1-.5V7.33a1.08,1.08,0,0,0-.2-.8.52.52,0,0,0-.8.2,2,2,0,0,0-.1.8v7.2c0,.3-.1.6-.4.6h-2.9a.54.54,0,0,1-.5-.5V7.43a15.26,15.26,0,0,0-.3-3c-.1-.3.2-.5.5-.5h2.9a.75.75,0,0,1,.5.1c.2.2.1.5.1.7C40.18,4.63,40.48,4.23,41,4Z"/><path class="cls-1" d="M11.68,4c.2-.1.4.1.6.1a3.3,3.3,0,0,0,2.4-.1.37.37,0,0,1,.5.2c.1.2,0,.5,0,.7v10c0,.2-.1.5-.3.5h-3c-.3,0-.5-.3-.4-.5V4.43A.4.4,0,0,1,11.68,4Z"/><path class="cls-1" d="M54.18,4a.31.31,0,0,1,.4.4v10.7c0,.2-.2.3-.4.3h-2.9a.56.56,0,0,1-.5-.6V4.33c0-.2.2-.5.4-.4a5.27,5.27,0,0,0,1.2.3A2.67,2.67,0,0,0,54.18,4Z"/><path class="cls-1" d="M3.28,17.83a1.37,1.37,0,0,1,1.2-.4,1,1,0,0,1,.5.4A4.82,4.82,0,0,1,5,19c-.2-.2-.3-.5-.6-.5s-.4.3-.3.5c.1.4.5.7.7,1.1a1.82,1.82,0,0,1,.1,2,1.31,1.31,0,0,1-1.2.6c-.3,0-.7-.1-.7-.5v-1.3c.2.2.3.5.6.6a.37.37,0,0,0,.5-.2.83.83,0,0,0-.3-.8,2.92,2.92,0,0,1-.7-1.2A1.21,1.21,0,0,1,3.28,17.83Z"/><path class="cls-1" d="M62.58,17.93a1.12,1.12,0,0,1,1.9.1,4.22,4.22,0,0,1,.3,2.2,3,3,0,0,1-.5,1.9,1.24,1.24,0,0,1-1.5.4c-.2-.1-.4-.2-.4-.4v-1h.1c.2.2.3.4.5.5a.37.37,0,0,0,.5-.2,1.49,1.49,0,0,0,.2-.9.83.83,0,0,1-.8.3c-.5-.1-.7-.6-.8-1A8.71,8.71,0,0,1,62.58,17.93Zm.8.5a3.3,3.3,0,0,0,0,1.4.27.27,0,0,0,.3.3,3.09,3.09,0,0,0,.2-.8,2,2,0,0,0-.2-1.1C63.58,18.23,63.38,18.33,63.38,18.43Z"/><path class="cls-1" d="M67.88,17.93a1.24,1.24,0,0,1,1.5-.4c.1.1.3.2.3.3v1.1c-.2-.1-.3-.3-.5-.5a.38.38,0,0,0-.6.1,1.49,1.49,0,0,0-.2.9,1.49,1.49,0,0,1,.7-.3c.4,0,.7.5.8.9a3.53,3.53,0,0,1-.2,2,1.21,1.21,0,0,1-2,.1,3.13,3.13,0,0,1-.4-1.9A4.93,4.93,0,0,1,67.88,17.93Zm.7,2.1c-.2.2-.1.4-.2.7a3.4,3.4,0,0,0,.1,1c.1.2.3.1.3,0a3.79,3.79,0,0,0,0-1.5C68.78,20.13,68.68,19.93,68.58,20Z"/><path class="cls-1" d="M.48,17.53h2.1v1.2a3,3,0,0,0-1-.2v.9h.9v1h-.9v1.1h1v1h-2v-2.9A7.41,7.41,0,0,0,.48,17.53Z"/><path class="cls-1" d="M5.28,17.53h2.5v1.2a1.45,1.45,0,0,0-.7-.2c-.1,1.4,0,2.7,0,4.1h-1c-.1-1.4.1-2.7,0-4.1a4.88,4.88,0,0,1-.7.3A6.15,6.15,0,0,1,5.28,17.53Z"/><path class="cls-1" d="M60.48,18.73a7.46,7.46,0,0,0,.7-1.2H62v5.1h-.9c-.1-.1,0-.2-.1-.3v-3a4.17,4.17,0,0,1-.6.8A6.15,6.15,0,0,1,60.48,18.73Z"/><path class="cls-1" d="M65.08,17.53h2.3a2.46,2.46,0,0,1-.1,1.2,8.09,8.09,0,0,0-.8,2.5,6.6,6.6,0,0,0-.1,1.4h-1.1a7.17,7.17,0,0,1,.6-2.9,5.36,5.36,0,0,1,.5-1.1h-1.2A1.45,1.45,0,0,1,65.08,17.53Z"/></g></g></svg>