<svg xmlns="http://www.w3.org/2000/svg" viewBox="0 0 69.97 19.52"><defs><style>.cls-1{fill:#fff;fill-rule:evenodd;}</style></defs><g id="Layer_2" data-name="Layer 2"><g id="Layer_1-2" data-name="Layer 1"><path class="cls-1" d="M54.91,7.74c.7-.1,5.1,0,6.1,0a15.06,15.06,0,0,1,3,.1,4.49,4.49,0,0,1-.4,8.7c-.7.1-5.1,0-6.1,0a15.06,15.06,0,0,1-3-.1,4.53,4.53,0,0,1-3.1-5.6c0-.1.1-.2.1-.3a4.82,4.82,0,0,1,3.4-2.8Zm15,5.3a7.35,7.35,0,0,0-2.5-6.5,8.47,8.47,0,0,0-3-1.5,20.62,20.62,0,0,0-4.3-.1h-4.5a7.4,7.4,0,0,0-3.6.9,7.33,7.33,0,0,0-2.5,10.1,11.51,11.51,0,0,0,1.4,1.7c2.2,1.9,4.4,1.7,7.3,1.7h4.5a7,7,0,0,0,7.2-6.3Zm-42.4-6.1a7.84,7.84,0,0,0,1.1,1.8l3.5,5.2c.7,1,1.7,2.5,2.4,3.5a4.28,4.28,0,0,0,3.9,2,4.23,4.23,0,0,0,3.4-2.3l2.4-3.5,4.1-6.1a1.46,1.46,0,0,0-.3-2.1,2,2,0,0,0-1.1-.3,2.59,2.59,0,0,0-1.5,1.4L43.11,10c-.8,1.1-1.6,2.3-2.4,3.5l-1.2,1.7a1.75,1.75,0,0,1-1.8,1.1,2.94,2.94,0,0,1-1.4-1.5l-1-1.7-2.4-3.5-2.4-3.5A1.75,1.75,0,0,0,28.71,5a1.83,1.83,0,0,0-1.2,1.9ZM0,6.94a5.24,5.24,0,0,0,1,1.8l4.7,6.9c1.2,1.8,2.3,3.9,5,3.8s3.5-2.2,4.8-4.1l3.5-5.2,1.2-1.6a3.08,3.08,0,0,0,.9-2,1.46,1.46,0,0,0-1.6-1.3h-.2a2.26,2.26,0,0,0-1.4,1.3c-.8,1.2-1.5,2.3-2.4,3.5s-1.5,2.4-2.3,3.6c-.4.6-.8,1.1-1.2,1.7a2,2,0,0,1-1.7,1.2A2.76,2.76,0,0,1,8.81,15c-2-2.8-4.1-5.8-5.9-8.7a1.75,1.75,0,0,0-1.8-1.1A1.49,1.49,0,0,0,0,6.94Zm24.1-1.7c-1.4.3-1.2,1.5-1.2,3.1v8.6a4.13,4.13,0,0,0,.2,1.9,1.37,1.37,0,0,0,2,.4,1.56,1.56,0,0,0,.6-.8c.1-.4,0-5.7,0-6.4V7.74a4.13,4.13,0,0,0-.2-1.9,1.34,1.34,0,0,0-1.4-.6Zm0-5.2a2.65,2.65,0,0,0-.6.5l-1.1,1.1c-.7.7-.1,1,.7,1.8l.6.5c.7.7.9.2,1.9-.7,1.3-1.2,1.2-1-.7-2.9a.67.67,0,0,0-.8-.3Z"/></g></g></svg>